<?xml version="1.0" encoding="utf-8"?>
<!-- Generator: Adobe Illustrator 23.0.1, SVG Export Plug-In . SVG Version: 6.00 Build 0)  -->
<svg version="1.1" id="Layer_1" xmlns="http://www.w3.org/2000/svg" xmlns:xlink="http://www.w3.org/1999/xlink" x="0px" y="0px"
	 viewBox="0 0 170 170" style="enable-background:new 0 0 170 170;" xml:space="preserve">
<style type="text/css">
	.st0{fill:#938673;}
</style>
<g>
	<path class="st0" d="M169.37,84.35c-0.03-5.28-0.56-10.45-1.52-15.46c-0.07-0.35-0.12-0.7-0.19-1.04
		c-1.05-5.11-2.58-10.04-4.51-14.77c-0.13-0.33-0.25-0.66-0.39-0.99c-2.03-4.82-4.51-9.4-7.37-13.71c-0.19-0.29-0.38-0.59-0.58-0.89
		c-2.92-4.3-6.23-8.3-9.86-11.99c-0.25-0.25-0.5-0.5-0.75-0.75c-3.68-3.63-7.68-6.93-11.96-9.84c-0.29-0.2-0.59-0.38-0.89-0.58
		c-4.28-2.83-8.82-5.29-13.59-7.32c-0.32-0.14-0.66-0.26-0.98-0.39C112,4.67,107,3.12,101.82,2.06c-0.34-0.07-0.7-0.12-1.04-0.19
		C95.79,0.92,90.65,0.4,85.39,0.37c-0.17,0-0.35-0.01-0.52-0.01c-0.18,0-0.36,0.01-0.54,0.01C79.02,0.4,73.82,0.94,68.77,1.91
		c-0.35,0.07-0.7,0.12-1.04,0.19c-5.12,1.06-10.06,2.59-14.8,4.54c-0.33,0.13-0.66,0.25-0.98,0.39c-4.79,2.03-9.34,4.5-13.63,7.35
		c-0.29,0.2-0.59,0.38-0.88,0.58c-4.25,2.89-8.21,6.16-11.86,9.75c-0.25,0.25-0.5,0.49-0.75,0.75c-3.66,3.7-6.99,7.73-9.92,12.05
		c-0.2,0.29-0.38,0.59-0.58,0.89c-2.84,4.29-5.31,8.85-7.33,13.64c-0.14,0.32-0.26,0.66-0.39,0.98c-1.93,4.73-3.46,9.66-4.51,14.76
		c-0.07,0.34-0.12,0.7-0.19,1.04c-0.97,5.03-1.5,10.22-1.53,15.53c0,0.17-0.01,0.35-0.01,0.52c0,0.18,0.01,0.36,0.01,0.54
		c0.03,5.33,0.57,10.54,1.55,15.6c0.07,0.35,0.12,0.7,0.2,1.04c1.06,5.1,2.59,10.03,4.52,14.75c0.13,0.33,0.25,0.66,0.39,0.98
		c2.05,4.83,4.55,9.42,7.42,13.75c0.2,0.29,0.39,0.59,0.59,0.88c2.89,4.23,6.15,8.18,9.73,11.81c0.25,0.25,0.5,0.5,0.75,0.75
		c3.66,3.62,7.65,6.91,11.92,9.82c0.29,0.2,0.59,0.39,0.88,0.58c4.32,2.86,8.91,5.35,13.73,7.39c0.32,0.14,0.66,0.26,0.99,0.39
		c4.72,1.93,9.65,3.45,14.74,4.51c0.34,0.07,0.7,0.12,1.04,0.19c5.03,0.97,10.21,1.5,15.51,1.53c0.18,0,0.36,0.01,0.54,0.01
		c0.18,0,0.35-0.01,0.52-0.01c5.22-0.03,10.33-0.55,15.3-1.49c0.35-0.07,0.7-0.12,1.04-0.19c5.18-1.05,10.18-2.6,14.98-4.55
		c0.33-0.13,0.66-0.25,0.99-0.39c4.78-2.02,9.33-4.49,13.62-7.32c0.29-0.19,0.6-0.38,0.89-0.58c4.28-2.91,8.28-6.2,11.95-9.82
		c0.25-0.25,0.5-0.49,0.75-0.75c3.62-3.66,6.91-7.65,9.82-11.91c0.2-0.29,0.39-0.59,0.59-0.88c2.86-4.3,5.34-8.87,7.38-13.67
		c0.14-0.32,0.26-0.66,0.39-0.98c1.96-4.77,3.5-9.74,4.56-14.9c0.07-0.34,0.12-0.7,0.19-1.04c0.97-5.02,1.5-10.2,1.53-15.49
		c0-0.18,0.01-0.36,0.01-0.54C169.39,84.7,169.38,84.53,169.37,84.35z M166.11,68.17l-3.95,0.81c-0.97-4.75-2.39-9.33-4.18-13.73
		l3.71-1.56C163.58,58.33,165.08,63.16,166.11,68.17z M110.52,145.74c6.88-2.92,13.15-6.98,18.61-11.93l0.2,0.03l0.02-0.24
		c0.58-0.53,1.16-1.06,1.72-1.62l4.77,4.76c-6.5,6.39-14.19,11.58-22.71,15.19L110.52,145.74z M112.15,152.32
		c-8.28,3.36-17.3,5.24-26.75,5.31v-6.71c8.53-0.07,16.67-1.77,24.15-4.79L112.15,152.32z M137.52,31.38
		c-3.27-3.22-6.83-6.15-10.65-8.74l1.56-2.25c3.95,2.68,7.64,5.72,11.03,9.06L137.52,31.38z M140.22,30.2
		c6.91,7,12.51,15.28,16.4,24.47l-2.53,1.06c-3.75-8.86-9.15-16.86-15.82-23.61L140.22,30.2z M125.98,22.07
		c-3.71-2.44-7.65-4.57-11.78-6.33l1.04-2.54c4.32,1.84,8.43,4.06,12.3,6.62L125.98,22.07z M124.65,23.99
		c0.3,0.19,0.6,0.38,0.89,0.57c3.7,2.5,7.15,5.34,10.32,8.47l-4.79,4.74c-5.82-5.72-12.69-10.38-20.3-13.65l2.54-6.22
		C117.29,19.59,121.08,21.64,124.65,23.99z M136.62,33.77c6.46,6.54,11.69,14.28,15.32,22.87l-6.23,2.62
		c-3.29-7.79-8.03-14.82-13.87-20.75L136.62,33.77z M152.33,57.63c3.35,8.27,5.23,17.28,5.3,26.73h-6.77
		c-0.07-8.51-1.75-16.64-4.76-24.1L152.33,57.63z M157.63,85.41c-0.07,9.51-1.98,18.59-5.38,26.91l-6.24-2.61
		c3.06-7.52,4.78-15.71,4.85-24.3H157.63z M151.86,113.3c-3.63,8.52-8.84,16.21-15.26,22.7l-4.77-4.76
		c5.8-5.88,10.51-12.84,13.79-20.55L151.86,113.3z M62.8,90.4L62.8,90.4L62.8,90.4L62.8,90.4z M61.31,44.53l5.64,4.52l-6.88,3.92
		l-1.1-7.16C59.86,45.65,60.69,45.23,61.31,44.53z M82.71,43.3l-4.4,14.38l-3.79-3.04l7.54-11.66
		C82.27,43.11,82.48,43.21,82.71,43.3z M65.36,69.21c-0.06-0.05-0.12-0.08-0.18-0.12l2.49-3.86l8.3,0.08l-1.02,3.34l-8.26,2.39
		C66.42,70.35,65.99,69.71,65.36,69.21z M67.91,64.86l6.41-9.91l3.87,3.1l-2.11,6.89L67.91,64.86z M76.37,65.31l6.99,0.07
		c0.02,0.27,0.07,0.54,0.14,0.8l-8.11,2.34L76.37,65.31z M83.34,65.01l-6.86-0.07l2.03-6.64l5.56,4.46
		C83.59,63.44,83.35,64.22,83.34,65.01z M81.55,42.65c0.06,0.05,0.12,0.08,0.18,0.12L74.22,54.4l-6.61-5.3l13.06-7.43
		C80.91,42.03,81.19,42.37,81.55,42.65z M74.02,54.71l-6.56,10.15l-5.58-0.05l-1.75-11.44l7.14-4.06L74.02,54.71z M61.5,64.8
		l-17.71-0.17c-0.05-0.58-0.21-1.16-0.49-1.69l16.48-9.38L61.5,64.8z M43.81,65l17.75,0.17l0.48,3.15c-0.95,0.15-1.84,0.6-2.47,1.39
		c-0.29,0.36-0.48,0.75-0.62,1.16L43.7,65.89C43.77,65.6,43.8,65.3,43.81,65z M61.94,65.17l5.28,0.05l-2.36,3.65
		c-0.76-0.46-1.61-0.66-2.45-0.61L61.94,65.17z M66.12,74.97c0.83-1.03,1.03-2.36,0.68-3.57l8.01-2.31l-1.55,5.08
		c-1.15-0.25-2.3-0.19-3.33,0.51c-0.35,0.26-0.66,0.6-0.94,1.02c-1.73,2.64-1.61,5.54,0.36,8.15c0.21,0.28,0.44,0.56,0.69,0.84
		l-1.88,6.13c-1.34-1.31-2.88-1.6-4.15-1.26l-0.75-13.13C64.36,76.35,65.4,75.86,66.12,74.97z M76.18,104.11
		c0.06-0.16,0.14-0.28,0.28-0.38c0.27-0.2,0.7-0.29,1.28-0.26c0.53,0.02,1.14,0.47,1.72,1.26c0.49,0.67,0.85,1.42,1.05,1.82
		l0.04,0.09c0.2,0.39,0.84,1.37,1.91,2.89c-0.26-0.04-0.53-0.09-0.8-0.14c-0.94-0.16-1.96-0.47-3.2-0.95
		C78.12,107.51,77.35,106.05,76.18,104.11C76.18,104.11,76.18,104.11,76.18,104.11z M64.1,91.07c0.83-0.36,2.05-0.43,3.35,1.02
		c0.09,0.1,0.15,0.19,0.23,0.29l-1.95,6.37c-0.33-0.73-0.73-1.61-1.11-2.5c-0.09-0.21-0.17-0.41-0.26-0.61L64.1,91.07z M63.93,94.58
		c-0.19-0.47-0.35-0.9-0.48-1.26c-0.16-0.46-0.27-0.8-0.34-1.06c-0.03-0.12-0.05-0.23-0.07-0.34c0.04-0.08,0.2-0.32,0.48-0.52
		c0.07-0.05,0.14-0.09,0.22-0.14L63.93,94.58z M68.55,104.42c0.43,0.46,0.84,0.91,1.21,1.32c-0.61-0.1-1.19-0.18-1.73-0.25
		C68.26,105.15,68.44,104.79,68.55,104.42z M67.11,99.96c-0.09-0.07-0.19-0.12-0.29-0.19l2.47-4.1c0.09,0.33,0.18,0.66,0.27,1
		c0.21,0.79,0.42,1.61,0.75,2.41c0.37,0.85,0.9,1.68,1.38,2.41c0.33,0.5,0.64,0.98,0.85,1.4c0.77,1.52,1.44,2.71,1.45,2.72
		c0.01,0.01,0.11,0.15,0.26,0.37c0.17,0.24,0.42,0.58,0.69,0.95c-0.49-0.2-0.9-0.35-1.26-0.44c-0.54-0.13-1.09-0.25-1.63-0.36
		c-0.59-0.67-1.99-2.23-3.45-3.77C68.4,101.47,67.91,100.6,67.11,99.96z M67.97,92.75c0.57,0.8,0.92,1.61,1.18,2.44l-2.64,4.38
		c-0.16-0.09-0.33-0.16-0.5-0.23c-0.01-0.02-0.02-0.05-0.03-0.07L67.97,92.75z M61.13,96.68c0.72,0.98,1.43,1.8,2.12,2.5
		c-0.27,0.08-0.52,0.19-0.77,0.33l-4.45-6.84c0.6,0.53,1.11,1.08,1.42,1.5c0.07,0.09,0.11,0.17,0.15,0.22
		C59.86,94.82,60.4,95.68,61.13,96.68z M62.18,99.71c-0.31,0.21-0.61,0.45-0.85,0.76c-0.27,0.33-0.45,0.7-0.59,1.09
		c-0.19-0.13-0.38-0.24-0.56-0.33c-1.34-0.68-2.57-1.5-3.01-1.79c-0.32-0.33-1.48-1.51-2.82-2.73c-0.37-0.33-0.83-0.73-1.3-1.12
		l-0.23-0.4c-0.05-0.06-0.08-0.15-0.13-0.22c-0.96-1.42-0.75-2.68,0.62-3.83l0.09-0.06c0.88-0.67,2.2-0.11,3.16,0.48
		c0.19,0.11,0.37,0.24,0.56,0.38L62.18,99.71z M82.92,93.8c2.36,0.62,9.29,4.97,10.95,6.68c0.34,0.34,0.63,0.68,0.89,1.03
		c0.88,1.16,0.93,2.01,0.85,2.19c-0.19,0.44-2.61,3.41-4.76,4.98c-0.15,0.11-0.29,0.21-0.43,0.3c-1.32,0.89-3.19,1.15-6.04,0.83
		c-0.83-1.17-2.34-3.34-2.55-3.78l-0.07-0.13c-0.21-0.43-0.6-1.24-1.17-2.01c-0.89-1.19-1.82-1.81-2.84-1.87
		c-0.91-0.04-1.64,0.13-2.18,0.53c-0.64,0.48-0.81,1.11-0.86,1.44c-0.25-0.45-0.56-1.05-0.9-1.71c-0.27-0.53-0.63-1.08-0.98-1.62
		c-0.45-0.7-0.92-1.42-1.21-2.1c-0.27-0.63-0.46-1.35-0.65-2.1c-0.19-0.75-0.4-1.56-0.72-2.38l3.6-5.97
		C76.92,90.52,80.85,93.21,82.92,93.8z M70.43,85.1c0.7,0.72,1.83,1.71,3.14,2.76l-3.48,5.77c-0.27-0.61-0.6-1.23-1.05-1.84
		c-0.16-0.21-0.33-0.43-0.52-0.64c-0.01-0.02-0.03-0.03-0.04-0.04l1.87-6.1C70.37,85.03,70.4,85.07,70.43,85.1z M129.42,130.34
		c-0.62,0.61-1.26,1.2-1.91,1.79c-8.19-0.96-28.27-2.11-34.12-1.77c-4.44,0.26-6.97-1.34-8.77-2.91c4.64,1.84,7.97,1.39,8,1.38
		l0.25-0.04l-0.16-0.87l-0.2-0.06l-0.06,0.01c-0.23,0.03-1.48,0.15-3.43-0.17c-2.3-0.38-4.62-1.22-6.84-2.47
		c-2.32-2.03-4.51-3.54-6.5-4.5c-0.67-0.32-1.87-0.85-3.26-1.46c-1.4-0.62-3.03-1.34-4.64-2.07c-3.69-1.67-6.4-3.09-6.9-3.62
		c-1.52-1.51-8.44-9.79-9.56-11.27c-0.51-0.66-1.37-1.53-2.21-2.36c-0.89-0.89-1.81-1.81-2.31-2.49c-0.21-0.28-0.3-0.48-0.33-0.55
		c-0.08-0.22,0.14-0.92,0.83-1.42c0.63-0.46,1.42-0.64,2.23-0.51c0.54,0.06,2.24,1.29,3.87,2.8c1.51,1.37,2.77,2.68,2.82,2.73
		l0.09,0.07c0.38,0.26,1.72,1.17,3.24,1.94c0.27,0.14,0.6,0.36,0.93,0.61c0.06,1.15,0.59,2.29,1.59,3.09
		c1.33,1.07,3.09,1.22,4.48,0.54c1.71,0.19,4.26,0.54,6.83,1.16c0.52,0.12,1.32,0.48,2.25,0.89c1.64,0.73,3.69,1.64,5.81,2.02
		c3.68,0.64,7.19,1.07,9.78-0.63c0.17-0.11,0.33-0.22,0.49-0.34c2.42-1.8,4.8-4.71,5.2-5.52c0.4-0.93,0.05-2.21-1.02-3.68
		c-0.3-0.4-0.64-0.8-1.03-1.19c-1.85-1.84-8.66-6.24-11.63-7.08c-2.36-0.61-9.63-6-11.8-8.29c-0.37-0.4-0.68-0.76-0.95-1.12
		c-1.62-2.24-1.71-4.24-0.29-6.47c0.19-0.28,0.39-0.5,0.61-0.67c0.22-0.18,0.47-0.29,0.75-0.35c-0.22,0.07-0.44,0.18-0.64,0.33
		c-0.28,0.2-0.52,0.48-0.72,0.82l-0.12,0.21l0.83,0.53l0.13-0.22c0.14-0.23,0.29-0.41,0.48-0.54c0.75-0.57,2.1-0.29,4.02,0.84
		l0.06,0.03c1.08,0.62,2.19,1.26,2.68,1.92c0.25,0.35,0.32,0.64,0.24,1c-0.15,0.72-1.28,1.96-3,3.33l-0.2,0.16l0.08,0.18l0.46,0.63
		l0.26-0.19l0.04-0.03c1.33-1.03,2.98-2.53,3.31-3.84c0.15-0.62,0-1.25-0.42-1.81c-0.1-0.13-0.21-0.26-0.33-0.39
		c2.44,1.28,6.59,2.95,9.28,3.51c0.86,0.16,3.2,1.51,5.96,3.44c1.92,1.33,3.63,2.62,4.33,3.15l0.15,0.12l0.19,0.03
		c0.02,0,1.65,0.24,4.69,1.2c1.5,0.47,3.98,1.81,6.61,3.22c2.57,1.39,5.23,2.83,7.55,3.78c5.33,2.19,15.78,9.98,16.95,10.86
		c3.62,2.71,7.46,3.86,8.13,4.05c-3.1,6.63-7.3,12.65-12.38,17.8C129.93,129.85,129.68,130.1,129.42,130.34z M79.16,77.05
		c-0.4-0.2-0.89-0.49-1.4-0.8c-1.21-0.73-2.67-1.6-4.13-2l1.62-5.29l8.36-2.41c0.26,0.69,0.7,1.33,1.32,1.83
		c0.09,0.07,0.19,0.12,0.29,0.19l-5.35,8.86C79.62,77.29,79.37,77.17,79.16,77.05z M84.3,62.48l-5.68-4.55l4.44-14.49
		c0.44,0.13,0.9,0.17,1.35,0.15l2.32,17.61C85.81,61.32,84.95,61.75,84.3,62.48z M80.46,41.35l-13.17,7.5l-5.75-4.61
		c0.57-0.78,0.8-1.72,0.72-2.64l17.75-1.54C80.1,40.5,80.24,40.94,80.46,41.35z M55.81,45.01c0.84,0.62,1.83,0.89,2.79,0.83
		l1.12,7.31l-16.63,9.47c-0.21-0.31-0.45-0.59-0.74-0.85L55.81,45.01z M42.97,67.4c0.29-0.36,0.48-0.75,0.62-1.16l15.25,4.98
		c-0.36,1.5,0.16,3.18,1.49,4.25c0.76,0.61,1.66,0.91,2.56,0.94l0.75,13.26c-0.34,0.13-0.66,0.29-0.94,0.49l-0.06,0.04
		c-0.56,0.43-0.9,0.87-1.03,1.38c-0.08,0.55,0.1,1.1,0.36,1.86l0.11,0.34c0.39,1.08,0.96,2.44,1.5,3.66
		c-0.52-0.59-0.96-1.16-1.29-1.61c-0.69-0.93-1.2-1.75-1.44-2.15c-0.06-0.11-0.15-0.23-0.24-0.36c-0.6-0.81-1.83-2.08-3.32-3.01
		c-0.4-0.25-0.78-0.44-1.16-0.59L42.12,68.16C42.43,67.95,42.72,67.71,42.97,67.4z M137.49,138.39l1.94,1.93
		c-6.96,6.85-15.2,12.42-24.33,16.28l-1.06-2.53C122.84,150.36,130.78,144.99,137.49,138.39z M138.24,137.65
		c6.63-6.71,12.02-14.65,15.76-23.45l2.53,1.06c-3.89,9.13-9.47,17.37-16.35,24.33L138.24,137.65z M154.4,113.22
		c3.52-8.59,5.49-17.98,5.56-27.8h2.74c-0.07,10.2-2.12,19.94-5.77,28.86L154.4,113.22z M159.96,84.35
		c-0.07-9.76-2.01-19.08-5.48-27.63l2.53-1.06c3.61,8.87,5.63,18.55,5.7,28.69H159.96z M161.3,52.7l-3.71,1.56
		c-1.9-4.5-4.22-8.78-6.89-12.81l3.37-2.21C156.87,43.48,159.31,47.98,161.3,52.7z M153.49,38.36l-3.37,2.21
		c-2.71-3.98-5.78-7.7-9.15-11.11l2.86-2.83C147.39,30.23,150.63,34.16,153.49,38.36z M143.08,25.88l-2.86,2.84
		c-3.44-3.39-7.17-6.47-11.18-9.18l2.3-3.31C135.55,19.08,139.47,22.32,143.08,25.88z M117.17,8.49c4.66,1.98,9.1,4.39,13.28,7.15
		l-2.3,3.31c-3.94-2.6-8.12-4.86-12.51-6.73L117.17,8.49z M101.51,3.62c5.08,1.04,9.98,2.56,14.67,4.48l-1.53,3.73
		c-4.46-1.82-9.11-3.27-13.92-4.25L101.51,3.62z M85.39,1.96c5.15,0.03,10.19,0.54,15.08,1.48l-0.77,3.95
		c-4.64-0.89-9.42-1.37-14.3-1.4V1.96z M85.39,7.05c10.2,0.07,19.94,2.11,28.87,5.77l-1.04,2.54c-8.6-3.52-17.99-5.49-27.83-5.56
		V7.05z M85.39,12.12c9.53,0.07,18.62,1.98,26.95,5.39l-2.54,6.22c-7.54-3.09-15.78-4.83-24.41-4.9V12.12z M84.33,1.96v4.03
		c-4.91,0.03-9.72,0.52-14.39,1.42L69.1,3.47C74.04,2.51,79.13,1.99,84.33,1.96z M31.47,32.14c-6.64,6.73-12.04,14.69-15.78,23.53
		l-2.53-1.06c3.88-9.17,9.48-17.43,16.38-24.41L31.47,32.14z M30.29,29.45c6.94-6.84,15.16-12.4,24.26-16.26l1.06,2.53
		c-8.77,3.73-16.69,9.08-23.39,15.68L30.29,29.45z M15.3,56.65c-3.49,8.57-5.44,17.91-5.51,27.71H7.04
		c0.07-10.17,2.1-19.87,5.72-28.76L15.3,56.65z M9.78,85.41c0.07,9.8,2.03,19.16,5.53,27.73l-2.53,1.06
		c-3.64-8.9-5.67-18.62-5.74-28.8H9.78z M15.71,114.13c3.74,8.81,9.12,16.75,15.74,23.46l-1.95,1.93
		c-6.87-6.96-12.45-15.2-16.33-24.33L15.71,114.13z M32.2,138.34c6.7,6.6,14.63,11.97,23.42,15.7l-1.04,2.54
		c-9.13-3.87-17.37-9.44-24.33-16.31L32.2,138.34z M33.85,136.7l4.79-4.74c5.85,5.75,12.75,10.43,20.4,13.7l-2.54,6.22
		C48.01,148.27,40.34,143.09,33.85,136.7z M33.1,135.96c-6.42-6.5-11.63-14.2-15.25-22.73l6.23-2.62c3.28,7.73,8,14.71,13.8,20.61
		L33.1,135.96z M17.46,112.24c-3.38-8.3-5.28-17.35-5.35-26.83h6.77c0.07,8.55,1.77,16.72,4.81,24.21L17.46,112.24z M18.89,84.35
		h-6.77c0.07-9.47,1.96-18.52,5.33-26.81l6.24,2.61C20.66,67.64,18.95,75.8,18.89,84.35z M17.84,56.56
		c3.62-8.55,8.84-16.26,15.27-22.77l4.75,4.78c-5.8,5.9-10.51,12.87-13.78,20.6L17.84,56.56z M33.86,33.04
		c6.49-6.38,14.15-11.57,22.65-15.18l2.61,6.19c-7.69,3.28-14.64,7.98-20.51,13.77L33.86,33.04z M57.49,17.47
		c8.3-3.38,17.35-5.28,26.84-5.35v6.71c-8.56,0.07-16.74,1.78-24.23,4.83L57.49,17.47z M56.59,15.32l-1.06-2.53
		c8.91-3.64,18.62-5.68,28.81-5.75v2.74C74.53,9.86,65.17,11.82,56.59,15.32z M68.06,3.66l0.84,3.94
		c-4.77,0.98-9.38,2.41-13.79,4.22L53.55,8.1C58.2,6.2,63.04,4.7,68.06,3.66z M52.57,8.5l1.56,3.71c-4.43,1.88-8.65,4.17-12.63,6.8
		l-2.28-3.32C43.42,12.91,47.88,10.49,52.57,8.5z M38.34,16.27l2.28,3.32c-3.97,2.7-7.67,5.75-11.08,9.11l-2.84-2.86
		C30.28,22.31,34.17,19.11,38.34,16.27z M25.95,26.59l2.84,2.86c-3.38,3.42-6.46,7.15-9.17,11.14l-3.38-2.2
		C19.11,34.15,22.37,30.21,25.95,26.59z M15.66,39.27l3.37,2.2c-2.65,4.01-4.96,8.26-6.85,12.73l-3.72-1.55
		C10.45,47.95,12.87,43.48,15.66,39.27z M8.07,53.63l3.72,1.55c-1.8,4.41-3.22,9-4.2,13.76l-3.94-0.83
		C4.68,63.1,6.18,58.27,8.07,53.63z M3.46,69.15l3.94,0.83c-0.89,4.66-1.38,9.46-1.42,14.37H1.96C1.99,79.16,2.51,74.08,3.46,69.15z
		 M1.96,85.41h4.03c0.03,4.91,0.52,9.71,1.42,14.37l-3.94,0.88C2.51,95.72,1.99,90.62,1.96,85.41z M3.66,101.7l3.93-0.88
		c0.98,4.77,2.41,9.38,4.22,13.8l-3.71,1.56C6.2,111.55,4.7,106.71,3.66,101.7z M8.49,117.16l3.71-1.56
		c1.88,4.42,4.16,8.63,6.78,12.59l-3.25,2.39C12.92,126.36,10.49,121.88,8.49,117.16z M16.31,131.47l3.26-2.39
		c2.72,4,5.8,7.75,9.19,11.19l-2.86,2.83C22.36,139.53,19.15,135.64,16.31,131.47z M26.64,143.85l2.86-2.84
		c3.42,3.38,7.15,6.45,11.14,9.16l-2.3,3.31C34.15,150.63,30.24,147.4,26.64,143.85z M52.65,161.29c-4.72-2-9.2-4.43-13.43-7.22
		l2.3-3.31c3.98,2.63,8.21,4.92,12.65,6.8L52.65,161.29z M68.12,166.1c-5.01-1.03-9.84-2.53-14.48-4.42l1.52-3.73
		c4.42,1.8,9.03,3.23,13.8,4.21L68.12,166.1z M84.33,167.79c-5.18-0.03-10.25-0.55-15.17-1.5l0.85-3.94
		c4.65,0.89,9.43,1.38,14.32,1.41V167.79z M84.33,162.7c-10.17-0.07-19.87-2.1-28.77-5.73l1.04-2.54c8.57,3.5,17.93,5.46,27.73,5.53
		V162.7z M84.33,157.63c-9.49-0.07-18.55-1.97-26.85-5.35l2.54-6.22c7.52,3.07,15.72,4.79,24.31,4.86V157.63z M84.87,148.61
		c-0.18,0-0.36-0.01-0.54-0.01c-8.28-0.07-16.18-1.73-23.43-4.69c-0.33-0.13-0.66-0.26-0.98-0.4c-7.36-3.15-14-7.65-19.63-13.18
		c-0.25-0.25-0.5-0.5-0.75-0.75c-5.6-5.69-10.15-12.42-13.31-19.87c-0.14-0.32-0.26-0.66-0.39-0.98
		c-2.92-7.21-4.56-15.07-4.63-23.31c0-0.18-0.01-0.36-0.01-0.54c0-0.17,0.01-0.35,0.01-0.52c0.07-8.23,1.7-16.09,4.62-23.31
		c0.13-0.33,0.25-0.66,0.39-0.98c3.15-7.44,7.69-14.16,13.28-19.85c0.25-0.25,0.5-0.5,0.75-0.75c5.66-5.58,12.36-10.11,19.77-13.27
		c0.32-0.14,0.66-0.26,0.98-0.39c7.22-2.93,15.09-4.58,23.33-4.65c0.18,0,0.36-0.01,0.54-0.01c0.18,0,0.35,0.01,0.52,0.01
		c8.32,0.07,16.25,1.74,23.52,4.72c0.33,0.13,0.66,0.26,0.98,0.4c7.32,3.14,13.93,7.62,19.53,13.13c0.25,0.25,0.5,0.49,0.75,0.75
		c5.64,5.72,10.21,12.5,13.38,20.02c0.14,0.32,0.26,0.66,0.39,0.99c2.89,7.18,4.51,15.01,4.58,23.2c0,0.17,0.01,0.35,0.01,0.52
		c0,0.18-0.01,0.36-0.01,0.54c-0.07,8.27-1.72,16.16-4.67,23.4c-0.13,0.33-0.26,0.66-0.4,0.98c-0.09,0.22-0.2,0.44-0.3,0.66
		l-0.22-0.05c-0.01,0-0.99-0.26-2.43-0.86c-1.34-0.56-3.33-1.52-5.26-2.96c-2.73-2.05-12.06-8.89-17.28-11.05
		c-2.21-0.9-4.79-2.3-7.3-3.66c-2.71-1.46-5.27-2.85-6.97-3.39c-2.49-0.79-4.1-1.11-4.73-1.22c-0.68-0.52-2.36-1.77-4.23-3.07
		c-2.37-1.63-5-3.34-6.5-3.67c-2.16-0.44-5.64-1.78-8.02-2.93l5.33-8.82c1.74,0.98,3.94,0.64,5.18-0.9
		c1.39-1.73,1.05-4.31-0.76-5.76c-0.85-0.68-1.87-0.98-2.86-0.94l-2.32-17.61c0.98-0.13,1.9-0.6,2.55-1.41
		c1.39-1.73,1.05-4.31-0.76-5.76c-1.81-1.45-4.4-1.22-5.79,0.5c-0.65,0.81-0.91,1.81-0.82,2.8l-17.75,1.54
		c-0.17-0.98-0.69-1.91-1.53-2.59c-1.81-1.45-4.4-1.22-5.79,0.5c-1.35,1.68-1.05,4.16,0.62,5.63L42.05,61.53
		c-1.8-1.32-4.28-1.07-5.63,0.61c-1.39,1.73-1.05,4.31,0.76,5.76c1.38,1.11,3.22,1.23,4.63,0.46l13.74,21.15
		c-1.16-0.35-2.2-0.23-3.05,0.38l-0.09,0.07c-1.71,1.38-1.86,2.92-1.67,3.97c-0.38-0.2-0.72-0.33-1.02-0.39
		c-1.19-0.2-2.35,0.07-3.29,0.76c-1.1,0.83-1.6,1.94-1.33,2.99c0.11,0.36,0.3,0.67,0.56,1.02c0.61,0.81,1.59,1.8,2.55,2.75
		c0.81,0.81,1.58,1.57,1.98,2.11l0,0c1.25,1.64,8.1,9.82,9.7,11.42c0.99,0.96,4.04,2.4,7.34,3.92c1.57,0.71,3.17,1.42,4.55,2.03
		c1.44,0.63,2.67,1.18,3.32,1.49c2.58,1.23,5.14,3.33,6.83,4.87c0.17,0.16,0.35,0.33,0.55,0.52c1.87,1.79,5,4.77,11.05,4.39
		c5.35-0.34,23.74,0.7,32.5,1.61c-4.89,4.17-10.41,7.62-16.4,10.16c-0.32,0.14-0.66,0.26-0.99,0.39
		c-7.19,2.91-15.03,4.54-23.24,4.61C85.22,148.6,85.05,148.61,84.87,148.61z M85.39,167.79v-4.03c4.91-0.03,9.71-0.52,14.37-1.41
		l0.67,3.97C95.55,167.25,90.53,167.76,85.39,167.79z M85.39,162.7v-2.74c9.77-0.07,19.1-2.02,27.66-5.49l1.06,2.53
		C105.23,160.61,95.54,162.63,85.39,162.7z M101.47,166.13l-0.67-3.98c4.75-0.98,9.33-2.4,13.73-4.19l1.56,3.71
		C111.41,163.59,106.53,165.1,101.47,166.13z M117.08,161.29l-1.56-3.71c4.43-1.87,8.64-4.15,12.62-6.77l2.28,3.32
		C126.21,156.9,121.76,159.31,117.08,161.29z M131.3,153.55l-2.28-3.32c4-2.71,7.73-5.78,11.16-9.16l2.85,2.84
		C139.42,147.47,135.5,150.7,131.3,153.55z M143.78,143.17l-2.85-2.84c3.38-3.42,6.45-7.14,9.17-11.12l3.32,2.28
		C150.57,135.67,147.34,139.58,143.78,143.17z M154.01,130.6l-3.32-2.28c2.64-3.99,4.94-8.22,6.83-12.66l3.72,1.55
		C159.23,121.92,156.8,126.39,154.01,130.6z M161.62,116.23l-3.72-1.55c1.82-4.45,3.24-9.1,4.23-13.9l3.96,0.85
		C165.06,106.67,163.54,111.56,161.62,116.23z M166.29,100.58l-3.95-0.84c0.89-4.65,1.39-9.43,1.42-14.32h4.03
		C167.75,90.59,167.24,95.66,166.29,100.58z M163.76,84.35c-0.03-4.9-0.52-9.68-1.41-14.33l3.95-0.81
		c0.94,4.91,1.46,9.97,1.49,15.14H163.76z"/>
	<path class="st0" d="M90.25,84.35c-0.01,0.03-1.61,3.15-3.77,4.74c-0.44,0.33-0.88,0.57-1.3,0.71l-0.24,0.08l0.35,0.92l0.23-0.08
		c0.51-0.18,1.01-0.45,1.55-0.84c2.08-1.54,3.6-4.21,4.04-5.05l0.12-0.24l-0.86-0.48L90.25,84.35z"/>
	<path class="st0" d="M85.41,89.37c0.13-0.07,0.25-0.16,0.37-0.25c1.89-1.4,3.69-4.33,4.17-5.17l0.16-0.27l-0.85-0.52l-0.19,0.37
		c-0.38,0.63-2.16,3.54-3.88,4.8c-0.1,0.07-0.19,0.14-0.29,0.2l-0.22,0.13l0.51,0.84L85.41,89.37z"/>
</g>
</svg>
