<?xml version="1.0" encoding="utf-8"?>
<!-- Generator: Adobe Illustrator 23.0.1, SVG Export Plug-In . SVG Version: 6.00 Build 0)  -->
<svg version="1.1" id="Layer_1" xmlns="http://www.w3.org/2000/svg" xmlns:xlink="http://www.w3.org/1999/xlink" x="0px" y="0px"
	 viewBox="0 0 170 170" style="enable-background:new 0 0 170 170;" xml:space="preserve">
<style type="text/css">
	.st0{fill:#948773;}
	.st1{fill:#928573;}
</style>
<g>
	<path class="st0" d="M124.34,71.95c-1.94,0-3.51,1.57-3.51,3.51h-0.4h-18.2c-4.52,0.9-8.22,4.15-9.73,8.43h-0.08h-0.32h-0.72
		c-0.47,0-0.86,0.43-0.86,0.96v1.06v0.99v19.07c-0.24-0.2-0.5-0.39-0.76-0.57c-0.18-0.12-0.37-0.24-0.57-0.34
		c-0.05-0.03-0.1-0.05-0.15-0.08V75.4h0.29c0.25,1.7,1.7,3,3.47,3c1.94,0,3.51-1.57,3.51-3.51c0-1.94-1.57-3.51-3.51-3.51
		c-1.94,0-3.51,1.57-3.51,3.51h-0.25v-4.34h16.3l0,0h0.64c0,0.04-0.01,0.08-0.01,0.12c0,1.16,0.94,2.1,2.1,2.1
		c1.16,0,2.1-0.94,2.1-2.1c0-1.16-0.94-2.1-2.1-2.1c-0.94,0-1.73,0.61-2,1.46H89.03c0.1-5.49,3.77-10.13,8.78-11.69
		c0.42,2.16,2.32,3.79,4.61,3.79c2.59,0,4.7-2.1,4.7-4.7c0-2.59-2.1-4.7-4.7-4.7s-4.7,2.1-4.7,4.7c0,0.14,0.01,0.28,0.02,0.42
		c-5.25,1.6-9.1,6.43-9.2,12.17h-0.2h-0.37h-0.83c-0.55,0-0.99,0.43-0.99,0.96v1.06v0.99v31.07c-0.26-0.03-0.53-0.05-0.8-0.05V59.11
		c2.47-0.14,4.44-2.18,4.44-4.69c0-2.59-2.1-4.7-4.7-4.7c-2.59,0-4.7,2.1-4.7,4.7c0,2.51,1.96,4.55,4.44,4.69v44.97
		c-0.26,0.01-0.51,0.04-0.76,0.08V73.05v-0.99V71c0-0.53-0.44-0.96-0.99-0.96h-0.83h-0.37h-0.04c-0.1-5.74-3.95-10.58-9.2-12.17
		c0.01-0.14,0.02-0.28,0.02-0.42c0-2.59-2.1-4.7-4.7-4.7c-2.59,0-4.7,2.1-4.7,4.7c0,2.59,2.1,4.7,4.7,4.7
		c2.28,0,4.19-1.63,4.61-3.79c5.01,1.56,8.68,6.19,8.78,11.69H64.12c-0.13-1.04-1.01-1.84-2.08-1.84c-1.16,0-2.1,0.94-2.1,2.1
		c0,1.16,0.94,2.1,2.1,2.1c1.07,0,1.96-0.81,2.08-1.84h0.76l0,0h16.46v3.91h-0.55c-0.21-1.73-1.69-3.08-3.48-3.08
		c-1.94,0-3.51,1.57-3.51,3.51c0,1.94,1.57,3.51,3.51,3.51c0.12,0,0.23-0.01,0.34-0.02c0.51-0.05,0.98-0.21,1.4-0.45
		c1.03-0.59,1.73-1.7,1.76-2.97h0.53v30.11c-0.62,0.34-1.18,0.76-1.69,1.24V85.97v-0.99v-1.06c0-0.53-0.36-0.96-0.79-0.96H78.2h-0.3
		h-0.42c-1.69-3.81-5.17-6.67-9.36-7.5H50.03c0-1.94-1.57-3.51-3.51-3.51c-1.94,0-3.51,1.57-3.51,3.51c0,1.94,1.57,3.51,3.51,3.51
		c1.76,0,3.21-1.3,3.47-2.99h0.78l0,0h17.35c3.93,0.8,7.19,3.44,8.84,6.98H69.4c-0.15-2.46-2.19-4.41-4.69-4.41
		c-2.59,0-4.7,2.1-4.7,4.7c0,2.59,2.1,4.7,4.7,4.7c2.52,0,4.57-1.98,4.69-4.46h7.78c0.59,1.45,0.92,3.04,0.92,4.7v20.18
		c-0.62,1.15-0.97,2.46-0.97,3.86c0,4.5,3.64,8.14,8.14,8.14c1.42,0,2.75-0.36,3.91-1c0.19-0.11,0.38-0.22,0.56-0.34
		c2.21-1.46,3.67-3.96,3.67-6.8c0-1.54-0.43-2.98-1.18-4.21V88.18c0-1.31,0.2-2.58,0.58-3.77h8.97c0.52,2.03,2.35,3.53,4.54,3.53
		c1.54,0,2.91-0.74,3.76-1.89v0.01c0.02,0,0.04,0,0.06,0c0.13,0,0.18-0.28,0.3-0.27l0.03-0.37c0.1-0.19,0.19-0.39,0.27-0.6
		c0.06-0.18,0.12-0.36,0.16-0.55c0.07-0.33,0.11-0.67,0.11-1.03c0-2.59-2.1-4.7-4.7-4.7c-2.59,0-4.7,2.1-4.7,4.7c0,0,0,0.01,0,0.01
		c0,0.19,0.01,0.38,0.04,0.57c0,0.02,0.01,0.05,0.01,0.07H93c1.48-4,4.96-7.04,9.23-7.91h17.35l0,0l0.84,0h0.22h0.23
		c0.25,1.69,1.71,2.99,3.47,2.99c1.94,0,3.51-1.57,3.51-3.51C127.85,73.52,126.27,71.95,124.34,71.95z M79.24,106.75
		c-0.23,0.26-0.45,0.53-0.65,0.82V88.18c0-1.66-0.32-3.24-0.89-4.7h0.5v-0.01h0.67c0.21,0,0.38,0.2,0.38,0.46v1.84v0.22v0.84l0,0
		V106.75z M86.67,73.9C86.67,73.9,86.67,73.9,86.67,73.9l0-0.84v-0.22V71c0-0.25,0.21-0.46,0.47-0.46h0.83v0.01h0.57v4.34h-0.11
		c-0.55,0-0.99,0.43-0.99,0.96v1.06v0.99v26.45c-0.25-0.07-0.51-0.13-0.77-0.17V73.9z M88.54,75.4v29.35
		c-0.19-0.08-0.38-0.16-0.58-0.23V78.76l0,0l0-0.84V77.7v-1.84c0-0.25,0.21-0.46,0.47-0.46H88.54z M81.83,70.56h0.41v-0.01h0.83
		c0.26,0,0.47,0.2,0.47,0.46v1.84v0.22v0.84l0,0v30.36c-0.19,0.04-0.37,0.09-0.55,0.14V77.48v-0.99v-1.06
		c0-0.53-0.44-0.96-0.99-0.96h-0.17V70.56z M81.83,74.97H82c0.26,0,0.47,0.2,0.47,0.46v1.84v0.22v0.84l0,0v26.24
		c-0.22,0.08-0.43,0.17-0.64,0.27V74.97z M83.83,115.23L83.83,115.23L83.83,115.23l-2.19-2.18l0.66-0.66l1.53,1.53l4.73-4.73
		l0.66,0.66L83.83,115.23z M91.76,88.18v19.11c-0.26-0.34-0.54-0.66-0.85-0.96l0.06-18.58l0,0V86.9v-0.22v-1.84
		c0-0.25,0.18-0.46,0.41-0.46h0.72v0.01h0.23C91.96,85.6,91.76,86.87,91.76,88.18z"/>
	<path class="st1" d="M169.93,84.52c-0.03-5.28-0.56-10.45-1.52-15.46c-0.07-0.35-0.12-0.7-0.19-1.04
		c-1.05-5.11-2.58-10.04-4.51-14.77c-0.13-0.33-0.25-0.66-0.39-0.99c-2.03-4.82-4.51-9.4-7.37-13.71c-0.19-0.29-0.38-0.59-0.58-0.89
		c-2.92-4.3-6.23-8.3-9.87-11.99c-0.25-0.25-0.5-0.5-0.75-0.75c-3.68-3.63-7.68-6.93-11.96-9.84c-0.29-0.2-0.59-0.38-0.89-0.58
		c-4.28-2.83-8.82-5.29-13.59-7.32c-0.32-0.14-0.66-0.26-0.98-0.39c-4.79-1.96-9.79-3.51-14.97-4.57c-0.34-0.07-0.7-0.12-1.04-0.19
		C96.34,1.09,91.2,0.56,85.95,0.53c-0.17,0-0.35-0.01-0.52-0.01c-0.18,0-0.36,0.01-0.54,0.01C79.57,0.57,74.37,1.1,69.33,2.08
		c-0.35,0.07-0.7,0.12-1.04,0.19c-5.12,1.06-10.06,2.59-14.8,4.54c-0.33,0.13-0.66,0.25-0.98,0.39c-4.79,2.03-9.34,4.5-13.63,7.35
		c-0.29,0.2-0.59,0.38-0.88,0.58c-4.25,2.89-8.21,6.16-11.86,9.75c-0.25,0.25-0.5,0.49-0.75,0.75c-3.66,3.7-6.99,7.73-9.92,12.05
		c-0.2,0.29-0.38,0.59-0.58,0.89c-2.84,4.29-5.31,8.85-7.33,13.64c-0.14,0.32-0.26,0.66-0.39,0.98c-1.93,4.73-3.46,9.66-4.51,14.76
		c-0.07,0.34-0.12,0.7-0.19,1.04c-0.97,5.03-1.5,10.22-1.53,15.53c0,0.17-0.01,0.35-0.01,0.52c0,0.18,0.01,0.36,0.01,0.54
		c0.03,5.33,0.57,10.54,1.55,15.6c0.07,0.35,0.12,0.7,0.2,1.04c1.06,5.1,2.59,10.03,4.52,14.75c0.13,0.33,0.25,0.66,0.39,0.98
		c2.05,4.83,4.55,9.42,7.42,13.75c0.2,0.29,0.39,0.59,0.59,0.88c2.89,4.23,6.15,8.18,9.73,11.81c0.25,0.25,0.5,0.5,0.75,0.75
		c3.66,3.62,7.65,6.91,11.92,9.82c0.29,0.2,0.59,0.39,0.88,0.58c4.32,2.86,8.91,5.35,13.73,7.39c0.32,0.14,0.66,0.26,0.99,0.39
		c4.72,1.93,9.65,3.45,14.74,4.51c0.34,0.07,0.7,0.12,1.04,0.19c5.03,0.97,10.21,1.5,15.51,1.53c0.18,0,0.36,0.01,0.54,0.01
		c0.18,0,0.35-0.01,0.52-0.01c5.22-0.03,10.33-0.55,15.3-1.49c0.35-0.07,0.7-0.12,1.04-0.19c5.18-1.05,10.18-2.6,14.98-4.55
		c0.33-0.13,0.66-0.25,0.99-0.39c4.78-2.02,9.33-4.49,13.62-7.32c0.29-0.19,0.6-0.38,0.89-0.58c4.28-2.91,8.28-6.2,11.95-9.82
		c0.25-0.25,0.5-0.49,0.75-0.75c3.62-3.66,6.91-7.65,9.82-11.91c0.2-0.29,0.39-0.59,0.59-0.88c2.86-4.3,5.34-8.87,7.38-13.67
		c0.14-0.32,0.26-0.66,0.39-0.98c1.96-4.77,3.5-9.74,4.56-14.9c0.07-0.34,0.12-0.7,0.19-1.04c0.97-5.02,1.5-10.2,1.53-15.49
		c0-0.18,0.01-0.36,0.01-0.54C169.94,84.86,169.93,84.69,169.93,84.52z M168.34,84.52h-4.03c-0.03-4.9-0.52-9.68-1.41-14.33
		l3.95-0.81C167.8,74.28,168.31,79.34,168.34,84.52z M157.49,114.43l-2.53-1.06c3.52-8.59,5.49-17.98,5.56-27.8h2.74
		C163.18,95.78,161.14,105.52,157.49,114.43z M140.74,139.74l-1.94-1.93c6.63-6.71,12.02-14.65,15.76-23.45l2.53,1.06
		C153.21,124.55,147.62,132.79,140.74,139.74z M115.66,156.77l-1.06-2.53c8.8-3.72,16.74-9.08,23.45-15.69l1.94,1.93
		C133.02,147.34,124.79,152.9,115.66,156.77z M85.95,162.86v-2.74c9.77-0.07,19.1-2.02,27.66-5.49l1.06,2.53
		C105.79,160.77,96.1,162.8,85.95,162.86z M56.12,157.13l1.04-2.54c8.57,3.5,17.93,5.46,27.73,5.53v2.74
		C74.72,162.79,65.02,160.76,56.12,157.13z M30.81,140.43l1.95-1.93c6.7,6.6,14.63,11.97,23.42,15.7l-1.04,2.54
		C46.01,152.87,37.77,147.3,30.81,140.43z M13.74,115.36l2.53-1.06c3.74,8.81,9.12,16.75,15.74,23.46l-1.95,1.93
		C23.19,132.73,17.61,124.49,13.74,115.36z M7.6,85.57h2.74c0.07,9.8,2.03,19.16,5.53,27.73l-2.53,1.06
		C9.71,105.47,7.67,95.75,7.6,85.57z M13.32,55.75l2.53,1.06c-3.49,8.57-5.44,17.91-5.51,27.71H7.6
		C7.67,74.35,9.7,64.65,13.32,55.75z M30.09,30.36l1.93,1.94c-6.64,6.73-12.04,14.69-15.78,23.53l-2.53-1.06
		C17.6,45.6,23.19,37.34,30.09,30.36z M55.1,13.35l1.06,2.53c-8.77,3.73-16.69,9.08-23.39,15.68l-1.93-1.94
		C37.79,22.77,46,17.21,55.1,13.35z M84.89,7.21v2.74c-9.81,0.07-19.17,2.03-27.74,5.53l-1.06-2.53
		C64.99,9.32,74.71,7.28,84.89,7.21z M114.82,12.97l-1.04,2.54c-8.6-3.52-17.99-5.49-27.83-5.56V7.21
		C96.15,7.28,105.89,9.32,114.82,12.97z M157.17,54.84l-2.53,1.06c-3.75-8.86-9.15-16.86-15.82-23.61l1.95-1.93
		C147.68,37.36,153.29,45.65,157.17,54.84z M126.1,24.72c3.7,2.5,7.15,5.34,10.32,8.47l-4.79,4.74
		c-5.82-5.72-12.69-10.38-20.3-13.65l2.54-6.22c3.97,1.69,7.76,3.74,11.33,6.09C125.5,24.34,125.81,24.52,126.1,24.72z M149.1,85.04
		c0,0.18-0.01,0.36-0.01,0.54c-0.07,8.27-1.72,16.16-4.67,23.4c-0.13,0.33-0.26,0.66-0.4,0.98c-3.17,7.43-7.7,14.13-13.29,19.8
		c-0.25,0.25-0.5,0.5-0.75,0.75c-5.68,5.57-12.38,10.1-19.8,13.25c-0.32,0.14-0.66,0.26-0.99,0.39c-7.19,2.91-15.03,4.54-23.24,4.61
		c-0.17,0-0.35,0.01-0.52,0.01c-0.18,0-0.36-0.01-0.54-0.01c-8.28-0.07-16.18-1.73-23.43-4.69c-0.33-0.13-0.66-0.26-0.98-0.4
		c-7.36-3.15-14-7.65-19.63-13.18c-0.25-0.25-0.5-0.5-0.75-0.75c-5.6-5.69-10.15-12.42-13.31-19.87c-0.14-0.32-0.26-0.66-0.39-0.98
		c-2.92-7.21-4.56-15.07-4.63-23.31c0-0.18-0.01-0.36-0.01-0.54c0-0.17,0.01-0.35,0.01-0.52c0.07-8.23,1.7-16.09,4.62-23.31
		c0.13-0.33,0.25-0.66,0.39-0.98c3.15-7.44,7.69-14.16,13.28-19.85c0.25-0.25,0.5-0.5,0.75-0.75c5.66-5.58,12.36-10.11,19.77-13.27
		c0.32-0.14,0.66-0.26,0.98-0.39c7.22-2.93,15.09-4.58,23.33-4.65c0.18,0,0.36-0.01,0.54-0.01c0.18,0,0.35,0.01,0.52,0.01
		c8.32,0.07,16.25,1.74,23.52,4.72c0.33,0.13,0.66,0.26,0.98,0.4c7.32,3.14,13.93,7.62,19.53,13.13c0.25,0.25,0.5,0.49,0.75,0.75
		c5.64,5.72,10.21,12.5,13.38,20.02c0.14,0.32,0.26,0.66,0.39,0.99c2.89,7.18,4.51,15.01,4.58,23.2
		C149.08,84.69,149.1,84.86,149.1,85.04z M132.39,38.68l4.79-4.74c6.46,6.54,11.69,14.28,15.32,22.87l-6.23,2.62
		C142.98,51.64,138.23,44.61,132.39,38.68z M110.36,23.88c-7.54-3.09-15.78-4.83-24.41-4.9v-6.71c9.53,0.07,18.62,1.98,26.95,5.39
		L110.36,23.88z M84.89,18.99c-8.56,0.07-16.74,1.78-24.23,4.83l-2.61-6.19c8.3-3.38,17.35-5.28,26.84-5.35V18.99z M59.68,24.21
		c-7.69,3.28-14.64,7.98-20.51,13.77l-4.75-4.78c6.49-6.38,14.15-11.57,22.65-15.18L59.68,24.21z M38.42,38.73
		c-5.8,5.9-10.51,12.87-13.78,20.6l-6.24-2.61c3.62-8.55,8.84-16.26,15.27-22.77L38.42,38.73z M24.24,60.31
		c-3.03,7.49-4.73,15.65-4.8,24.2h-6.77C12.74,75.04,14.63,66,18,57.71L24.24,60.31z M19.44,85.57c0.07,8.55,1.77,16.72,4.81,24.21
		l-6.24,2.62c-3.38-8.3-5.28-17.35-5.35-26.83H19.44z M24.64,110.77c3.28,7.73,8,14.71,13.8,20.61l-4.79,4.74
		c-6.42-6.5-11.63-14.2-15.25-22.73L24.64,110.77z M39.2,132.12c5.85,5.75,12.75,10.43,20.4,13.7l-2.54,6.22
		c-8.5-3.61-16.16-8.8-22.65-15.18L39.2,132.12z M60.58,146.22c7.52,3.07,15.72,4.79,24.31,4.86v6.71
		c-9.49-0.07-18.55-1.97-26.85-5.35L60.58,146.22z M85.95,151.09c8.53-0.07,16.67-1.77,24.15-4.79l2.61,6.19
		c-8.28,3.36-17.3,5.24-26.75,5.31V151.09z M111.08,145.9c7.71-3.27,14.66-7.97,20.55-13.75l4.77,4.76
		c-6.5,6.39-14.19,11.58-22.71,15.19L111.08,145.9z M132.38,131.41c5.8-5.88,10.51-12.84,13.79-20.55l6.24,2.61
		c-3.63,8.52-8.84,16.21-15.26,22.7L132.38,131.41z M146.57,109.88c3.06-7.52,4.78-15.71,4.85-24.3h6.77
		c-0.07,9.51-1.98,18.59-5.38,26.91L146.57,109.88z M151.41,84.52c-0.07-8.51-1.75-16.64-4.76-24.1l6.24-2.62
		c3.35,8.27,5.23,17.28,5.3,26.73H151.41z M138.08,31.55c-3.27-3.22-6.83-6.15-10.65-8.74l1.56-2.25c3.95,2.68,7.64,5.72,11.03,9.06
		L138.08,31.55z M126.54,22.24c-3.71-2.44-7.65-4.57-11.78-6.33l1.04-2.54c4.32,1.84,8.43,4.06,12.3,6.62L126.54,22.24z
		 M160.51,84.52c-0.07-9.76-2.01-19.08-5.48-27.63l2.53-1.06c3.61,8.87,5.63,18.55,5.7,28.69H160.51z M166.67,68.33l-3.95,0.81
		c-0.97-4.75-2.39-9.33-4.18-13.73l3.71-1.56C164.14,58.49,165.64,63.32,166.67,68.33z M161.86,52.87l-3.71,1.56
		c-1.9-4.5-4.22-8.78-6.89-12.81l3.37-2.21C157.43,43.65,159.86,48.14,161.86,52.87z M154.05,38.53l-3.37,2.21
		c-2.71-3.98-5.78-7.7-9.15-11.11l2.86-2.83C147.95,30.39,151.19,34.32,154.05,38.53z M143.64,26.04l-2.86,2.84
		c-3.44-3.39-7.17-6.47-11.18-9.18l2.3-3.31C136.1,19.24,140.03,22.48,143.64,26.04z M131.01,15.81l-2.3,3.31
		c-3.94-2.6-8.12-4.86-12.51-6.73l1.53-3.73C122.39,10.64,126.83,13.04,131.01,15.81z M116.74,8.27l-1.53,3.73
		c-4.46-1.82-9.11-3.27-13.92-4.25l0.77-3.95C107.14,4.82,112.05,6.34,116.74,8.27z M101.02,3.6l-0.77,3.95
		c-4.64-0.89-9.42-1.37-14.3-1.4V2.12C91.1,2.15,96.14,2.66,101.02,3.6z M84.89,2.12v4.03c-4.91,0.03-9.72,0.52-14.39,1.42
		l-0.84-3.94C74.6,2.68,79.69,2.15,84.89,2.12z M68.62,3.82l0.84,3.94c-4.77,0.98-9.38,2.41-13.79,4.22l-1.56-3.71
		C58.75,6.37,63.6,4.86,68.62,3.82z M53.12,8.66l1.56,3.71c-4.43,1.88-8.65,4.17-12.63,6.8l-2.28-3.32
		C43.98,13.07,48.44,10.65,53.12,8.66z M38.89,16.43l2.28,3.32c-3.97,2.7-7.67,5.75-11.08,9.11L27.26,26
		C30.83,22.48,34.73,19.27,38.89,16.43z M26.5,26.75l2.84,2.86c-3.38,3.42-6.46,7.15-9.17,11.14l-3.38-2.2
		C19.67,34.32,22.92,30.37,26.5,26.75z M16.21,39.43l3.37,2.2c-2.65,4.01-4.96,8.26-6.85,12.73l-3.72-1.55
		C11.01,48.11,13.43,43.64,16.21,39.43z M8.63,53.79l3.72,1.55c-1.8,4.41-3.22,9-4.2,13.76L4.2,68.27
		C5.23,63.27,6.74,58.43,8.63,53.79z M4.01,69.32l3.94,0.83c-0.89,4.66-1.38,9.46-1.42,14.37H2.51C2.54,79.32,3.06,74.24,4.01,69.32
		z M2.51,85.57h4.03c0.03,4.91,0.52,9.71,1.42,14.37l-3.94,0.88C3.07,95.88,2.55,90.79,2.51,85.57z M4.22,101.87l3.93-0.88
		c0.98,4.77,2.41,9.38,4.22,13.8l-3.71,1.56C6.76,111.71,5.25,106.87,4.22,101.87z M9.05,117.33l3.71-1.56
		c1.88,4.42,4.16,8.63,6.78,12.59l-3.25,2.39C13.48,126.53,11.05,122.04,9.05,117.33z M16.87,131.63l3.26-2.39
		c2.72,4,5.8,7.75,9.19,11.19l-2.86,2.83C22.92,139.69,19.71,135.8,16.87,131.63z M27.2,144.01l2.86-2.84
		c3.42,3.38,7.15,6.45,11.14,9.16l-2.3,3.31C34.71,150.79,30.79,147.56,27.2,144.01z M39.79,154.23l2.3-3.31
		c3.98,2.63,8.21,4.92,12.65,6.8l-1.53,3.73C48.5,159.46,44.01,157.02,39.79,154.23z M54.2,161.84l1.52-3.73
		c4.42,1.8,9.03,3.23,13.8,4.21l-0.85,3.94C63.67,165.23,58.83,163.73,54.2,161.84z M69.72,166.45l0.85-3.94
		c4.65,0.89,9.43,1.38,14.32,1.41v4.03C79.71,167.92,74.64,167.4,69.72,166.45z M85.95,167.95v-4.03c4.91-0.03,9.71-0.52,14.37-1.41
		l0.67,3.97C96.11,167.41,91.08,167.92,85.95,167.95z M102.02,166.29l-0.67-3.98c4.75-0.98,9.33-2.4,13.73-4.19l1.56,3.71
		C111.97,163.75,107.08,165.26,102.02,166.29z M117.63,161.46l-1.56-3.71c4.43-1.87,8.64-4.15,12.62-6.77l2.28,3.32
		C126.77,157.06,122.32,159.47,117.63,161.46z M131.86,153.71l-2.28-3.32c4-2.71,7.73-5.78,11.16-9.16l2.85,2.84
		C139.98,147.63,136.06,150.86,131.86,153.71z M144.34,143.33l-2.85-2.84c3.38-3.42,6.45-7.14,9.17-11.12l3.32,2.28
		C151.12,135.83,147.89,139.74,144.34,143.33z M154.56,130.76l-3.32-2.28c2.64-3.99,4.94-8.22,6.83-12.66l3.72,1.55
		C159.79,122.08,157.36,126.55,154.56,130.76z M162.18,116.39l-3.72-1.55c1.82-4.45,3.24-9.1,4.23-13.9l3.96,0.85
		C165.62,106.84,164.1,111.72,162.18,116.39z M166.85,100.74l-3.95-0.84c0.89-4.65,1.39-9.43,1.42-14.32h4.03
		C168.31,90.76,167.79,95.82,166.85,100.74z"/>
</g>
</svg>
