<?xml version="1.0" encoding="utf-8"?>
<!-- Generator: Adobe Illustrator 23.0.1, SVG Export Plug-In . SVG Version: 6.00 Build 0)  -->
<svg version="1.1" id="Layer_1" xmlns="http://www.w3.org/2000/svg" xmlns:xlink="http://www.w3.org/1999/xlink" x="0px" y="0px"
	 viewBox="0 0 170 170" style="enable-background:new 0 0 170 170;" xml:space="preserve">
<style type="text/css">
	.st0{fill:#928573;}
	.st1{fill:#948773;}
</style>
<g>
	<path class="st0" d="M169.35,84.34c-0.03-5.28-0.56-10.45-1.52-15.46c-0.07-0.35-0.12-0.7-0.19-1.04
		c-1.05-5.11-2.58-10.04-4.51-14.77c-0.13-0.33-0.25-0.66-0.39-0.99c-2.03-4.82-4.51-9.4-7.37-13.71c-0.19-0.29-0.38-0.59-0.58-0.89
		c-2.92-4.3-6.23-8.3-9.87-11.99c-0.25-0.25-0.5-0.5-0.75-0.75c-3.68-3.63-7.68-6.93-11.96-9.84c-0.29-0.2-0.59-0.38-0.89-0.58
		c-4.28-2.83-8.82-5.29-13.59-7.32c-0.32-0.14-0.66-0.26-0.98-0.39c-4.79-1.96-9.79-3.51-14.97-4.57c-0.34-0.07-0.7-0.12-1.04-0.19
		c-4.99-0.95-10.13-1.48-15.38-1.51c-0.17,0-0.35-0.01-0.52-0.01c-0.18,0-0.36,0.01-0.54,0.01C78.99,0.39,73.79,0.92,68.74,1.9
		c-0.35,0.07-0.7,0.12-1.04,0.19c-5.12,1.06-10.06,2.59-14.8,4.54c-0.33,0.13-0.66,0.25-0.98,0.39c-4.79,2.03-9.34,4.5-13.63,7.35
		c-0.29,0.2-0.59,0.38-0.88,0.58c-4.25,2.89-8.21,6.16-11.86,9.75c-0.25,0.25-0.5,0.49-0.75,0.75c-3.66,3.7-6.99,7.73-9.92,12.05
		c-0.2,0.29-0.38,0.59-0.58,0.89c-2.84,4.29-5.31,8.85-7.33,13.64C6.83,52.34,6.71,52.68,6.58,53c-1.93,4.73-3.46,9.66-4.51,14.76
		c-0.07,0.34-0.12,0.7-0.19,1.04c-0.97,5.03-1.5,10.22-1.53,15.53c0,0.17-0.01,0.35-0.01,0.52c0,0.18,0.01,0.36,0.01,0.54
		c0.03,5.33,0.57,10.54,1.55,15.6c0.07,0.35,0.12,0.7,0.2,1.04c1.06,5.1,2.59,10.03,4.52,14.75c0.13,0.33,0.25,0.66,0.39,0.98
		c2.05,4.83,4.55,9.42,7.42,13.75c0.2,0.29,0.39,0.59,0.59,0.88c2.89,4.23,6.15,8.18,9.73,11.81c0.25,0.25,0.5,0.5,0.75,0.75
		c3.66,3.62,7.65,6.91,11.92,9.82c0.29,0.2,0.59,0.39,0.88,0.58c4.32,2.86,8.91,5.35,13.73,7.39c0.32,0.14,0.66,0.26,0.99,0.39
		c4.72,1.93,9.65,3.45,14.74,4.51c0.34,0.07,0.7,0.12,1.04,0.19c5.03,0.97,10.21,1.5,15.51,1.53c0.18,0,0.36,0.01,0.54,0.01
		c0.18,0,0.35-0.01,0.52-0.01c5.22-0.03,10.33-0.55,15.3-1.49c0.35-0.07,0.7-0.12,1.04-0.19c5.18-1.05,10.18-2.6,14.98-4.55
		c0.33-0.13,0.66-0.25,0.99-0.39c4.78-2.02,9.33-4.49,13.62-7.32c0.29-0.19,0.6-0.38,0.89-0.58c4.28-2.91,8.28-6.2,11.95-9.82
		c0.25-0.25,0.5-0.49,0.75-0.75c3.62-3.66,6.91-7.65,9.82-11.91c0.2-0.29,0.39-0.59,0.59-0.88c2.86-4.3,5.34-8.87,7.38-13.67
		c0.14-0.32,0.26-0.66,0.39-0.98c1.96-4.77,3.5-9.74,4.56-14.9c0.07-0.34,0.12-0.7,0.19-1.04c0.97-5.02,1.5-10.2,1.53-15.49
		c0-0.18,0.01-0.36,0.01-0.54C169.36,84.68,169.35,84.51,169.35,84.34z M167.76,84.34h-4.03c-0.03-4.9-0.52-9.68-1.41-14.33
		l3.95-0.81C167.21,74.1,167.73,79.16,167.76,84.34z M156.9,114.25l-2.53-1.06c3.52-8.59,5.49-17.98,5.56-27.8h2.74
		C162.6,95.6,160.55,105.33,156.9,114.25z M140.15,139.56l-1.94-1.93c6.63-6.71,12.02-14.65,15.76-23.45l2.53,1.06
		C152.62,124.37,147.03,132.61,140.15,139.56z M115.07,156.59l-1.06-2.53c8.8-3.72,16.74-9.08,23.45-15.69l1.94,1.93
		C132.44,147.16,124.2,152.72,115.07,156.59z M85.36,162.68v-2.74c9.77-0.07,19.1-2.02,27.66-5.49l1.06,2.53
		C105.2,160.59,95.51,162.62,85.36,162.68z M55.54,156.95l1.04-2.54c8.57,3.5,17.93,5.46,27.73,5.53v2.74
		C74.14,162.61,64.43,160.58,55.54,156.95z M30.23,140.25l1.95-1.93c6.7,6.6,14.63,11.97,23.42,15.7l-1.04,2.54
		C45.42,152.69,37.19,147.12,30.23,140.25z M13.15,115.18l2.53-1.06c3.74,8.81,9.12,16.75,15.74,23.46l-1.95,1.93
		C22.61,132.54,17.03,124.31,13.15,115.18z M7.02,85.39h2.74c0.07,9.8,2.03,19.16,5.53,27.73l-2.53,1.06
		C9.12,105.29,7.09,95.57,7.02,85.39z M12.74,55.57l2.53,1.06c-3.49,8.57-5.44,17.91-5.51,27.71H7.01
		C7.08,74.17,9.11,64.47,12.74,55.57z M29.51,30.18l1.93,1.94c-6.64,6.73-12.04,14.69-15.78,23.53l-2.53-1.06
		C17.01,45.42,22.61,37.16,29.51,30.18z M54.51,13.17l1.06,2.53c-8.77,3.73-16.69,9.08-23.39,15.68l-1.93-1.94
		C37.2,22.59,45.41,17.03,54.51,13.17z M84.31,7.03v2.74C74.5,9.84,65.14,11.8,56.56,15.3l-1.06-2.53
		C64.4,9.14,74.12,7.1,84.31,7.03z M114.23,12.79l-1.04,2.54c-8.6-3.52-17.99-5.49-27.83-5.56V7.03
		C95.57,7.1,105.31,9.14,114.23,12.79z M156.59,54.66l-2.53,1.06c-3.75-8.86-9.15-16.86-15.82-23.61l1.95-1.93
		C147.1,37.18,152.7,45.47,156.59,54.66z M125.52,24.54c3.7,2.5,7.15,5.34,10.32,8.47l-4.79,4.74c-5.82-5.72-12.69-10.38-20.3-13.65
		l2.54-6.22c3.97,1.69,7.76,3.74,11.33,6.09C124.92,24.16,125.22,24.34,125.52,24.54z M148.51,84.86c0,0.18-0.01,0.36-0.01,0.54
		c-0.07,8.27-1.72,16.16-4.67,23.4c-0.13,0.33-0.26,0.66-0.4,0.98c-3.17,7.43-7.7,14.13-13.29,19.8c-0.25,0.25-0.5,0.5-0.75,0.75
		c-5.68,5.57-12.38,10.1-19.8,13.25c-0.32,0.14-0.66,0.26-0.99,0.39c-7.19,2.91-15.03,4.54-23.24,4.61c-0.17,0-0.35,0.01-0.52,0.01
		c-0.18,0-0.36-0.01-0.54-0.01c-8.28-0.07-16.18-1.73-23.43-4.69c-0.33-0.13-0.66-0.26-0.98-0.4c-7.36-3.15-14-7.65-19.63-13.18
		c-0.25-0.25-0.5-0.5-0.75-0.75c-5.6-5.69-10.15-12.42-13.31-19.87c-0.14-0.32-0.26-0.66-0.39-0.98
		c-2.92-7.21-4.56-15.07-4.63-23.31c0-0.18-0.01-0.36-0.01-0.54c0-0.17,0.01-0.35,0.01-0.52c0.07-8.23,1.7-16.09,4.62-23.31
		c0.13-0.33,0.25-0.66,0.39-0.98c3.15-7.44,7.69-14.16,13.28-19.85c0.25-0.25,0.5-0.5,0.75-0.75c5.66-5.58,12.36-10.11,19.77-13.27
		c0.32-0.14,0.66-0.26,0.98-0.39c7.22-2.93,15.09-4.58,23.33-4.65c0.18,0,0.36-0.01,0.54-0.01c0.18,0,0.35,0.01,0.52,0.01
		c8.32,0.07,16.25,1.74,23.52,4.72c0.33,0.13,0.66,0.26,0.98,0.4c7.32,3.14,13.93,7.62,19.53,13.13c0.25,0.25,0.5,0.49,0.75,0.75
		c5.64,5.72,10.21,12.5,13.38,20.02c0.14,0.32,0.26,0.66,0.39,0.99c2.89,7.18,4.51,15.01,4.58,23.2
		C148.5,84.51,148.51,84.68,148.51,84.86z M131.8,38.49l4.79-4.74c6.46,6.54,11.69,14.28,15.32,22.87l-6.23,2.62
		C142.39,51.46,137.65,44.43,131.8,38.49z M109.77,23.7c-7.54-3.09-15.78-4.83-24.41-4.9V12.1c9.53,0.07,18.62,1.98,26.95,5.39
		L109.77,23.7z M84.31,18.81c-8.56,0.07-16.74,1.78-24.23,4.83l-2.61-6.19c8.3-3.38,17.35-5.28,26.84-5.35V18.81z M59.09,24.03
		c-7.69,3.28-14.64,7.98-20.51,13.77l-4.75-4.78c6.49-6.38,14.15-11.57,22.65-15.18L59.09,24.03z M37.83,38.55
		c-5.8,5.9-10.51,12.87-13.78,20.6l-6.24-2.61c3.62-8.55,8.84-16.26,15.27-22.77L37.83,38.55z M23.66,60.13
		c-3.03,7.49-4.73,15.65-4.8,24.2h-6.77c0.07-9.47,1.96-18.52,5.33-26.81L23.66,60.13z M18.86,85.39
		c0.07,8.55,1.77,16.72,4.81,24.21l-6.24,2.62c-3.38-8.3-5.28-17.35-5.35-26.83H18.86z M24.06,110.59c3.28,7.73,8,14.71,13.8,20.61
		l-4.79,4.74c-6.42-6.5-11.63-14.2-15.25-22.73L24.06,110.59z M38.61,131.94c5.85,5.75,12.75,10.43,20.4,13.7l-2.54,6.22
		c-8.5-3.61-16.16-8.8-22.65-15.18L38.61,131.94z M60,146.04c7.52,3.07,15.72,4.79,24.31,4.86v6.71
		c-9.49-0.07-18.55-1.97-26.85-5.35L60,146.04z M85.36,150.91c8.53-0.07,16.67-1.77,24.15-4.79l2.61,6.19
		c-8.28,3.36-17.3,5.24-26.75,5.31V150.91z M110.5,145.72c7.71-3.27,14.66-7.97,20.55-13.75l4.77,4.76
		c-6.5,6.39-14.19,11.58-22.71,15.19L110.5,145.72z M131.79,131.23c5.8-5.88,10.51-12.84,13.79-20.55l6.24,2.61
		c-3.63,8.52-8.84,16.21-15.26,22.7L131.79,131.23z M145.98,109.7c3.06-7.52,4.78-15.71,4.85-24.3h6.77
		c-0.07,9.51-1.98,18.59-5.38,26.91L145.98,109.7z M150.83,84.34c-0.07-8.51-1.75-16.64-4.76-24.1l6.24-2.62
		c3.35,8.27,5.23,17.28,5.3,26.73H150.83z M137.49,31.37c-3.27-3.22-6.83-6.15-10.65-8.74l1.56-2.25c3.95,2.68,7.64,5.72,11.03,9.06
		L137.49,31.37z M125.95,22.05c-3.71-2.44-7.65-4.57-11.78-6.33l1.04-2.54c4.32,1.84,8.43,4.06,12.3,6.62L125.95,22.05z
		 M159.93,84.34c-0.07-9.76-2.01-19.08-5.48-27.63l2.53-1.06c3.61,8.87,5.63,18.55,5.7,28.69H159.93z M166.08,68.15l-3.95,0.81
		c-0.97-4.75-2.39-9.33-4.18-13.73l3.71-1.56C163.55,58.31,165.05,63.14,166.08,68.15z M161.28,52.69l-3.71,1.56
		c-1.9-4.5-4.22-8.78-6.89-12.81l3.37-2.21C156.84,43.47,159.28,47.96,161.28,52.69z M153.46,38.35l-3.37,2.21
		c-2.71-3.98-5.78-7.7-9.15-11.11l2.86-2.83C147.36,30.21,150.6,34.14,153.46,38.35z M143.05,25.86l-2.86,2.84
		c-3.44-3.39-7.17-6.47-11.18-9.18l2.3-3.31C135.52,19.06,139.44,22.3,143.05,25.86z M130.42,15.63l-2.3,3.31
		c-3.94-2.6-8.12-4.86-12.51-6.73l1.53-3.73C121.8,10.46,126.24,12.86,130.42,15.63z M116.16,8.09l-1.53,3.73
		c-4.46-1.82-9.11-3.27-13.92-4.25l0.77-3.95C106.56,4.64,111.46,6.16,116.16,8.09z M100.44,3.42l-0.77,3.95
		c-4.64-0.89-9.42-1.37-14.3-1.4V1.94C90.51,1.97,95.55,2.48,100.44,3.42z M84.31,1.94v4.03C79.39,6,74.58,6.49,69.92,7.39
		l-0.84-3.94C74.01,2.49,79.1,1.97,84.31,1.94z M68.03,3.64l0.84,3.94C64.11,8.57,59.5,10,55.09,11.8l-1.56-3.71
		C58.17,6.19,63.01,4.68,68.03,3.64z M52.54,8.48l1.56,3.71c-4.43,1.88-8.65,4.17-12.63,6.8l-2.28-3.32
		C43.39,12.89,47.85,10.47,52.54,8.48z M38.31,16.25l2.28,3.32c-3.97,2.7-7.67,5.75-11.08,9.11l-2.84-2.86
		C30.25,22.3,34.14,19.09,38.31,16.25z M25.92,26.57l2.84,2.86c-3.38,3.42-6.46,7.15-9.17,11.14l-3.38-2.2
		C19.08,34.14,22.34,30.19,25.92,26.57z M15.63,39.25l3.37,2.2c-2.65,4.01-4.96,8.26-6.85,12.73l-3.72-1.55
		C10.42,47.93,12.84,43.46,15.63,39.25z M8.04,53.61l3.72,1.55c-1.8,4.41-3.22,9-4.2,13.76l-3.94-0.83
		C4.65,63.09,6.15,58.25,8.04,53.61z M3.43,69.14l3.94,0.83c-0.89,4.66-1.38,9.46-1.42,14.37H1.93C1.96,79.14,2.48,74.06,3.43,69.14
		z M1.93,85.39h4.03c0.03,4.91,0.52,9.71,1.42,14.37l-3.94,0.88C2.48,95.7,1.96,90.6,1.93,85.39z M3.63,101.68l3.93-0.88
		c0.98,4.77,2.41,9.38,4.22,13.8l-3.71,1.56C6.17,111.53,4.67,106.69,3.63,101.68z M8.46,117.15l3.71-1.56
		c1.88,4.42,4.16,8.63,6.78,12.59l-3.25,2.39C12.9,126.35,10.46,121.86,8.46,117.15z M16.28,131.45l3.26-2.39
		c2.72,4,5.8,7.75,9.19,11.19l-2.86,2.83C22.33,139.51,19.12,135.62,16.28,131.45z M26.61,143.83l2.86-2.84
		c3.42,3.38,7.15,6.45,11.14,9.16l-2.3,3.31C34.12,150.61,30.21,147.38,26.61,143.83z M39.2,154.05l2.3-3.31
		c3.98,2.63,8.21,4.92,12.65,6.8l-1.53,3.73C47.91,159.27,43.42,156.84,39.2,154.05z M53.61,161.66l1.52-3.73
		c4.42,1.8,9.03,3.23,13.8,4.21l-0.85,3.94C63.08,165.05,58.25,163.55,53.61,161.66z M69.13,166.27l0.85-3.94
		c4.65,0.89,9.43,1.38,14.32,1.41v4.03C79.12,167.74,74.05,167.22,69.13,166.27z M85.36,167.77v-4.03
		c4.91-0.03,9.71-0.52,14.37-1.41l0.67,3.97C95.52,167.23,90.5,167.74,85.36,167.77z M101.44,166.11l-0.67-3.98
		c4.75-0.98,9.33-2.4,13.73-4.19l1.56,3.71C111.38,163.57,106.5,165.08,101.44,166.11z M117.05,161.27l-1.56-3.71
		c4.43-1.87,8.64-4.15,12.62-6.77l2.28,3.32C126.18,156.88,121.73,159.29,117.05,161.27z M131.27,153.53l-2.28-3.32
		c4-2.71,7.73-5.78,11.16-9.16l2.85,2.84C139.4,147.45,135.47,150.68,131.27,153.53z M143.75,143.15l-2.85-2.84
		c3.38-3.42,6.45-7.14,9.17-11.12l3.32,2.28C150.54,135.65,147.31,139.56,143.75,143.15z M153.98,130.58l-3.32-2.28
		c2.64-3.99,4.94-8.22,6.83-12.66l3.72,1.55C159.2,121.9,156.77,126.37,153.98,130.58z M161.6,116.21l-3.72-1.55
		c1.82-4.45,3.24-9.1,4.23-13.9l3.96,0.85C165.03,106.66,163.51,111.54,161.6,116.21z M166.26,100.56l-3.95-0.84
		c0.89-4.65,1.39-9.43,1.42-14.32h4.03C167.72,90.58,167.21,95.64,166.26,100.56z"/>
	<g>
		<g>
			<polygon class="st1" points="58.2,64.61 57.04,69.77 45.15,69.77 46.8,64.61 			"/>
		</g>
		<g>
			<polygon class="st1" points="122.88,64.61 124.54,69.77 112.64,69.77 111.48,64.61 			"/>
		</g>
		<g>
			<polygon class="st1" points="101.32,64.61 102.04,69.77 90.14,69.77 89.92,64.61 			"/>
		</g>
		<g>
			<polygon class="st1" points="79.76,64.61 79.54,69.77 67.64,69.77 68.36,64.61 			"/>
		</g>
		<g>
			<polygon class="st1" points="79.39,73.23 79.14,79.19 66.34,79.19 67.16,73.23 			"/>
		</g>
		<g>
			<polygon class="st1" points="102.52,73.23 103.35,79.19 90.55,79.19 90.29,73.23 			"/>
		</g>
		<g>
			<polygon class="st1" points="125.65,73.23 127.56,79.19 114.76,79.19 113.42,73.23 			"/>
		</g>
		<g>
			<polygon class="st1" points="56.26,73.23 54.92,79.19 42.12,79.19 44.04,73.23 			"/>
		</g>
		<g>
			<polygon class="st1" points="128.85,83.2 131.09,90.16 117.23,90.16 115.67,83.2 			"/>
		</g>
		<g>
			<polygon class="st1" points="54.02,83.2 52.45,90.16 38.6,90.16 40.83,83.2 			"/>
		</g>
		<g>
			<polygon class="st1" points="78.96,83.2 78.66,90.16 64.81,90.16 65.77,83.2 			"/>
		</g>
		<g>
			<polygon class="st1" points="103.91,83.2 104.87,90.16 91.02,90.16 90.72,83.2 			"/>
		</g>
		<g>
			<polygon class="st1" points="78.46,94.88 78.11,103.1 63,103.1 64.15,94.88 			"/>
		</g>
		<g>
			<polygon class="st1" points="51.39,94.88 49.54,103.1 34.44,103.1 37.08,94.88 			"/>
		</g>
		<g>
			<polygon class="st1" points="132.6,94.88 135.25,103.1 120.14,103.1 118.29,94.88 			"/>
		</g>
		<g>
			<polygon class="st1" points="105.53,94.88 106.68,103.1 91.58,103.1 91.22,94.88 			"/>
		</g>
	</g>
</g>
</svg>
