<?xml version="1.0" encoding="utf-8"?>
<!-- Generator: Adobe Illustrator 23.0.1, SVG Export Plug-In . SVG Version: 6.00 Build 0)  -->
<svg version="1.1" id="Layer_1" xmlns="http://www.w3.org/2000/svg" xmlns:xlink="http://www.w3.org/1999/xlink" x="0px" y="0px"
	 viewBox="0 0 170 170" style="enable-background:new 0 0 170 170;" xml:space="preserve">
<style type="text/css">
	.st0{fill:#948773;}
	.st1{fill:#928573;}
</style>
<g>
	<g>
		<polygon class="st0" points="83.07,83.7 82.21,86.13 83.92,86.13 83.09,83.7 		"/>
		<path class="st0" d="M123.84,88.38c1.75,0,3.16-1.41,3.16-3.16c0-1.75-1.41-3.16-3.16-3.16c-1.69,0-3.06,1.32-3.15,2.98H95.76
			c-0.01-0.17-0.01-0.34-0.03-0.51h15.57h0.67h0.71c0.36,0,0.65-0.3,0.65-0.67v-0.56v-0.25v-0.03c3.86-0.07,7.11-2.66,8.19-6.19
			c0.09,0.01,0.19,0.01,0.28,0.01c1.75,0,3.16-1.41,3.16-3.16c0-1.75-1.41-3.16-3.16-3.16c-1.75,0-3.16,1.41-3.16,3.16
			c0,1.54,1.1,2.82,2.55,3.1c-1.05,3.37-4.17,5.84-7.86,5.91V71.12c0.7-0.09,1.24-0.68,1.24-1.4c0-0.78-0.63-1.41-1.41-1.41
			s-1.41,0.63-1.41,1.41c0,0.72,0.54,1.32,1.24,1.4v0.51v0v11.08h-2.63v-0.37c1.17-0.14,2.07-1.14,2.07-2.34
			c0-1.3-1.06-2.36-2.36-2.36c-1.3,0-2.36,1.06-2.36,2.36c0,0.08,0,0.16,0.01,0.23c0.03,0.34,0.14,0.66,0.3,0.94
			c0.4,0.69,1.14,1.17,2,1.18v0.36h-14.6c-0.1-0.39-0.22-0.77-0.36-1.14h7.55h0.67H104c0.36,0,0.65-0.24,0.65-0.53v-0.45v-0.2v-0.28
			c2.56-1.14,4.48-3.48,5.04-6.3V62.62c0.41,0.35,0.94,0.56,1.52,0.56c1.3,0,2.36-1.06,2.36-2.36c0-1.05-0.69-1.93-1.63-2.23
			c-0.3-0.96-1.18-1.66-2.24-1.66c-1.3,0-2.36,1.06-2.36,2.36c0,0.59,0.22,1.12,0.57,1.54H96.33c-3.04,0.6-5.53,2.8-6.55,5.67h-0.05
			h-0.22h-0.49c-0.32,0-0.58,0.29-0.58,0.65v0.71v0.67v6.5c-0.33-0.12-0.66-0.22-1-0.31V60.78h0.19c0.17,1.14,1.15,2.02,2.33,2.02
			c1.3,0,2.36-1.06,2.36-2.36c0-1.3-1.06-2.36-2.36-2.36c-1.3,0-2.36,1.06-2.36,2.36h-0.17v-2.92h10.97v0h0.43c0,0.03,0,0.05,0,0.08
			c0,0.78,0.63,1.41,1.41,1.41c0.78,0,1.41-0.63,1.41-1.41c0-0.78-0.63-1.41-1.41-1.41c-0.63,0-1.16,0.41-1.35,0.98H87.45
			c0.07-3.7,2.54-6.81,5.91-7.86c0.28,1.45,1.56,2.55,3.1,2.55c1.74,0,3.16-1.41,3.16-3.16s-1.42-3.16-3.16-3.16
			c-1.75,0-3.16,1.41-3.16,3.16c0,0.1,0,0.19,0.01,0.28c-3.53,1.07-6.12,4.33-6.19,8.19h-0.14h-0.25h-0.56
			c-0.37,0-0.67,0.29-0.67,0.65v0.71v0.67v15.17c-0.18-0.01-0.36-0.02-0.54-0.03V49.82c1.66-0.09,2.98-1.47,2.98-3.15
			c0-1.75-1.42-3.16-3.16-3.16c-1.75,0-3.16,1.41-3.16,3.16c0,1.69,1.32,3.06,2.98,3.15v24.51c0,0-0.01,0-0.01,0
			c-0.17,0-0.34,0.02-0.51,0.03V59.2v-0.67v-0.71c0-0.36-0.3-0.65-0.67-0.65h-0.56h-0.25h-0.03c-0.07-3.86-2.66-7.11-6.19-8.19
			c0.01-0.09,0.01-0.19,0.01-0.28c0-1.75-1.42-3.16-3.16-3.16s-3.16,1.41-3.16,3.16s1.41,3.16,3.16,3.16c1.54,0,2.82-1.1,3.1-2.55
			c3.37,1.05,5.84,4.17,5.91,7.86H70.7c-0.09-0.7-0.68-1.24-1.4-1.24c-0.78,0-1.41,0.63-1.41,1.41c0,0.78,0.63,1.41,1.41,1.41
			c0.72,0,1.32-0.54,1.4-1.24h0.51v0h11.07v2.63h-0.37c-0.14-1.17-1.14-2.07-2.34-2.07c-1.3,0-2.36,1.06-2.36,2.36
			c0,1.3,1.06,2.36,2.36,2.36c0.08,0,0.16,0,0.23-0.01c0.34-0.03,0.66-0.14,0.94-0.3c0.69-0.4,1.17-1.14,1.18-2h0.36v14.09
			c-0.39,0.08-0.76,0.19-1.14,0.31v-6.99v-0.67V66.5c0-0.36-0.24-0.65-0.53-0.65h-0.45h-0.2h-0.28c-1.14-2.56-3.48-4.48-6.3-5.04
			H61.87c0.46-0.43,0.76-1.04,0.76-1.72c0-1.3-1.06-2.36-2.36-2.36c-1.15,0-2.1,0.82-2.31,1.9c-0.86,0.35-1.46,1.2-1.46,2.18
			c0,1.3,1.06,2.36,2.36,2.36c0.53,0,1.02-0.18,1.42-0.48v11.27c0.6,3.04,2.8,5.53,5.67,6.55v0.05v0.22v0.49
			c0,0.32,0.29,0.58,0.65,0.58h0.71h0.67h6.1c-0.11,0.33-0.21,0.66-0.29,1H60.23v-0.19c1.14-0.17,2.02-1.15,2.02-2.33
			c0-1.3-1.06-2.36-2.36-2.36c-1.3,0-2.36,1.06-2.36,2.36s1.06,2.36,2.36,2.36v0.17h-2.92V71.88l0,0v-0.43c0.03,0,0.05,0,0.08,0
			c0.78,0,1.41-0.63,1.41-1.41c0-0.78-0.63-1.41-1.41-1.41c-0.78,0-1.41,0.63-1.41,1.41c0,0.63,0.41,1.16,0.98,1.35v11.45
			c-3.7-0.07-6.81-2.54-7.86-5.91c1.45-0.28,2.55-1.56,2.55-3.1c0-1.75-1.41-3.16-3.16-3.16s-3.16,1.41-3.16,3.16
			c0,1.75,1.41,3.16,3.16,3.16c0.1,0,0.19-0.01,0.28-0.01c1.07,3.53,4.33,6.12,8.19,6.19v0.14v0.25v0.56c0,0.37,0.29,0.67,0.65,0.67
			h0.71h0.67h14.84c-0.01,0.18-0.02,0.36-0.03,0.54H49.28c-0.09-1.66-1.47-2.98-3.15-2.98c-1.75,0-3.16,1.41-3.16,3.16
			c0,1.75,1.42,3.16,3.16,3.16c1.69,0,3.06-1.32,3.15-2.98h24.19c0,0.17,0.02,0.34,0.03,0.51H58.66h-0.67h-0.71
			c-0.36,0-0.65,0.3-0.65,0.67v0.56v0.25v0.03c-3.86,0.07-7.11,2.66-8.19,6.19c-0.09-0.01-0.19-0.01-0.28-0.01
			c-1.75,0-3.16,1.41-3.16,3.16c0,1.75,1.41,3.16,3.16,3.16s3.16-1.41,3.16-3.16c0-1.54-1.1-2.82-2.55-3.1
			c1.05-3.37,4.17-5.84,7.86-5.91V99.6c-0.7,0.09-1.24,0.68-1.24,1.4c0,0.78,0.63,1.41,1.41,1.41c0.78,0,1.41-0.63,1.41-1.41
			c0-0.72-0.54-1.32-1.24-1.4v-0.51l0,0V88.01h2.63v0.37c-1.17,0.14-2.07,1.14-2.07,2.34c0,1.3,1.06,2.36,2.36,2.36
			c1.3,0,2.36-1.06,2.36-2.36c0-0.08,0-0.16-0.01-0.23c-0.03-0.34-0.14-0.66-0.3-0.94c-0.4-0.69-1.14-1.17-2-1.18v-0.36h13.81
			c0.09,0.39,0.2,0.77,0.33,1.14h-6.74h-0.67h-0.71c-0.36,0-0.65,0.24-0.65,0.53v0.45v0.2v0.28c-2.56,1.14-4.48,3.48-5.04,6.3v11.61
			c-0.42-0.41-1-0.67-1.64-0.67c-1.3,0-2.36,1.06-2.36,2.36c0,1.15,0.82,2.1,1.91,2.32c0.39,0.76,1.18,1.28,2.09,1.28
			c1.3,0,2.36-1.06,2.36-2.36c0-0.45-0.13-0.88-0.35-1.24h11.23c3.04-0.6,5.53-2.79,6.55-5.67h0.05h0.22h0.49
			c0.32,0,0.58-0.29,0.58-0.65v-0.71v-0.67v-6.33c0.33,0.1,0.66,0.19,1,0.25v13.81h-0.19c-0.17-1.14-1.15-2.02-2.33-2.02
			c-1.3,0-2.36,1.06-2.36,2.36c0,1.3,1.06,2.36,2.36,2.36c1.3,0,2.36-1.06,2.36-2.36h0.17v2.92H71.42l0,0h-0.43
			c0-0.03,0-0.05,0-0.08c0-0.78-0.63-1.41-1.41-1.41c-0.78,0-1.41,0.63-1.41,1.41c0,0.78,0.63,1.41,1.41,1.41
			c0.63,0,1.16-0.41,1.35-0.98h11.45c-0.07,3.7-2.54,6.81-5.91,7.86c-0.28-1.45-1.56-2.55-3.1-2.55c-1.75,0-3.16,1.41-3.16,3.16
			c0,1.75,1.42,3.16,3.16,3.16c1.75,0,3.16-1.41,3.16-3.16c0-0.1-0.01-0.19-0.01-0.28c3.53-1.07,6.12-4.33,6.19-8.19h0.14h0.25h0.56
			c0.37,0,0.67-0.29,0.67-0.65v-0.71v-0.67V96.63c0.1,0,0.19,0.01,0.29,0.01c0.08,0,0.16-0.01,0.24-0.01v24.56
			c-1.66,0.09-2.98,1.47-2.98,3.15c0,1.75,1.42,3.16,3.16,3.16c1.74,0,3.16-1.41,3.16-3.16c0-1.69-1.32-3.06-2.98-3.15V96.62
			c0.17-0.01,0.34-0.01,0.51-0.03v15.23v0.67v0.71c0,0.36,0.3,0.65,0.67,0.65h0.56h0.25h0.03c0.07,3.86,2.66,7.11,6.19,8.19
			c-0.01,0.09-0.01,0.19-0.01,0.28c0,1.75,1.42,3.16,3.16,3.16c1.75,0,3.16-1.41,3.16-3.16c0-1.75-1.41-3.16-3.16-3.16
			c-1.54,0-2.82,1.1-3.1,2.55c-3.37-1.05-5.84-4.17-5.91-7.86h11.58c0.09,0.7,0.68,1.24,1.4,1.24c0.78,0,1.41-0.63,1.41-1.41
			c0-0.78-0.63-1.41-1.41-1.41c-0.72,0-1.32,0.54-1.4,1.24h-0.51l0,0H87.55v-2.63h0.37c0.14,1.17,1.14,2.07,2.34,2.07
			c1.3,0,2.36-1.06,2.36-2.36c0-1.3-1.06-2.36-2.36-2.36c-0.08,0-0.16,0-0.23,0.01c-0.34,0.03-0.66,0.14-0.94,0.3
			c-0.69,0.4-1.17,1.14-1.18,2h-0.36V96.24c0.39-0.11,0.77-0.23,1.14-0.37v7.26v0.67v0.71c0,0.36,0.24,0.65,0.53,0.65h0.45h0.2h0.28
			c1.14,2.56,3.48,4.48,6.3,5.04h11.36c-0.3,0.4-0.49,0.89-0.49,1.42c0,1.3,1.06,2.36,2.36,2.36c1.04,0,1.92-0.68,2.23-1.62
			c0.84-0.36,1.43-1.2,1.43-2.17c0-1.3-1.06-2.36-2.36-2.36c-0.48,0-0.92,0.15-1.3,0.4V96.75c-0.6-3.04-2.79-5.53-5.67-6.55v-0.05
			v-0.22v-0.49c0-0.32-0.29-0.58-0.65-0.58h-0.71h-0.67h-6.73c0.1-0.33,0.19-0.66,0.26-1h14.21v0.19c-1.14,0.17-2.02,1.15-2.02,2.33
			c0,1.3,1.06,2.36,2.36,2.36c1.3,0,2.36-1.06,2.36-2.36c0-1.3-1.06-2.36-2.36-2.36v-0.17h2.92v10.97v0v0.43c-0.03,0-0.05,0-0.08,0
			c-0.78,0-1.41,0.63-1.41,1.41c0,0.78,0.63,1.41,1.41,1.41c0.78,0,1.41-0.63,1.41-1.41c0-0.63-0.41-1.16-0.98-1.35V87.87
			c3.7,0.07,6.81,2.54,7.86,5.91c-1.45,0.28-2.55,1.56-2.55,3.1c0,1.75,1.42,3.16,3.16,3.16c1.75,0,3.16-1.41,3.16-3.16
			c0-1.75-1.41-3.16-3.16-3.16c-0.1,0-0.19,0.01-0.28,0.01c-1.07-3.53-4.33-6.12-8.19-6.19v-0.14v-0.25V86.6
			c0-0.37-0.29-0.67-0.65-0.67h-0.71h-0.67H95.76c0.01-0.15,0.02-0.3,0.02-0.45c0-0.03,0-0.06,0-0.09h24.91
			C120.77,87.06,122.15,88.38,123.84,88.38z M59.22,84.43L59.22,84.43l-0.57,0h-0.15h-1.24c-0.17,0-0.31-0.14-0.31-0.31v-0.56h0.01
			v-0.38h2.92v0.07c0,0.37,0.29,0.67,0.65,0.67h0.71h0.67h11.66c-0.02,0.17-0.05,0.34-0.07,0.52H59.22z M59.6,87.57v0.11h-2.63
			v-0.27h-0.01v-0.56c0-0.17,0.14-0.31,0.31-0.31h1.24h0.15h0.57v0h14.29c0.01,0.13,0.03,0.25,0.05,0.37H61.63h-0.67h-0.71
			C59.89,86.9,59.6,87.2,59.6,87.57z M59.94,87.68v-0.11c0-0.17,0.14-0.31,0.31-0.31h1.24h0.15h0.57v0h11.41
			c0.02,0.14,0.04,0.29,0.07,0.43H59.94z M73.63,83.56H62.49v0h-0.57h-0.15h-1.24c-0.17,0-0.31-0.14-0.31-0.31v-0.07H73.7
			C73.67,83.3,73.66,83.43,73.63,83.56z M85.87,59.76L85.87,59.76l0-0.57v-0.15v-1.24c0-0.17,0.14-0.31,0.32-0.31h0.56v0.01h0.38
			v2.92h-0.07c-0.37,0-0.67,0.29-0.67,0.65v0.71v0.67v12.01c-0.17-0.03-0.34-0.06-0.52-0.08V59.76z M87.12,60.78v13.84
			c-0.13-0.03-0.26-0.06-0.39-0.09v-11.5l0,0v-0.57v-0.15v-1.24c0-0.17,0.14-0.31,0.32-0.31H87.12z M82.61,57.52h0.27v-0.01h0.56
			c0.17,0,0.32,0.14,0.32,0.31v1.24v0.15v0.57v0v14.6c-0.12,0.01-0.25,0.01-0.37,0.03V62.17v-0.67v-0.71c0-0.36-0.3-0.65-0.67-0.65
			h-0.11V57.52z M82.61,60.49h0.11c0.17,0,0.31,0.14,0.31,0.31v1.24v0.15v0.57l0,0v11.71c-0.14,0.02-0.29,0.04-0.43,0.07V60.49z
			 M80.17,66.21L80.17,66.21l0.45-0.01c0.14,0,0.25,0.14,0.25,0.31v1.24v0.15v0.57v0v6.53c-0.15,0.05-0.29,0.1-0.44,0.16v-5.77
			c0-1.12-0.21-2.18-0.6-3.16H80.17z M65.51,68.04c-1.75,0-3.16,1.41-3.16,3.16c0,1.75,1.41,3.16,3.16,3.16c0,0,0,0,0.01,0
			c0.13,0,0.26-0.01,0.38-0.02c0.02,0,0.03-0.01,0.05-0.01v5.84c-2.69-0.99-4.73-3.34-5.32-6.21V62.37c0.27-0.31,0.46-0.69,0.54-1.1
			c0.08-0.03,0.15-0.06,0.23-0.1h0.32v0h11.67c2.64,0.54,4.84,2.31,5.94,4.69h-5.08c-0.1-1.66-1.47-2.97-3.15-2.97
			c-1.75,0-3.16,1.41-3.16,3.16c0,1.75,1.41,3.16,3.16,3.16c1.69,0,3.07-1.33,3.16-3h5.24c0.4,0.98,0.62,2.04,0.62,3.16v5.91
			c-2.44,1.08-4.4,3-5.55,5.4h-5.73c-0.88,0-1.74-0.14-2.54-0.39v-6.03c1.36-0.35,2.37-1.58,2.37-3.06c0-1.04-0.5-1.95-1.27-2.53h0
			c0-0.01,0-0.03,0-0.04c0-0.09-0.19-0.12-0.18-0.2l-0.25-0.02c-0.13-0.07-0.26-0.13-0.4-0.18c-0.12-0.04-0.24-0.08-0.37-0.11
			C65.98,68.07,65.74,68.04,65.51,68.04z M68.54,81.54L68.54,81.54l-0.57,0h-0.15h-1.24c-0.17,0-0.31-0.12-0.31-0.27v-0.49h0.01
			v-0.15c0.8,0.25,1.65,0.38,2.54,0.38h5.57c-0.08,0.18-0.15,0.37-0.22,0.55L68.54,81.54z M65.66,89.68c0-0.14,0.14-0.25,0.31-0.25
			h1.24h0.15h0.57l0,0h6.27c0.06,0.15,0.1,0.3,0.16,0.44h-5.52c-1.12,0-2.18,0.21-3.16,0.6v-0.34h-0.01V89.68z M79.83,104.18H73.8
			c-0.35-1.36-1.58-2.37-3.06-2.37c-1.04,0-1.95,0.5-2.53,1.27v0c-0.01,0-0.03,0-0.04,0c-0.09,0-0.12,0.19-0.2,0.18l-0.02,0.25
			c-0.07,0.13-0.13,0.26-0.18,0.4c-0.04,0.12-0.08,0.24-0.11,0.37c-0.05,0.22-0.08,0.45-0.08,0.69c0,1.75,1.41,3.16,3.16,3.16
			c1.75,0,3.16-1.41,3.16-3.16c0,0,0,0,0-0.01c0-0.13-0.01-0.26-0.02-0.38c0-0.02-0.01-0.03-0.01-0.05h5.84
			c-0.99,2.69-3.34,4.73-6.21,5.32h-11.5c-0.33-0.36-0.78-0.62-1.28-0.72c-0.03-0.06-0.07-0.13-0.11-0.19v-0.36l0,0V96.91
			c0.54-2.64,2.31-4.84,4.69-5.94v5.08c-1.66,0.1-2.97,1.47-2.97,3.15c0,1.75,1.41,3.16,3.16,3.16c1.75,0,3.16-1.41,3.16-3.16
			c0-1.69-1.33-3.07-3-3.16v-5.23c0.98-0.4,2.04-0.62,3.16-0.62h5.68c1.16,2.48,3.19,4.48,5.72,5.56v5.9
			C80.22,102.53,80.09,103.38,79.83,104.18z M81.09,101.93L81.09,101.93l0,0.57v0.15v1.24c0,0.17-0.12,0.31-0.27,0.31h-0.49v-0.01
			h-0.15c0.25-0.8,0.38-1.65,0.38-2.54v-5.77c0.18,0.07,0.37,0.14,0.55,0.2L81.09,101.93z M83.97,111.25L83.97,111.25l0,0.57v0.15
			v1.24c0,0.17-0.14,0.31-0.32,0.31H83.1v-0.01h-0.38v-2.92h0.07c0.37,0,0.67-0.29,0.67-0.65v-0.71v-0.67V96.59
			c0.17,0.02,0.35,0.02,0.52,0.03V111.25z M82.71,110.24V96.47c0.13,0.02,0.26,0.04,0.39,0.06v11.45l0,0v0.57v0.15v1.24
			c0,0.17-0.14,0.31-0.31,0.31H82.71z M84.8,88.69l-0.5-1.47h-2.47l-0.52,1.47h-1.46l2.5-6.62h1.49l2.48,6.62H84.8z M87.23,113.5
			h-0.27v0.01h-0.56c-0.17,0-0.32-0.14-0.32-0.31v-1.24v-0.15v-0.57v0V96.54c0.12-0.02,0.25-0.04,0.37-0.06v12.36v0.67v0.71
			c0,0.36,0.3,0.65,0.67,0.65h0.11V113.5z M87.23,110.53h-0.11c-0.17,0-0.31-0.14-0.31-0.31v-1.24v-0.15v-0.57l0,0V96.43
			c0.14-0.03,0.28-0.07,0.43-0.1V110.53z M88.08,88.69h-1.45v-6.62h1.45V88.69z M104.3,81.04c0,0.14-0.14,0.25-0.31,0.25h-1.24
			h-0.15h-0.57l0,0l-7.09,0c-0.06-0.15-0.13-0.29-0.19-0.44h6.37c1.12,0,2.18-0.21,3.16-0.6v0.34h0.01V81.04z M90.01,66.83h6.03
			c0.35,1.36,1.58,2.37,3.06,2.37c1.04,0,1.95-0.5,2.53-1.27v0c0.01,0,0.03,0,0.04,0c0.09,0,0.12-0.19,0.2-0.18l0.02-0.25
			c0.07-0.13,0.13-0.26,0.18-0.4c0.04-0.12,0.08-0.24,0.11-0.37c0.05-0.22,0.08-0.45,0.08-0.69c0-1.75-1.41-3.16-3.16-3.16
			c-1.75,0-3.16,1.41-3.16,3.16c0,0,0,0,0,0.01c0,0.13,0.01,0.26,0.02,0.38c0,0.02,0.01,0.03,0.01,0.05h-5.84
			c0.99-2.69,3.33-4.73,6.21-5.32h11.67v0h0.28c0.2,0.15,0.43,0.27,0.67,0.35c0.08,0.27,0.21,0.51,0.38,0.73v11.56
			c-0.54,2.64-2.31,4.84-4.69,5.94v-5.08c1.66-0.1,2.97-1.47,2.97-3.15c0-1.75-1.42-3.16-3.16-3.16s-3.16,1.41-3.16,3.16
			c0,1.69,1.33,3.07,3,3.16v5.24c-0.98,0.4-2.04,0.62-3.16,0.62H94.6c-1.08-2.16-2.83-3.93-4.99-5.01v-6.15
			C89.61,68.49,89.75,67.63,90.01,66.83z M88.73,75.12l0.02-6.04l0,0v-0.57v-0.15v-1.24c0-0.17,0.12-0.31,0.27-0.31h0.49v0.01h0.15
			c-0.25,0.8-0.38,1.65-0.38,2.54v5.99C89.11,75.27,88.92,75.19,88.73,75.12z M89.67,104.81L89.67,104.81l-0.45,0.01
			c-0.14,0-0.25-0.14-0.25-0.31v-1.24v-0.15v-0.57l0,0v-6.79c0.15-0.06,0.29-0.14,0.44-0.21v6.09c0,1.12,0.21,2.18,0.6,3.16H89.67z
			 M104.45,102.67c1.75,0,3.16-1.41,3.16-3.16c0-1.75-1.42-3.16-3.16-3.16c0,0,0,0-0.01,0c-0.13,0-0.26,0.01-0.38,0.02
			c-0.02,0-0.03,0.01-0.05,0.01v-5.84c2.69,0.99,4.73,3.34,5.32,6.21v11.67l0,0v0.1c-0.27,0.26-0.48,0.59-0.59,0.95
			c-0.22,0.1-0.42,0.22-0.6,0.38h-0.01v0H96.45c-2.64-0.54-4.84-2.31-5.94-4.69h5.08c0.1,1.66,1.47,2.97,3.15,2.97
			c1.74,0,3.16-1.41,3.16-3.16c0-1.75-1.41-3.16-3.16-3.16c-1.69,0-3.07,1.33-3.16,3h-5.24c-0.4-0.98-0.62-2.04-0.62-3.16V95.4
			c2.24-1.16,4.04-3.05,5.07-5.36h6.33c0.88,0,1.74,0.14,2.54,0.39v6.03c-1.36,0.35-2.37,1.58-2.37,3.06c0,1.04,0.5,1.95,1.27,2.53
			h0c0,0.01,0,0.03,0,0.04c0,0.09,0.19,0.12,0.18,0.2l0.25,0.02c0.13,0.07,0.26,0.13,0.4,0.18c0.12,0.04,0.24,0.08,0.37,0.11
			C103.98,102.65,104.21,102.67,104.45,102.67z M101.42,89.17L101.42,89.17l0.57,0h0.15h1.24c0.17,0,0.31,0.12,0.31,0.27v0.49h-0.01
			v0.15c-0.8-0.25-1.65-0.38-2.54-0.38h-6.18c0.07-0.18,0.14-0.37,0.2-0.55L101.42,89.17z M110.36,83.14v-0.11h2.63v0.27h0.01v0.56
			c0,0.17-0.14,0.31-0.31,0.31h-1.24h-0.15h-0.57l0,0H95.7c-0.01-0.13-0.04-0.25-0.06-0.37h12.69h0.67h0.71
			C110.07,83.81,110.36,83.51,110.36,83.14z M95.5,83.03h14.52v0.11c0,0.17-0.14,0.31-0.31,0.31h-1.24h-0.15h-0.57v0H95.59
			C95.56,83.32,95.53,83.17,95.5,83.03z M109.72,87.54H95.58c0.02-0.13,0.04-0.26,0.06-0.39h11.83v0h0.57h0.15h1.24
			c0.17,0,0.31,0.14,0.31,0.31V87.54z M110.74,86.29L110.74,86.29l0.57,0h0.15h1.24c0.17,0,0.31,0.14,0.31,0.31v0.56h-0.01v0.38
			h-2.92v-0.07c0-0.37-0.29-0.67-0.65-0.67h-0.71h-0.67H95.69c0.02-0.17,0.03-0.35,0.04-0.52H110.74z"/>
	</g>
	<circle class="st0" cx="84.98" cy="85.51" r="7.54"/>
	<path class="st1" d="M169.48,84.99c-0.03-5.28-0.56-10.45-1.52-15.46c-0.07-0.35-0.12-0.7-0.19-1.04
		c-1.05-5.11-2.58-10.04-4.51-14.77c-0.13-0.33-0.25-0.66-0.39-0.99c-2.03-4.82-4.51-9.4-7.37-13.71c-0.19-0.29-0.38-0.59-0.58-0.89
		c-2.92-4.3-6.23-8.3-9.87-11.99c-0.25-0.25-0.5-0.5-0.75-0.75c-3.68-3.63-7.68-6.93-11.96-9.84c-0.29-0.2-0.59-0.38-0.89-0.58
		c-4.28-2.83-8.82-5.29-13.59-7.32c-0.32-0.14-0.66-0.26-0.98-0.39c-4.79-1.96-9.79-3.51-14.97-4.57c-0.34-0.07-0.7-0.12-1.04-0.19
		C95.89,1.56,90.76,1.04,85.5,1c-0.17,0-0.35-0.01-0.52-0.01C84.8,0.99,84.62,1,84.44,1c-5.32,0.03-10.52,0.57-15.56,1.54
		c-0.35,0.07-0.7,0.12-1.04,0.19c-5.12,1.06-10.06,2.59-14.8,4.54c-0.33,0.13-0.66,0.25-0.98,0.39c-4.79,2.03-9.34,4.5-13.63,7.35
		c-0.29,0.2-0.59,0.38-0.88,0.58c-4.25,2.89-8.21,6.16-11.86,9.75c-0.25,0.25-0.5,0.49-0.75,0.75c-3.66,3.7-6.99,7.73-9.92,12.05
		c-0.2,0.29-0.38,0.59-0.58,0.89c-2.84,4.29-5.31,8.85-7.33,13.64c-0.14,0.32-0.26,0.66-0.39,0.98c-1.93,4.73-3.46,9.66-4.51,14.76
		c-0.07,0.34-0.12,0.7-0.19,1.04c-0.97,5.03-1.5,10.22-1.53,15.53c0,0.17-0.01,0.35-0.01,0.52c0,0.18,0.01,0.36,0.01,0.54
		c0.03,5.33,0.57,10.54,1.55,15.6c0.07,0.35,0.12,0.7,0.2,1.04c1.06,5.1,2.59,10.03,4.52,14.75c0.13,0.33,0.25,0.66,0.39,0.98
		c2.05,4.83,4.55,9.42,7.42,13.75c0.2,0.29,0.39,0.59,0.59,0.88c2.89,4.23,6.15,8.18,9.73,11.81c0.25,0.25,0.5,0.5,0.75,0.75
		c3.66,3.62,7.65,6.91,11.92,9.82c0.29,0.2,0.59,0.39,0.88,0.58c4.32,2.86,8.91,5.35,13.73,7.39c0.32,0.14,0.66,0.26,0.99,0.39
		c4.72,1.93,9.65,3.45,14.74,4.51c0.34,0.07,0.7,0.12,1.04,0.19c5.03,0.97,10.21,1.5,15.51,1.53c0.18,0,0.36,0.01,0.54,0.01
		c0.18,0,0.35-0.01,0.52-0.01c5.22-0.03,10.33-0.55,15.3-1.49c0.35-0.07,0.7-0.12,1.04-0.19c5.18-1.05,10.18-2.6,14.98-4.55
		c0.33-0.13,0.66-0.25,0.99-0.39c4.78-2.02,9.33-4.49,13.62-7.32c0.29-0.19,0.6-0.38,0.89-0.58c4.28-2.91,8.28-6.2,11.95-9.82
		c0.25-0.25,0.5-0.49,0.75-0.75c3.62-3.66,6.91-7.65,9.82-11.91c0.2-0.29,0.39-0.59,0.59-0.88c2.86-4.3,5.34-8.87,7.38-13.67
		c0.14-0.32,0.26-0.66,0.39-0.98c1.96-4.77,3.5-9.74,4.56-14.9c0.07-0.34,0.12-0.7,0.19-1.04c0.97-5.02,1.5-10.2,1.53-15.49
		c0-0.18,0.01-0.36,0.01-0.54C169.5,85.33,169.48,85.16,169.48,84.99z M167.89,84.99h-4.03c-0.03-4.9-0.52-9.68-1.41-14.33
		l3.95-0.81C167.35,74.75,167.86,79.81,167.89,84.99z M157.04,114.91l-2.53-1.06c3.52-8.59,5.49-17.98,5.56-27.8h2.74
		C162.74,96.25,160.69,105.99,157.04,114.91z M140.29,140.21l-1.94-1.93c6.63-6.71,12.02-14.65,15.76-23.45l2.53,1.06
		C152.76,125.02,147.17,133.26,140.29,140.21z M115.21,157.24l-1.06-2.53c8.8-3.72,16.74-9.08,23.45-15.69l1.94,1.93
		C132.57,147.81,124.34,153.38,115.21,157.24z M85.5,163.33v-2.74c9.77-0.07,19.1-2.02,27.66-5.49l1.06,2.53
		C105.34,161.24,95.65,163.27,85.5,163.33z M55.67,157.6l1.04-2.54c8.57,3.5,17.93,5.46,27.73,5.53v2.74
		C74.27,163.26,64.57,161.23,55.67,157.6z M30.36,140.9l1.95-1.93c6.7,6.6,14.63,11.97,23.42,15.7l-1.04,2.54
		C45.56,153.34,37.32,147.77,30.36,140.9z M13.29,115.83l2.53-1.06c3.74,8.81,9.12,16.75,15.74,23.46l-1.95,1.93
		C22.74,133.2,17.16,124.96,13.29,115.83z M7.15,86.05h2.74c0.07,9.8,2.03,19.16,5.53,27.73l-2.53,1.06
		C9.26,105.94,7.22,96.22,7.15,86.05z M12.88,56.23l2.53,1.06c-3.49,8.57-5.44,17.91-5.51,27.71H7.15
		C7.22,74.82,9.25,65.12,12.88,56.23z M29.64,30.83l1.93,1.94C24.93,39.5,19.54,47.46,15.79,56.3l-2.53-1.06
		C17.15,46.07,22.75,37.81,29.64,30.83z M54.65,13.82l1.06,2.53c-8.77,3.73-16.69,9.08-23.39,15.68l-1.93-1.94
		C37.34,23.24,45.55,17.69,54.65,13.82z M84.44,7.68v2.74c-9.81,0.07-19.17,2.03-27.74,5.53l-1.06-2.53
		C64.54,9.79,74.26,7.75,84.44,7.68z M114.37,13.45l-1.04,2.54c-8.6-3.52-17.99-5.49-27.83-5.56V7.68
		C95.71,7.75,105.45,9.79,114.37,13.45z M156.72,55.31l-2.53,1.06c-3.75-8.86-9.15-16.86-15.82-23.61l1.95-1.93
		C147.24,37.83,152.84,46.12,156.72,55.31z M125.65,25.19c3.7,2.5,7.15,5.34,10.32,8.47l-4.79,4.74
		c-5.82-5.72-12.69-10.38-20.3-13.65l2.54-6.22c3.97,1.69,7.76,3.74,11.33,6.09C125.06,24.81,125.36,24.99,125.65,25.19z
		 M148.65,85.51c0,0.18-0.01,0.36-0.01,0.54c-0.07,8.27-1.72,16.16-4.67,23.4c-0.13,0.33-0.26,0.66-0.4,0.98
		c-3.17,7.43-7.7,14.13-13.29,19.8c-0.25,0.25-0.5,0.5-0.75,0.75c-5.68,5.57-12.38,10.1-19.8,13.25c-0.32,0.14-0.66,0.26-0.99,0.39
		c-7.19,2.91-15.03,4.54-23.24,4.61c-0.17,0-0.35,0.01-0.52,0.01c-0.18,0-0.36-0.01-0.54-0.01c-8.28-0.07-16.18-1.73-23.43-4.69
		c-0.33-0.13-0.66-0.26-0.98-0.4c-7.36-3.15-14-7.65-19.63-13.18c-0.25-0.25-0.5-0.5-0.75-0.75c-5.6-5.69-10.15-12.42-13.31-19.87
		c-0.14-0.32-0.26-0.66-0.39-0.98c-2.92-7.21-4.56-15.07-4.63-23.31c0-0.18-0.01-0.36-0.01-0.54c0-0.17,0.01-0.35,0.01-0.52
		c0.07-8.23,1.7-16.09,4.62-23.31c0.13-0.33,0.25-0.66,0.39-0.98c3.15-7.44,7.69-14.16,13.28-19.85c0.25-0.25,0.5-0.5,0.75-0.75
		c5.66-5.58,12.36-10.11,19.77-13.27c0.32-0.14,0.66-0.26,0.98-0.39c7.22-2.93,15.09-4.58,23.33-4.65c0.18,0,0.36-0.01,0.54-0.01
		c0.18,0,0.35,0.01,0.52,0.01c8.32,0.07,16.25,1.74,23.52,4.72c0.33,0.13,0.66,0.26,0.98,0.4c7.32,3.14,13.93,7.62,19.53,13.13
		c0.25,0.25,0.5,0.49,0.75,0.75c5.64,5.72,10.21,12.5,13.38,20.02c0.14,0.32,0.26,0.66,0.39,0.99c2.89,7.18,4.51,15.01,4.58,23.2
		C148.64,85.16,148.65,85.33,148.65,85.51z M131.94,39.15l4.79-4.74c6.46,6.54,11.69,14.28,15.32,22.87l-6.23,2.62
		C142.53,52.11,137.79,45.08,131.94,39.15z M109.91,24.35c-7.54-3.09-15.78-4.83-24.41-4.9v-6.71c9.53,0.07,18.62,1.98,26.95,5.39
		L109.91,24.35z M84.44,19.46c-8.56,0.07-16.74,1.78-24.23,4.83L57.6,18.1c8.3-3.38,17.35-5.28,26.84-5.35V19.46z M59.23,24.68
		c-7.69,3.28-14.64,7.98-20.51,13.77l-4.75-4.78c6.49-6.38,14.15-11.57,22.65-15.18L59.23,24.68z M37.97,39.2
		c-5.8,5.9-10.51,12.87-13.78,20.6l-6.24-2.61c3.62-8.55,8.84-16.26,15.27-22.77L37.97,39.2z M23.8,60.78
		c-3.03,7.49-4.73,15.65-4.8,24.2h-6.77c0.07-9.47,1.96-18.52,5.33-26.81L23.8,60.78z M19,86.05c0.07,8.55,1.77,16.72,4.81,24.21
		l-6.24,2.62c-3.38-8.3-5.28-17.35-5.35-26.83H19z M24.2,111.24c3.28,7.73,8,14.71,13.8,20.61l-4.79,4.74
		c-6.42-6.5-11.63-14.2-15.25-22.73L24.2,111.24z M38.75,132.6c5.85,5.75,12.75,10.43,20.4,13.7l-2.54,6.22
		c-8.5-3.61-16.16-8.8-22.65-15.18L38.75,132.6z M60.13,146.7c7.52,3.07,15.72,4.79,24.31,4.86v6.71
		c-9.49-0.07-18.55-1.97-26.85-5.35L60.13,146.7z M85.5,151.56c8.53-0.07,16.67-1.77,24.15-4.79l2.61,6.19
		c-8.28,3.36-17.3,5.24-26.75,5.31V151.56z M110.63,146.38c7.71-3.27,14.66-7.97,20.55-13.75l4.77,4.76
		c-6.5,6.39-14.19,11.58-22.71,15.19L110.63,146.38z M131.93,131.88c5.8-5.88,10.51-12.84,13.79-20.55l6.24,2.61
		c-3.63,8.52-8.84,16.21-15.26,22.7L131.93,131.88z M146.12,110.35c3.06-7.52,4.78-15.71,4.85-24.3h6.77
		c-0.07,9.51-1.98,18.59-5.38,26.91L146.12,110.35z M150.96,84.99c-0.07-8.51-1.75-16.64-4.76-24.1l6.24-2.62
		c3.35,8.27,5.23,17.28,5.3,26.73H150.96z M137.63,32.02c-3.27-3.22-6.83-6.15-10.65-8.74l1.56-2.25c3.95,2.68,7.64,5.72,11.03,9.06
		L137.63,32.02z M126.09,22.71c-3.71-2.44-7.65-4.57-11.78-6.33l1.04-2.54c4.32,1.84,8.43,4.06,12.3,6.62L126.09,22.71z
		 M160.07,84.99c-0.07-9.76-2.01-19.08-5.48-27.63l2.53-1.06c3.61,8.87,5.63,18.55,5.7,28.69H160.07z M166.22,68.8l-3.95,0.81
		c-0.97-4.75-2.39-9.33-4.18-13.73l3.71-1.56C163.69,58.96,165.19,63.79,166.22,68.8z M161.41,53.34l-3.71,1.56
		c-1.9-4.5-4.22-8.78-6.89-12.81l3.37-2.21C156.98,44.12,159.42,48.61,161.41,53.34z M153.6,39l-3.37,2.21
		c-2.71-3.98-5.78-7.7-9.15-11.11l2.86-2.83C147.5,30.86,150.74,34.79,153.6,39z M143.19,26.51l-2.86,2.84
		c-3.44-3.39-7.17-6.47-11.18-9.18l2.3-3.31C135.65,19.71,139.58,22.95,143.19,26.51z M130.56,16.28l-2.3,3.31
		c-3.94-2.6-8.12-4.86-12.51-6.73l1.53-3.73C121.94,11.11,126.38,13.51,130.56,16.28z M116.29,8.74l-1.53,3.73
		c-4.46-1.82-9.11-3.27-13.92-4.25l0.77-3.95C106.7,5.3,111.6,6.81,116.29,8.74z M100.58,4.07L99.8,8.02
		c-4.64-0.89-9.42-1.37-14.3-1.4V2.59C90.65,2.62,95.69,3.14,100.58,4.07z M84.44,2.59v4.03c-4.91,0.03-9.72,0.52-14.39,1.42
		L69.21,4.1C74.15,3.15,79.24,2.63,84.44,2.59z M68.17,4.29l0.84,3.94c-4.77,0.98-9.38,2.41-13.79,4.22l-1.56-3.71
		C58.3,6.84,63.15,5.33,68.17,4.29z M52.67,9.13l1.56,3.71c-4.43,1.88-8.65,4.17-12.63,6.8l-2.28-3.32
		C43.53,13.54,47.99,11.12,52.67,9.13z M38.44,16.9l2.28,3.32c-3.97,2.7-7.67,5.75-11.08,9.11l-2.84-2.86
		C30.39,22.95,34.28,19.74,38.44,16.9z M26.06,27.22l2.84,2.86c-3.38,3.42-6.46,7.15-9.17,11.14l-3.38-2.2
		C19.22,34.79,22.47,30.84,26.06,27.22z M15.77,39.9l3.37,2.2c-2.65,4.01-4.96,8.26-6.85,12.73l-3.72-1.55
		C10.56,48.58,12.98,44.11,15.77,39.9z M8.18,54.27l3.72,1.55c-1.8,4.41-3.22,9-4.2,13.76l-3.94-0.83
		C4.79,63.74,6.29,58.9,8.18,54.27z M3.56,69.79l3.94,0.83c-0.89,4.66-1.38,9.46-1.42,14.37H2.06C2.1,79.79,2.61,74.72,3.56,69.79z
		 M2.06,86.05h4.03c0.03,4.91,0.52,9.71,1.42,14.37l-3.94,0.88C2.62,96.35,2.1,91.26,2.06,86.05z M3.77,102.34l3.93-0.88
		c0.98,4.77,2.41,9.38,4.22,13.8l-3.71,1.56C6.31,112.18,4.81,107.34,3.77,102.34z M8.6,117.8l3.71-1.56
		c1.88,4.42,4.16,8.63,6.78,12.59l-3.25,2.39C13.03,127,10.6,122.51,8.6,117.8z M16.42,132.1l3.26-2.39c2.72,4,5.8,7.75,9.19,11.19
		L26,143.74C22.47,140.16,19.26,136.27,16.42,132.1z M26.75,144.48l2.86-2.84c3.42,3.38,7.15,6.45,11.14,9.16l-2.3,3.31
		C34.26,151.26,30.35,148.04,26.75,144.48z M39.34,154.7l2.3-3.31c3.98,2.63,8.21,4.92,12.65,6.8l-1.53,3.73
		C48.05,159.93,43.56,157.49,39.34,154.7z M53.75,162.31l1.52-3.73c4.42,1.8,9.03,3.23,13.8,4.21l-0.85,3.94
		C63.22,165.7,58.38,164.2,53.75,162.31z M69.27,166.92l0.85-3.94c4.65,0.89,9.43,1.38,14.32,1.41v4.03
		C79.26,168.39,74.19,167.87,69.27,166.92z M85.5,168.42v-4.03c4.91-0.03,9.71-0.52,14.37-1.41l0.67,3.97
		C95.66,167.88,90.64,168.39,85.5,168.42z M101.58,166.77l-0.67-3.98c4.75-0.98,9.33-2.4,13.73-4.19l1.56,3.71
		C111.52,164.22,106.63,165.73,101.58,166.77z M117.18,161.93l-1.56-3.71c4.43-1.87,8.64-4.15,12.62-6.77l2.28,3.32
		C126.32,157.53,121.87,159.95,117.18,161.93z M131.41,154.19l-2.28-3.32c4-2.71,7.73-5.78,11.16-9.16l2.85,2.84
		C139.53,148.1,135.61,151.34,131.41,154.19z M143.89,143.81l-2.85-2.84c3.38-3.42,6.45-7.14,9.17-11.12l3.32,2.28
		C150.67,136.3,147.44,140.21,143.89,143.81z M154.12,131.23l-3.32-2.28c2.64-3.99,4.94-8.22,6.83-12.66l3.72,1.55
		C159.34,122.55,156.91,127.02,154.12,131.23z M161.73,116.86l-3.72-1.55c1.82-4.45,3.24-9.1,4.23-13.9l3.96,0.85
		C165.17,107.31,163.65,112.19,161.73,116.86z M166.4,101.21l-3.95-0.84c0.89-4.65,1.39-9.43,1.42-14.32h4.03
		C167.86,91.23,167.34,96.29,166.4,101.21z"/>
</g>
</svg>
