<?xml version="1.0" encoding="utf-8"?>
<!-- Generator: Adobe Illustrator 23.0.1, SVG Export Plug-In . SVG Version: 6.00 Build 0)  -->
<svg version="1.1" id="Layer_1" xmlns="http://www.w3.org/2000/svg" xmlns:xlink="http://www.w3.org/1999/xlink" x="0px" y="0px"
	 viewBox="0 0 170 170" style="enable-background:new 0 0 170 170;" xml:space="preserve">
<style type="text/css">
	.st0{fill:#928573;}
	.st1{fill:#C7B299;}
</style>
<g>
	<path class="st0" d="M169.25,84.43c-0.03-5.28-0.56-10.45-1.52-15.46c-0.07-0.35-0.12-0.7-0.19-1.04
		c-1.05-5.11-2.58-10.04-4.51-14.77c-0.13-0.33-0.25-0.66-0.39-0.99c-2.03-4.82-4.51-9.4-7.37-13.71c-0.19-0.29-0.38-0.59-0.58-0.89
		c-2.92-4.3-6.23-8.3-9.87-11.99c-0.25-0.25-0.5-0.5-0.75-0.75c-3.68-3.63-7.68-6.93-11.96-9.84c-0.29-0.2-0.59-0.38-0.89-0.58
		c-4.28-2.83-8.82-5.29-13.59-7.32c-0.32-0.14-0.66-0.26-0.98-0.39c-4.79-1.96-9.79-3.51-14.97-4.57c-0.34-0.07-0.7-0.12-1.04-0.19
		C95.66,1,90.52,0.48,85.27,0.45c-0.17,0-0.35-0.01-0.52-0.01c-0.18,0-0.36,0.01-0.54,0.01c-5.32,0.03-10.52,0.57-15.56,1.54
		c-0.35,0.07-0.7,0.12-1.04,0.19c-5.12,1.06-10.06,2.59-14.8,4.54c-0.33,0.13-0.66,0.25-0.98,0.39c-4.79,2.03-9.34,4.5-13.63,7.35
		c-0.29,0.2-0.59,0.38-0.88,0.58c-4.25,2.89-8.21,6.16-11.86,9.75c-0.25,0.25-0.5,0.49-0.75,0.75c-3.66,3.7-6.99,7.73-9.92,12.05
		c-0.2,0.29-0.38,0.59-0.58,0.89c-2.84,4.29-5.31,8.85-7.33,13.64c-0.14,0.32-0.26,0.66-0.39,0.98c-1.93,4.73-3.46,9.66-4.51,14.76
		c-0.07,0.34-0.12,0.7-0.19,1.04c-0.97,5.03-1.5,10.22-1.53,15.53c0,0.17-0.01,0.35-0.01,0.52c0,0.18,0.01,0.36,0.01,0.54
		c0.03,5.33,0.57,10.54,1.55,15.6c0.07,0.35,0.12,0.7,0.2,1.04c1.06,5.1,2.59,10.03,4.52,14.75c0.13,0.33,0.25,0.66,0.39,0.98
		c2.05,4.83,4.55,9.42,7.42,13.75c0.2,0.29,0.39,0.59,0.59,0.88c2.89,4.23,6.15,8.18,9.73,11.81c0.25,0.25,0.5,0.5,0.75,0.75
		c3.66,3.62,7.65,6.91,11.92,9.82c0.29,0.2,0.59,0.39,0.88,0.58c4.32,2.86,8.91,5.35,13.73,7.39c0.32,0.14,0.66,0.26,0.99,0.39
		c4.72,1.93,9.65,3.45,14.74,4.51c0.34,0.07,0.7,0.12,1.04,0.19c5.03,0.97,10.21,1.5,15.51,1.53c0.18,0,0.36,0.01,0.54,0.01
		c0.18,0,0.35-0.01,0.52-0.01c5.22-0.03,10.33-0.55,15.3-1.49c0.35-0.07,0.7-0.12,1.04-0.19c5.18-1.05,10.18-2.6,14.98-4.55
		c0.33-0.13,0.66-0.25,0.99-0.39c4.78-2.02,9.33-4.49,13.62-7.32c0.29-0.19,0.6-0.38,0.89-0.58c4.28-2.91,8.28-6.2,11.95-9.82
		c0.25-0.25,0.5-0.49,0.75-0.75c3.62-3.66,6.91-7.65,9.82-11.91c0.2-0.29,0.39-0.59,0.59-0.88c2.86-4.3,5.34-8.87,7.38-13.67
		c0.14-0.32,0.26-0.66,0.39-0.98c1.96-4.77,3.5-9.74,4.56-14.9c0.07-0.34,0.12-0.7,0.19-1.04c0.97-5.02,1.5-10.2,1.53-15.49
		c0-0.18,0.01-0.36,0.01-0.54C169.26,84.78,169.25,84.61,169.25,84.43z M167.66,84.43h-4.03c-0.03-4.9-0.52-9.68-1.41-14.33
		l3.95-0.81C167.11,74.2,167.63,79.26,167.66,84.43z M156.8,114.35l-2.53-1.06c3.52-8.59,5.49-17.98,5.56-27.8h2.74
		C162.5,95.69,160.46,105.43,156.8,114.35z M140.06,139.66l-1.94-1.93c6.63-6.71,12.02-14.65,15.76-23.45l2.53,1.06
		C152.52,124.47,146.94,132.7,140.06,139.66z M114.97,156.68l-1.06-2.53c8.8-3.72,16.74-9.08,23.45-15.69l1.94,1.93
		C132.34,147.26,124.1,152.82,114.97,156.68z M85.27,162.78v-2.74c9.77-0.07,19.1-2.02,27.66-5.49l1.06,2.53
		C105.11,160.69,95.42,162.71,85.27,162.78z M55.44,157.05l1.04-2.54c8.57,3.5,17.93,5.46,27.73,5.53v2.74
		C74.04,162.71,64.33,160.68,55.44,157.05z M30.13,140.35l1.95-1.93c6.7,6.6,14.63,11.97,23.42,15.7l-1.04,2.54
		C45.32,152.79,37.09,147.21,30.13,140.35z M13.05,115.27l2.53-1.06c3.74,8.81,9.12,16.75,15.74,23.46l-1.95,1.93
		C22.51,132.64,16.93,124.4,13.05,115.27z M6.92,85.49h2.74c0.07,9.8,2.03,19.16,5.53,27.73l-2.53,1.06
		C9.03,105.39,6.99,95.67,6.92,85.49z M12.64,55.67l2.53,1.06c-3.49,8.57-5.44,17.91-5.51,27.71H6.92
		C6.98,74.27,9.02,64.57,12.64,55.67z M29.41,30.27l1.93,1.94C24.7,38.94,19.3,46.91,15.56,55.74l-2.53-1.06
		C16.91,45.52,22.51,37.25,29.41,30.27z M54.42,13.27l1.06,2.53c-8.77,3.73-16.69,9.08-23.39,15.68l-1.93-1.94
		C37.1,22.69,45.31,17.13,54.42,13.27z M84.21,7.13v2.74C74.4,9.94,65.04,11.9,56.46,15.4l-1.06-2.53
		C64.31,9.24,74.02,7.2,84.21,7.13z M114.13,12.89l-1.04,2.54c-8.6-3.52-17.99-5.49-27.83-5.56V7.13
		C95.47,7.19,105.21,9.24,114.13,12.89z M156.49,54.76l-2.53,1.06c-3.75-8.86-9.15-16.86-15.82-23.61l1.95-1.93
		C147,37.28,152.6,45.57,156.49,54.76z M125.42,24.64c3.7,2.5,7.15,5.34,10.32,8.47l-4.79,4.74c-5.82-5.72-12.69-10.38-20.3-13.65
		l2.54-6.22c3.97,1.69,7.76,3.74,11.33,6.09C124.82,24.26,125.12,24.44,125.42,24.64z M148.41,84.95c0,0.18-0.01,0.36-0.01,0.54
		c-0.07,8.27-1.72,16.16-4.67,23.4c-0.13,0.33-0.26,0.66-0.4,0.98c-3.17,7.43-7.7,14.13-13.29,19.8c-0.25,0.25-0.5,0.5-0.75,0.75
		c-5.68,5.57-12.38,10.1-19.8,13.25c-0.32,0.14-0.66,0.26-0.99,0.39c-7.19,2.91-15.03,4.54-23.24,4.61c-0.17,0-0.35,0.01-0.52,0.01
		c-0.18,0-0.36-0.01-0.54-0.01c-8.28-0.07-16.18-1.73-23.43-4.69c-0.33-0.13-0.66-0.26-0.98-0.4c-7.36-3.15-14-7.65-19.63-13.18
		c-0.25-0.25-0.5-0.5-0.75-0.75c-5.6-5.69-10.15-12.42-13.31-19.87c-0.14-0.32-0.26-0.66-0.39-0.98
		c-2.92-7.21-4.56-15.07-4.63-23.31c0-0.18-0.01-0.36-0.01-0.54c0-0.17,0.01-0.35,0.01-0.52c0.07-8.23,1.7-16.09,4.62-23.31
		c0.13-0.33,0.25-0.66,0.39-0.98c3.15-7.44,7.69-14.16,13.28-19.85c0.25-0.25,0.5-0.5,0.75-0.75c5.66-5.58,12.36-10.11,19.77-13.27
		c0.32-0.14,0.66-0.26,0.98-0.39c7.22-2.93,15.09-4.58,23.33-4.65c0.18,0,0.36-0.01,0.54-0.01c0.18,0,0.35,0.01,0.52,0.01
		c8.32,0.07,16.25,1.74,23.52,4.72c0.33,0.13,0.66,0.26,0.98,0.4c7.32,3.14,13.93,7.62,19.53,13.13c0.25,0.25,0.5,0.49,0.75,0.75
		c5.64,5.72,10.21,12.5,13.38,20.02c0.14,0.32,0.26,0.66,0.39,0.99c2.89,7.18,4.51,15.01,4.58,23.2
		C148.4,84.61,148.41,84.78,148.41,84.95z M131.7,38.59l4.79-4.74c6.46,6.54,11.69,14.28,15.32,22.87l-6.23,2.62
		C142.29,51.55,137.55,44.53,131.7,38.59z M109.67,23.8c-7.54-3.09-15.78-4.83-24.41-4.9V12.2c9.53,0.07,18.62,1.98,26.95,5.39
		L109.67,23.8z M84.21,18.9c-8.56,0.07-16.74,1.78-24.23,4.83l-2.61-6.19c8.3-3.38,17.35-5.28,26.84-5.35V18.9z M58.99,24.13
		c-7.69,3.28-14.64,7.98-20.51,13.77l-4.75-4.78c6.49-6.38,14.15-11.57,22.65-15.18L58.99,24.13z M37.73,38.65
		c-5.8,5.9-10.51,12.87-13.78,20.6l-6.24-2.61c3.62-8.55,8.84-16.26,15.27-22.77L37.73,38.65z M23.56,60.23
		c-3.03,7.49-4.73,15.65-4.8,24.2h-6.77c0.07-9.47,1.96-18.52,5.33-26.81L23.56,60.23z M18.76,85.49
		c0.07,8.55,1.77,16.72,4.81,24.21l-6.24,2.62c-3.38-8.3-5.28-17.35-5.35-26.83H18.76z M23.96,110.69c3.28,7.73,8,14.71,13.8,20.61
		l-4.79,4.74c-6.42-6.5-11.63-14.2-15.25-22.73L23.96,110.69z M38.51,132.04c5.85,5.75,12.75,10.43,20.4,13.7l-2.54,6.22
		c-8.5-3.61-16.16-8.8-22.65-15.18L38.51,132.04z M59.9,146.14c7.52,3.07,15.72,4.79,24.31,4.86v6.71
		c-9.49-0.07-18.55-1.97-26.85-5.35L59.9,146.14z M85.27,151c8.53-0.07,16.67-1.77,24.15-4.79l2.61,6.19
		c-8.28,3.36-17.3,5.24-26.75,5.31V151z M110.4,145.82c7.71-3.27,14.66-7.97,20.55-13.75l4.77,4.76
		c-6.5,6.39-14.19,11.58-22.71,15.19L110.4,145.82z M131.7,131.32c5.8-5.88,10.51-12.84,13.79-20.55l6.24,2.61
		c-3.63,8.52-8.84,16.21-15.26,22.7L131.7,131.32z M145.88,109.79c3.06-7.52,4.78-15.71,4.85-24.3h6.77
		c-0.07,9.51-1.98,18.59-5.38,26.91L145.88,109.79z M150.73,84.43c-0.07-8.51-1.75-16.64-4.76-24.1l6.24-2.62
		c3.35,8.27,5.23,17.28,5.3,26.73H150.73z M137.39,31.47c-3.27-3.22-6.83-6.15-10.65-8.74l1.56-2.25c3.95,2.68,7.64,5.72,11.03,9.06
		L137.39,31.47z M125.86,22.15c-3.71-2.44-7.65-4.57-11.78-6.33l1.04-2.54c4.32,1.84,8.43,4.06,12.3,6.62L125.86,22.15z
		 M159.83,84.43c-0.07-9.76-2.01-19.08-5.48-27.63l2.53-1.06c3.61,8.87,5.63,18.55,5.7,28.69H159.83z M165.98,68.25l-3.95,0.81
		c-0.97-4.75-2.39-9.33-4.18-13.73l3.71-1.56C163.46,58.41,164.95,63.24,165.98,68.25z M161.18,52.79l-3.71,1.56
		c-1.9-4.5-4.22-8.78-6.89-12.81l3.37-2.21C156.75,43.56,159.18,48.06,161.18,52.79z M153.37,38.44L150,40.65
		c-2.71-3.98-5.78-7.7-9.15-11.11l2.86-2.83C147.27,30.31,150.51,34.24,153.37,38.44z M142.95,25.96l-2.86,2.84
		c-3.44-3.39-7.17-6.47-11.18-9.18l2.3-3.31C135.42,19.16,139.34,22.4,142.95,25.96z M130.32,15.72l-2.3,3.31
		c-3.94-2.6-8.12-4.86-12.51-6.73l1.53-3.73C121.71,10.55,126.14,12.96,130.32,15.72z M116.06,8.18l-1.53,3.73
		c-4.46-1.82-9.11-3.27-13.92-4.25l0.77-3.95C106.46,4.74,111.36,6.26,116.06,8.18z M100.34,3.52l-0.77,3.95
		c-4.64-0.89-9.42-1.37-14.3-1.4V2.04C90.42,2.07,95.45,2.58,100.34,3.52z M84.21,2.04v4.03c-4.91,0.03-9.72,0.52-14.39,1.42
		l-0.84-3.94C73.91,2.59,79,2.07,84.21,2.04z M67.94,3.74l0.84,3.94c-4.77,0.98-9.38,2.41-13.79,4.22l-1.56-3.71
		C58.07,6.28,62.92,4.78,67.94,3.74z M52.44,8.58L54,12.29c-4.43,1.88-8.65,4.17-12.63,6.8l-2.28-3.32
		C43.29,12.99,47.75,10.57,52.44,8.58z M38.21,16.35l2.28,3.32c-3.97,2.7-7.67,5.75-11.08,9.11l-2.84-2.86
		C30.15,22.4,34.04,19.19,38.21,16.35z M25.82,26.67l2.84,2.86c-3.38,3.42-6.46,7.15-9.17,11.14l-3.38-2.2
		C18.98,34.23,22.24,30.29,25.82,26.67z M15.53,39.35l3.37,2.2c-2.65,4.01-4.96,8.26-6.85,12.73l-3.72-1.55
		C10.32,48.03,12.75,43.56,15.53,39.35z M7.95,53.71l3.72,1.55c-1.8,4.41-3.22,9-4.2,13.76l-3.94-0.83
		C4.55,63.18,6.05,58.35,7.95,53.71z M3.33,69.23l3.94,0.83c-0.89,4.66-1.38,9.46-1.42,14.37H1.83C1.86,79.24,2.38,74.16,3.33,69.23
		z M1.83,85.49h4.03c0.03,4.91,0.52,9.71,1.42,14.37l-3.94,0.88C2.38,95.8,1.86,90.7,1.83,85.49z M3.53,101.78l3.93-0.88
		c0.98,4.77,2.41,9.38,4.22,13.8l-3.71,1.56C6.07,111.63,4.57,106.79,3.53,101.78z M8.36,117.25l3.71-1.56
		c1.88,4.42,4.16,8.63,6.78,12.59l-3.25,2.39C12.8,126.44,10.36,121.96,8.36,117.25z M16.19,131.55l3.26-2.39
		c2.72,4,5.8,7.75,9.19,11.19l-2.86,2.83C22.24,139.61,19.02,135.72,16.19,131.55z M26.51,143.93l2.86-2.84
		c3.42,3.38,7.15,6.45,11.14,9.16l-2.3,3.31C34.03,150.71,30.11,147.48,26.51,143.93z M39.1,154.14l2.3-3.31
		c3.98,2.63,8.21,4.92,12.65,6.8l-1.53,3.73C47.81,159.37,43.33,156.94,39.1,154.14z M53.51,161.76l1.52-3.73
		c4.42,1.8,9.03,3.23,13.8,4.21l-0.85,3.94C62.98,165.15,58.15,163.65,53.51,161.76z M69.03,166.37l0.85-3.94
		c4.65,0.89,9.43,1.38,14.32,1.41v4.03C79.02,167.84,73.95,167.32,69.03,166.37z M85.27,167.87v-4.03
		c4.91-0.03,9.71-0.52,14.37-1.41l0.67,3.97C95.42,167.33,90.4,167.84,85.27,167.87z M101.34,166.21l-0.67-3.98
		c4.75-0.98,9.33-2.4,13.73-4.19l1.56,3.71C111.28,163.67,106.4,165.18,101.34,166.21z M116.95,161.37l-1.56-3.71
		c4.43-1.87,8.64-4.15,12.62-6.77l2.28,3.32C126.09,156.98,121.63,159.39,116.95,161.37z M131.17,153.63l-2.28-3.32
		c4-2.71,7.73-5.78,11.16-9.16l2.85,2.84C139.3,147.55,135.38,150.78,131.17,153.63z M143.66,143.25l-2.85-2.84
		c3.38-3.42,6.45-7.14,9.17-11.12l3.32,2.28C150.44,135.75,147.21,139.66,143.66,143.25z M153.88,130.68l-3.32-2.28
		c2.64-3.99,4.94-8.22,6.83-12.66l3.72,1.55C159.11,122,156.68,126.47,153.88,130.68z M161.5,116.31l-3.72-1.55
		c1.82-4.45,3.24-9.1,4.23-13.9l3.96,0.85C164.93,106.76,163.42,111.64,161.5,116.31z M166.16,100.66l-3.95-0.84
		c0.89-4.65,1.39-9.43,1.42-14.32h4.03C167.63,90.67,167.11,95.74,166.16,100.66z"/>
	<g>
		<path class="st1" d="M103.03,63.1L89.45,50.23l-0.63,0.38l5.34,17.93l13.59,12.87l0.63-0.38L103.03,63.1z M102.41,63.48
			l4.94,16.57L94.79,68.16l-4.94-16.57L102.41,63.48z"/>
		<path class="st1" d="M86.71,69.68l-18.68-1.1l-0.23,0.7l15.64,10.28l18.68,1.1l0.23-0.7L86.71,69.68z M86.48,70.38l14.45,9.5
			l-17.26-1.01l-14.45-9.5L86.48,70.38z"/>
		<path class="st1" d="M79.19,80.21l-18.08,4.84v0.74l18.08,4.84l18.08-4.84v-0.74L79.19,80.21z M79.19,80.94l16.7,4.47l-16.7,4.47
			l-16.7-4.47L79.19,80.94z"/>
		<path class="st1" d="M79.19,93.42l-18.08-4.85v-0.93l18.08,4.84l18.08-4.84v0.93L79.19,93.42z"/>
		<path class="st1" d="M79.19,96.19l-18.08-4.84v-1.12l18.08,4.84l18.08-4.84v1.12L79.19,96.19z"/>
		<path class="st1" d="M79.19,98.98l-18.08-4.84v-1.31l18.08,4.85l18.08-4.85v1.31L79.19,98.98z"/>
		<path class="st1" d="M79.19,101.76l-18.08-4.84v-1.48l18.08,4.84l18.08-4.84v1.48L79.19,101.76z"/>
		<path class="st1" d="M79.19,104.54L61.11,99.7v-1.66l18.08,4.84l18.08-4.84v1.66L79.19,104.54z"/>
		<path class="st1" d="M79.19,107.34l-18.08-4.85v-1.85l18.08,4.84l18.08-4.84v1.85L79.19,107.34z"/>
		<path class="st1" d="M79.19,110.11l-18.08-4.84v-2.04l18.08,4.84l18.08-4.84v2.04L79.19,110.11z"/>
		<path class="st1" d="M79.19,112.9l-18.08-4.84v-2.23l18.08,4.85l18.08-4.85v2.23L79.19,112.9z"/>
		<path class="st1" d="M61.11,108.43v2.41l18.08,4.84l18.08-4.84v-2.41l-18.08,4.84L61.11,108.43z"/>
	</g>
</g>
</svg>
