<?xml version="1.0" encoding="utf-8"?>
<!-- Generator: Adobe Illustrator 23.0.1, SVG Export Plug-In . SVG Version: 6.00 Build 0)  -->
<svg version="1.1" id="Layer_1" xmlns="http://www.w3.org/2000/svg" xmlns:xlink="http://www.w3.org/1999/xlink" x="0px" y="0px"
	 viewBox="0 0 60 60" style="enable-background:new 0 0 60 60;" xml:space="preserve">
<style type="text/css">
	.st0{fill:#FFFFFF;}
	.st1{fill:#948773;}
	.st2{fill:#948773;stroke:#938673;stroke-width:0.25;stroke-miterlimit:10;}
</style>
<g>
	<g>
		<g>
			<path class="st0" d="M14.44,22.06c-4.8,0-8.7-3.8-8.69-8.46s3.91-8.45,8.71-8.44s8.7,3.8,8.69,8.46
				C23.15,18.27,19.24,22.06,14.44,22.06z M14.46,6.22c-4.19,0-7.61,3.31-7.61,7.38c0,4.07,3.41,7.39,7.6,7.39
				c4.19,0,7.61-3.31,7.61-7.38S18.65,6.22,14.46,6.22z"/>
		</g>
		<g>
			<path class="st0" d="M15.64,12.74c0.36-0.04,0.6-0.19,0.73-0.44c0.07-0.14,0.1-0.33,0.11-0.59c0-0.52-0.19-0.9-0.57-1.14
				c-0.38-0.24-0.93-0.35-1.63-0.35c-0.82,0-1.4,0.21-1.74,0.65c-0.19,0.24-0.32,0.59-0.38,1.07l-1.47,0
				c0.03-1.12,0.4-1.9,1.12-2.34c0.72-0.44,1.55-0.66,2.5-0.66c1.1,0,1.99,0.21,2.68,0.61c0.68,0.41,1.02,1.04,1.02,1.9l0,5.24
				c0,0.16,0.03,0.29,0.1,0.38c0.07,0.1,0.21,0.14,0.42,0.14c0.07,0,0.15,0,0.24-0.01c0.09-0.01,0.18-0.02,0.28-0.04l0,1.13
				c-0.24,0.07-0.43,0.11-0.56,0.13c-0.13,0.02-0.3,0.02-0.52,0.02c-0.54,0-0.93-0.19-1.18-0.56c-0.13-0.2-0.22-0.48-0.27-0.84
				c-0.32,0.41-0.78,0.76-1.38,1.06c-0.6,0.3-1.26,0.45-1.98,0.45c-0.87,0-1.58-0.26-2.13-0.77c-0.55-0.51-0.82-1.15-0.82-1.92
				c0-0.84,0.27-1.49,0.81-1.96c0.54-0.46,1.25-0.75,2.13-0.85L15.64,12.74z M12.33,16.86c0.33,0.25,0.72,0.38,1.18,0.38
				c0.55,0,1.09-0.12,1.61-0.37c0.87-0.41,1.31-1.09,1.31-2.02l0-1.23c-0.19,0.12-0.44,0.22-0.74,0.3c-0.3,0.08-0.6,0.14-0.89,0.17
				l-0.95,0.12c-0.57,0.07-1,0.19-1.29,0.35c-0.49,0.26-0.73,0.69-0.73,1.27C11.83,16.26,12,16.61,12.33,16.86z"/>
		</g>
	</g>
	<g>
		<path class="st1" d="M29.66,9.34c-2.42,0-4.76,0.35-6.96,1c0.18,0.29,0.35,0.6,0.49,0.91c2.06-0.58,4.22-0.91,6.47-0.91
			c12.7,0.01,23.03,10.06,23.02,22.39C52.67,45.08,42.32,55.1,29.62,55.09S6.59,45.04,6.6,32.7c0-4.31,1.29-8.32,3.47-11.73
			c-0.27-0.21-0.53-0.45-0.77-0.69c-2.34,3.6-3.73,7.85-3.73,12.42C5.55,45.59,16.34,56.09,29.62,56.1
			c13.27,0.01,24.08-10.47,24.09-23.36S42.93,9.35,29.66,9.34z"/>
	</g>
	<g>
		<polygon class="st2" points="28.4,27.86 28.4,27.75 28.4,26.86 23.74,26.86 22.62,26.86 22.35,26.86 21.2,26.86 21.2,27.86 
			22.35,27.86 22.62,27.86 		"/>
		<polygon class="st2" points="21.2,31.85 22.65,31.85 22.99,31.85 30.26,31.85 30.26,31.74 30.26,30.93 24.4,30.93 22.99,30.93 
			22.65,30.93 21.2,30.93 		"/>
		<polygon class="st2" points="21.2,35.91 29.92,35.91 29.92,35.8 29.92,34.91 24.28,34.91 22.92,34.91 22.6,34.91 21.2,34.91 		"/>
		<polygon class="st2" points="21.2,39.93 22.56,39.93 22.87,39.93 29.67,39.93 29.67,38.93 22.87,38.93 22.56,38.93 21.2,38.93 		
			"/>
		<rect x="18.99" y="42.48" class="st2" width="0.48" height="2.17"/>
		<rect x="18.99" y="45.26" class="st2" width="0.48" height="0.54"/>
		<path class="st2" d="M22.54,20.52v1.14h-1.25v1.23h-2.31V40h0.48V23.36h1.83h0.48h0.98h0.48h0.35h0.48h2.04h11.08v0.04v3.26v1.08
			v3.26v1.08v3.26v1.08v6.54v0.46v1.53v0.46v0.77h-1.81v0.46h1.81v0.77H19.47v-0.52h-0.48v0.99h18.67v-1.23h2.31v-1.14h1.25V20.52
			H22.54z M39.48,44.95v0.46v0.77h-1.83v-0.77v-0.46v-1.53v-0.46v-6.54v-1.08v-3.26v-1.08v-3.26v-1.08V23.4v-0.5H26.1h-2.04h-0.48
			h-0.35h-0.48h-0.98v-0.77h0.98h0.48h16.25V44.95z M40.73,45.04h-0.77v-0.09V21.66H23.23h-0.21v-0.68h17.71V45.04z"/>
		<path class="st2" d="M36.26,29.33c0-1.48-1.04-2.86-3.34-2.86c-1.06,0-2.2,0.31-2.86,0.78l0.48,1.22c0.5-0.37,1.3-0.6,2.02-0.6
			c1.26,0.02,1.9,0.68,1.9,1.67c0,0.87-0.5,1.63-1.4,2.66c-1,1.17-1.36,2.31-1.24,3.36l0.04,0.5h1.56l-0.02-0.5
			c-0.06-0.99,0.26-1.85,1.14-2.86C35.5,31.6,36.26,30.65,36.26,29.33z"/>
		<path class="st2" d="M31.42,38.79c0,0.68,0.48,1.2,1.18,1.2c0.74,0,1.2-0.52,1.2-1.2c0-0.72-0.48-1.22-1.18-1.22
			C31.92,37.57,31.42,38.07,31.42,38.79z"/>
	</g>
</g>
</svg>
