<svg id="Layer_1" xmlns="http://www.w3.org/2000/svg" viewBox="0 0 60 60">
  <style>
    .st0{fill:#948773;stroke:#938673;stroke-width:.25;stroke-miterlimit:10}.st2{fill:#fff}
  </style>
  <path class="st0" d="M38.52 19.95v3.39h.51v-2.96h4.04v2.52h-3.31v.44h3.82v-3.39zM35.44 46.8h.75v.44h-.75z"/>
  <path class="st0" d="M17.07 47.23h17.59v-.43H17.58v-3.46h21.64v3.46h-2.24v.43h2.75v-4.32H17.07zM40.07 47.23h3.37v-4.32h-3.37v4.32zm.51-3.89h2.35v3.45h-2.35v-3.45zM31.03 25.15V42H28.2V24.22h4.05V42h-.01v.44h.52V23.78h-5.07v18.66h3.86V42l.02-16.86M32.76 19.95h-5.07v3.24h5.07v-3.24zm-.51 2.8H28.2v-2.37h4.05v2.37zM27.08 22.7l.05-.21-4.99-.77-4.24 19.94-.05.21 4.99.77 4.24-19.94zm-8.64 18.82l4.11-19.3 3.98.62-4.11 19.3-3.98-.62zM27.55 20.51l-4.99-.77-.36 1.71 4.99.77.36-1.71zm-.78 1.2l-3.98-.62.18-.85 3.98.62-.18.85zM36.63 40.97V19.94h-2.79v22.49h2.79v-1.46zM36.12 42h-1.77v-.89h1.77V42zm0-1.47h-1.77V21.87h1.77v18.66zm0-19.24h-1.77v-.91h1.77v.91zM39.76 24V41.51h1.97v-9.77h-.51v9.34h-.95V24.07h2.8V42h-4.04V23.63h-.51v18.81h5.06V23.63h-3.82z"/>
  <g>
    <path d="M30.14 8.5c-2.42 0-4.75.36-6.96 1.01.18.29.35.6.49.91 2.05-.59 4.22-.91 6.47-.91 12.7 0 23.04 10.04 23.04 22.37S42.84 54.25 30.14 54.25 7.1 44.22 7.1 31.88c0-4.31 1.28-8.32 3.46-11.73-.27-.21-.53-.45-.77-.69-2.34 3.6-3.72 7.86-3.72 12.43 0 12.89 10.8 23.38 24.07 23.38s24.07-10.49 24.07-23.38S43.41 8.5 30.14 8.5z" fill="#948773"/>
    <path class="st2" d="M16 22.49c-4.8 0-8.7-3.79-8.7-8.45s3.9-8.45 8.7-8.45 8.7 3.79 8.7 8.45-3.9 8.45-8.7 8.45zm0-15.84c-4.19 0-7.61 3.31-7.61 7.39s3.41 7.39 7.61 7.39 7.61-3.31 7.61-7.39S20.2 6.65 16 6.65z"/>
    <path class="st2" d="M12.17 6.52h1.53v4.52c.35-.44.76-.77 1.24-1 .48-.23 1-.34 1.56-.34 1.17 0 2.12.39 2.85 1.17.73.78 1.09 1.92 1.09 3.44 0 1.44-.36 2.63-1.08 3.58-.72.95-1.72 1.43-2.99 1.43-.71 0-1.32-.17-1.81-.5-.29-.2-.61-.51-.94-.95v1.16h-1.45V6.52zm6.01 10.46c.42-.66.64-1.52.64-2.6 0-.96-.21-1.75-.64-2.38-.42-.63-1.05-.94-1.87-.94-.72 0-1.35.26-1.89.77-.54.51-.81 1.36-.81 2.55 0 .85.11 1.55.33 2.08.42 1 1.19 1.5 2.32 1.5.86.01 1.5-.32 1.92-.98z"/>
  </g>
</svg>
