<svg xmlns="http://www.w3.org/2000/svg" viewBox="0 0 770 251">
  <path d="M471.19 71.71l-86.57-43.12v5.61l-5.65-2.8v5.63l-5.65-2.8v5.61l-5.65-2.8v5.63l-5.65-2.8v5.61l-5.65-2.8v5.61l-5.65-2.8v5.63l-5.65-2.8v5.61l-5.65-2.8v5.61l-5.65-2.8v5.63l-5.65-2.8v5.61l-5.65-2.8v5.63l-5.65-2.8v5.61l-5.65-2.8v5.63l-5.65-2.82v5.65l-5.65-2.82v105.96l86.57 43.12v-5.61l5.65 2.8v-5.63l5.65 2.8v-5.61l5.65 2.8v-5.63l5.65 2.8v-5.61l5.65 2.8v-5.61l5.65 2.8v-5.63l5.65 2.8v-5.61l5.65 2.8v-5.61l5.65 2.8v-5.63l5.65 2.8v-5.61l5.65 2.8v-5.63l5.65 2.8v-5.61l5.65 2.8v-5.63l5.65 2.8v-5.63l5.65 2.8V71.71zm-90.33-37.26l3.76 1.88v3.54l-3.76-1.88v-3.54zm82.81 137.37l-3.76-1.88V77.32l-73.4-36.53v-3.54l77.16 38.43v96.14zm-156.21-95.2l3.76 1.88v92.61l73.4 36.53v3.54l-77.16-38.43V76.62zm5.65 93.33V79.43l3.76 1.88v86.99l67.75 33.74v3.52l-71.51-35.61zm71.51-122.38v3.52l-3.76-1.88v-3.5l3.76 1.86zm-3.76-3.98v-3.52l3.76 1.88v3.52l-3.76-1.88zm71.51 122.6l-3.76-1.88V82.95L386.5 52.03v-3.52l65.87 32.8v84.88zM318.75 82.25l3.76 1.88v81.38l62.11 30.92v3.52l-65.87-32.82V82.25zm5.65 82.07V85.05l3.76 1.88v75.73l56.46 28.12v3.52l-60.22-29.98zm60.22-105.5v3.52l-3.76-1.88v-3.52l3.76 1.88zm-3.76-3.97v-3.52l3.76 1.88v3.52l-3.76-1.88zm60.22 105.73l-3.76-1.88V88.57L386.5 63.26v-3.52l54.58 27.18v73.66zM330.04 87.86l3.76 1.88v70.12l50.81 25.31v3.52l-54.58-27.19V87.86zm5.65 70.84V90.68l3.76 1.88v64.51l45.17 22.47v3.52l-48.93-24.36zm48.93-88.64v3.52l-3.76-1.88v-3.52l3.76 1.88zm-3.76-3.98v-3.52l3.76 1.88v3.52l-3.76-1.88zm48.93 88.87l-3.76-1.88V94.2L386.5 74.52V71l43.29 21.55v62.4zm-88.45-61.46l3.76 1.88v58.87l39.52 19.69v3.52l-43.29-21.55V93.49zm5.64 59.58V96.29l3.76 1.88v53.26l33.88 16.86v3.52l-37.64-18.74zm37.64-71.76v3.52l-3.76-1.88v-3.52l3.76 1.88zm-3.76-3.99V73.8l3.76 1.88v3.52l-3.76-1.88zm37.64 72.01l-3.76-1.88V99.81L386.5 85.75v-3.52l31.99 15.94v51.16zm-65.87-50.22l3.76 1.88v47.65l28.23 14.06v3.52l-31.99-15.94V99.11zm5.64 48.35v-45.54l3.76 1.88v42.01l22.58 11.25v3.52l-26.34-13.12zm26.35-54.91v3.52l-3.76-1.88v-3.52l3.76 1.88zm-3.76-3.98v-3.52l3.76 1.88v3.52l-3.76-1.88zm26.35 55.15l-3.76-1.88v-36.4l-16.94-8.43v-3.52l20.7 10.31v39.92zm-43.29-39l3.76 1.88V143l16.94 8.43v3.52l-20.7-10.31v-39.92zm5.65 37.11v-34.29l3.76 1.88v30.77l11.29 5.63v3.52l-15.05-7.51zm15.05-38.03v3.52l-3.76-1.88v-3.52l3.76 1.88zm-3.76-3.97v-3.52l3.76 1.88v3.52l-3.76-1.88zm15.05 38.26l-3.76-1.88v-25.14l-5.65-2.8v-3.52l9.41 4.69v28.65zm-20.7-27.74l3.76 1.88v25.14l5.65 2.8v3.52l-9.41-4.69v-28.65zm5.65 25.86v-23.05l3.76 1.88v23.06l-3.76-1.89zm0-25.15v-3.52l3.76 1.88v3.5l-3.76-1.86zm5.64 24.45l3.76 1.88v3.52l-3.76-1.88v-3.52zm0-2.11v-23.06l3.76 1.88v23.05l-3.76-1.87zm-7.52-28.9l-3.76-1.88V99.1l3.76 1.88v3.52zm0 2.1v3.52l-3.76-1.88v-3.52l3.76 1.88zm-5.65.72l-3.76-1.88v-3.52l3.76 1.88v3.52zm13.17 39.43l3.76 1.88v3.52l-3.76-1.88v-3.52zm0-2.11v-3.52l3.76 1.88v3.52l-3.76-1.88zm5.65-.7l3.76 1.88v3.52l-3.76-1.88v-3.52zm0-2.11v-3.52l3.76 1.88v3.52l-3.76-1.88zm5.65-.71l3.76 1.88v3.52l-3.76-1.88v-3.52zm0-2.09v-30.77l-11.29-5.63v-3.54l15.06 7.49v34.29l-3.77-1.84zm-18.82-45.77l-3.76-1.88v-3.52l3.76 1.88v3.52zm0 2.11v3.52l-3.76-1.88v-3.52l3.76 1.88zm-5.65.71l-3.76-1.88v-3.52l3.76 1.88v3.52zm0 2.09v3.52l-3.76-1.88v-3.52l3.76 1.88zm-5.65.72l-3.76-1.88v-3.52l3.76 1.88v3.52zm0 2.09v3.52l-3.76-1.88V99.1l3.76 1.88zm-5.64.71l-3.76-1.88v-3.52l3.76 1.88v3.52zm24.46 56.29l3.76 1.88v3.52l-3.76-1.88v-3.52zm0-2.09v-3.52l3.76 1.88v3.52l-3.76-1.88zm5.65-.71l3.76 1.88v3.52l-3.76-1.88v-3.52zm0-2.11v-3.52l3.76 1.88v3.52l-3.76-1.88zm5.65-.71l3.76 1.88v3.52l-3.76-1.88v-3.52zm0-2.09v-3.52l3.76 1.88v3.52l-3.76-1.88zm5.64-.72l3.76 1.88v3.52l-3.76-1.88v-3.52zm0-2.09v-3.52l3.76 1.88v3.52l-3.76-1.88zm5.65-.71l3.76 1.88v3.52l-3.76-1.88v-3.52zm0-2.11v-42.01L386.5 91.38v-3.52l26.35 13.12v45.54l-3.76-1.88zm-30.11-62.63l-3.76-1.88V76.6l3.76 1.88v3.53zm0 2.1v3.52l-3.76-1.88v-3.52l3.76 1.88zm-5.65.72l-3.76-1.88v-3.52l3.76 1.88v3.52zm0 2.11v3.52l-3.76-1.88v-3.52l3.76 1.88zm-5.65.69l-3.76-1.88v-3.5l3.76 1.88v3.5zm0 2.11v3.52l-3.76-1.88v-3.52l3.76 1.88zm-5.64.72l-3.76-1.88v-3.52l3.76 1.88v3.52zm0 2.1v3.52l-3.76-1.88v-3.52l3.76 1.88zm-5.65.7l-3.76-1.88v-3.52l3.76 1.88v3.52zm0 2.11v3.52l-3.76-1.88v-3.52l3.76 1.88zm-5.64.69l-3.76-1.88v-3.52l3.76 1.88v3.52zm35.75 73.18l3.76 1.88v3.52l-3.76-1.88v-3.52zm0-2.11v-3.52l3.76 1.88v3.52l-3.76-1.88zm5.65-.7l3.76 1.88v3.52l-3.76-1.88v-3.52zm0-2.11v-3.52l3.76 1.88v3.52l-3.76-1.88zm5.65-.71l3.76 1.88v3.52l-3.76-1.88v-3.52zm0-2.11v-3.52l3.76 1.88v3.52l-3.76-1.88zm5.64-.69l3.76 1.88v3.5l-3.76-1.88v-3.5zm0-2.11v-3.52l3.76 1.88v3.52l-3.76-1.88zm5.65-.72l3.76 1.88v3.52l-3.76-1.88v-3.52zm0-2.11v-3.52l3.76 1.88v3.52l-3.76-1.88zm5.64-.69l3.76 1.88v3.52l-3.76-1.88v-3.52zm0-2.11v-3.52l3.76 1.88v3.52l-3.76-1.88zm5.65-.7l3.76 1.88v3.52l-3.76-1.88v-3.52zm0-2.1V97.01L386.5 80.14v-3.52l37.64 18.74v56.78l-3.76-1.87zm-41.4-79.5l-3.76-1.88v-3.52l3.76 1.88v3.52zm0 2.11v3.52l-3.76-1.88V71l3.76 1.88zm-5.65.69l-3.76-1.88v-3.52l3.76 1.88v3.52zm0 2.11v3.52l-3.76-1.88V73.8l3.76 1.88zm-5.65.72l-3.76-1.88V71l3.76 1.88v3.52zm0 2.09v3.52l-3.76-1.88V76.6l3.76 1.89zm-5.64.71l-3.76-1.88V73.8l3.76 1.88v3.52zm0 2.11v3.52l-3.76-1.88v-3.52l3.76 1.88zm-5.65.71l-3.76-1.88v-3.52l3.76 1.88v3.52zm0 2.09v3.52l-3.76-1.88v-3.5l3.76 1.86zm-5.64.72l-3.76-1.88v-3.52l3.76 1.88v3.52zm0 2.11v3.52l-3.76-1.88v-3.52l3.76 1.88zm-5.65.69l-3.76-1.88v-3.5l3.76 1.88v3.5zm0 2.11v3.52l-3.76-1.88v-3.52l3.76 1.88zm-5.65.72l-3.76-1.88v-3.52l3.76 1.88v3.52zm47.05 90.01l3.76 1.88v3.52l-3.76-1.88v-3.52zm0-2.09v-3.52l3.76 1.88v3.52l-3.76-1.88zm5.65-.71l3.76 1.88v3.52l-3.76-1.88v-3.52zm0-2.11v-3.52l3.76 1.88v3.52l-3.76-1.88zm5.65-.7l3.76 1.88v3.52l-3.76-1.88v-3.52zm0-2.1v-3.52l3.76 1.88v3.52l-3.76-1.88zm5.64-.72l3.76 1.88v3.52l-3.76-1.88v-3.52zm0-2.09v-3.52l3.76 1.88v3.52l-3.76-1.88zm5.65-.71l3.76 1.88v3.52l-3.76-1.88v-3.52zm0-2.11v-3.52l3.76 1.88v3.52l-3.76-1.88zm5.64-.72l3.76 1.88v3.52l-3.76-1.88v-3.52zm0-2.09v-3.52l3.76 1.88v3.5l-3.76-1.86zm5.65-.71l3.76 1.88v3.52l-3.76-1.88v-3.52zm0-2.11v-3.52l3.76 1.88v3.52l-3.76-1.88zm5.65-.69l3.76 1.88v3.5l-3.76-1.88v-3.5zm0-2.11v-3.52l3.76 1.88v3.52l-3.76-1.88zm5.64-.72l3.76 1.88v3.52l-3.76-1.88v-3.52zm0-2.09V91.38L386.5 68.89v-3.52l48.93 24.37v68.02l-3.76-1.87zm-52.69-96.37l-3.76-1.88v-3.52l3.76 1.88v3.52zm0 2.1v3.52l-3.76-1.88v-3.52l3.76 1.88zm-5.65.72l-3.76-1.88v-3.52l3.76 1.88v3.52zm0 2.11v3.52l-3.76-1.88v-3.52l3.76 1.88zm-5.65.69l-3.76-1.88v-3.52l3.76 1.88v3.52zm0 2.11v3.52l-3.76-1.88v-3.52l3.76 1.88zm-5.64.7l-3.76-1.88v-3.52l3.76 1.88v3.52zm0 2.11v3.52l-3.76-1.88v-3.52l3.76 1.88zm-5.65.71l-3.76-1.88v-3.52l3.76 1.88v3.52zm0 2.11v3.52l-3.76-1.88V71l3.76 1.88zm-5.64.69l-3.76-1.88v-3.52l3.76 1.88v3.52zm0 2.11v3.52l-3.76-1.88V73.8l3.76 1.88zm-5.65.72l-3.76-1.88V71l3.76 1.88v3.52zm0 2.11v3.52l-3.76-1.88v-3.52l3.76 1.88zm-5.65.69l-3.76-1.88V73.8l3.76 1.88v3.52zm0 2.11v3.52l-3.76-1.88v-3.52l3.76 1.88zm-5.64.7l-3.76-1.88V76.6l3.76 1.88v3.53zm0 2.1v3.52l-3.76-1.88v-3.52l3.76 1.88zm-5.65.72l-3.76-1.88v-3.52l3.76 1.88v3.52zm58.34 106.9l3.76 1.88v3.52l-3.76-1.88v-3.52zm0-2.11v-3.52l3.76 1.88v3.52l-3.76-1.88zm5.65-.7l3.76 1.88v3.52l-3.76-1.88v-3.52zm0-2.11v-3.52l3.76 1.88v3.52l-3.76-1.88zm5.65-.71l3.76 1.88v3.52l-3.76-1.88v-3.52zm0-2.11v-3.52l3.76 1.88v3.52l-3.76-1.88zm5.64-.69l3.76 1.88v3.52l-3.76-1.88v-3.52zm0-2.11v-3.52l3.76 1.88v3.52l-3.76-1.88zm5.65-.7l3.76 1.88v3.52l-3.76-1.88v-3.52zm0-2.11v-3.52l3.76 1.88v3.52l-3.76-1.88zm5.64-.71l3.76 1.88v3.52l-3.76-1.88v-3.52zm0-2.11v-3.52l3.76 1.88v3.52l-3.76-1.88zm5.65-.7l3.76 1.88v3.52l-3.76-1.88v-3.52zm0-2.1v-3.52l3.76 1.88v3.52l-3.76-1.88zm5.65-.72l3.76 1.88v3.52l-3.76-1.88v-3.52zm0-2.11v-3.52l3.76 1.88v3.52l-3.76-1.88zm5.64-.69l3.76 1.88v3.52l-3.76-1.88v-3.52zm0-2.11v-3.52l3.76 1.88v3.52l-3.76-1.88zm5.65-.7l3.76 1.88v3.52l-3.76-1.88v-3.52zm0-2.11v-3.52l3.76 1.88v3.52l-3.76-1.88zm5.64-.71l3.76 1.88v3.52l-3.76-1.88v-3.52zm0-2.11V85.77L386.5 57.65v-3.52l60.22 29.98v79.27l-3.76-1.88zM378.98 48.28l-3.76-1.88v-3.52l3.76 1.88v3.52zm0 2.11v3.52l-3.76-1.88v-3.52l3.76 1.88zm-5.65.69l-3.76-1.88v-3.5l3.76 1.88v3.5zm0 2.11v3.52l-3.76-1.88v-3.52l3.76 1.88zm-5.65.7l-3.76-1.88v-3.52l3.76 1.88v3.52zm0 2.11v3.52l-3.76-1.88v-3.52l3.76 1.88zm-5.64.71l-3.76-1.88v-3.54l3.76 1.88v3.54zm0 2.11v3.52l-3.76-1.88v-3.52l3.76 1.88zm-5.65.7l-3.76-1.88v-3.52l3.76 1.88v3.52zm0 2.1v3.52l-3.76-1.88v-3.52l3.76 1.88zm-5.64.7l-3.76-1.88v-3.52l3.76 1.88v3.52zm0 2.11v3.52l-3.76-1.88v-3.52l3.76 1.88zm-5.65.71l-3.76-1.88v-3.54l3.76 1.88v3.54zm0 2.11v3.52l-3.76-1.88v-3.52l3.76 1.88zm-5.65.7l-3.76-1.88v-3.52l3.76 1.88v3.52zm0 2.11v3.54l-3.76-1.88V68.2l3.76 1.86zm-5.64.71l-3.76-1.88v-3.54l3.76 1.88v3.54zm0 2.11v3.52l-3.76-1.88V71l3.76 1.88zm-5.65.69l-3.76-1.88v-3.52l3.76 1.88v3.52zm0 2.11v3.52l-3.76-1.88V73.8l3.76 1.88zm-5.64.7l-3.76-1.88v-3.52l3.76 1.88v3.52zm0 2.11v3.52l-3.76-1.88V76.6l3.76 1.89zm-5.65.71l-3.76-1.88v-3.54l3.76 1.88v3.54zm69.63 123.78l3.76 1.88v3.52l-3.76-1.88v-3.52zm0-2.11v-3.52l3.76 1.88v3.52l-3.76-1.88zm5.65-.71l3.76 1.88v3.54l-3.76-1.88v-3.54zm0-2.11v-3.52l3.76 1.88v3.52l-3.76-1.88zm5.65-.7l3.76 1.88v3.52l-3.76-1.88v-3.52zm0-2.1v-3.52l3.76 1.88v3.52l-3.76-1.88zm5.64-.7l3.76 1.88v3.52l-3.76-1.88v-3.52zm0-2.11v-3.52l3.76 1.88v3.52l-3.76-1.88zm5.65-.71l3.76 1.88v3.54l-3.76-1.88v-3.54zm0-2.11v-3.52l3.76 1.88v3.52l-3.76-1.88zm5.64-.7l3.76 1.88v3.52l-3.76-1.88v-3.52zm0-2.11v-3.52l3.76 1.88v3.52l-3.76-1.88zm5.65-.69l3.76 1.88v3.52l-3.76-1.88v-3.52zm0-2.11v-3.52l3.76 1.88v3.52l-3.76-1.88zm5.65-.71l3.76 1.88v3.54l-3.76-1.88v-3.54zm0-2.11v-3.52l3.76 1.88v3.52l-3.76-1.88zm5.64-.7l3.76 1.88v3.52l-3.76-1.88v-3.52zm0-2.11v-3.54l3.76 1.88v3.52l-3.76-1.86zm5.65-.71l3.76 1.88v3.54l-3.76-1.88v-3.54zm0-2.11v-3.52l3.76 1.88v3.52l-3.76-1.88zm5.64-.7l3.76 1.88v3.52l-3.76-1.88v-3.52zm0-2.1v-3.52l3.76 1.88v3.52l-3.76-1.88zm5.65-.7l3.76 1.88v3.52l-3.76-1.88v-3.52zm0-2.11v-3.52l3.76 1.88v3.52l-3.76-1.88zm5.65-.71l3.76 1.88v3.54l-3.76-1.88v-3.54zm0-2.11V80.14L386.5 46.4v-3.52l71.52 35.61v90.52l-3.76-1.88zM375.21 37.27l3.76 1.88v3.52l-3.76-1.88v-3.52zm-5.64 2.81l3.76 1.88v3.54l-3.76-1.88v-3.54zm-5.65 2.82l3.76 1.88v3.52l-3.76-1.88V42.9zm-5.65 2.8l3.76 1.88v3.52l-3.76-1.88V45.7zm-5.64 2.81l3.76 1.88v3.54l-3.76-1.88v-3.54zm-5.65 2.82l3.76 1.88v3.52l-3.76-1.88v-3.52zm-5.64 2.8l3.76 1.88v3.52l-3.76-1.88v-3.52zm-5.65 2.81l3.76 1.88v3.54l-3.76-1.88v-3.54zm-5.65 2.82l3.76 1.88v3.52l-3.76-1.88v-3.52zm-5.64 2.81l3.76 1.88v3.54l-3.76-1.88v-3.54zm-5.65 2.82l3.76 1.88v3.5l-3.76-1.88v-3.5zm-5.64 2.8l3.76 1.88v3.52l-3.76-1.88v-3.52zM307.46 71l3.76 1.88v3.54l-3.76-1.88V71zm77.16 145.79l-82.81-41.23V73.82l3.76 1.88v98.24l79.04 39.37v3.48zm5.65-2.8l-3.76-1.88v-3.54l3.76 1.88v3.54zm5.64-2.82l-3.76-1.88v-3.52l3.76 1.88v3.52zm5.65-2.81l-3.76-1.88v-3.54l3.76 1.88v3.54zm5.65-2.82l-3.76-1.88v-3.52l3.76 1.88v3.52zm5.64-2.8l-3.76-1.88v-3.52l3.76 1.88v3.52zm5.65-2.81l-3.76-1.88v-3.54l3.76 1.88v3.54zm5.64-2.82l-3.76-1.88v-3.52l3.76 1.88v3.52zm5.65-2.8l-3.76-1.88v-3.52l3.76 1.88v3.52zm5.65-2.81l-3.76-1.88v-3.54l3.76 1.88v3.54zm5.64-2.82l-3.76-1.88v-3.52l3.76 1.88v3.52zm5.65-2.81l-3.76-1.88v-3.54l3.76 1.88v3.54zm5.64-2.82l-3.76-1.88v-3.5l3.76 1.88v3.5zm5.65-2.8l-3.76-1.88v-3.52l3.76 1.88v3.52zm5.65-2.81l-3.76-1.88v-3.54l3.76 1.88v3.54zm5.64-2.82l-3.76-1.88V74.5L386.5 35.14v-3.5l82.81 41.23v101.75z" fill="#978871"/>
</svg>
