<svg id="Layer_1" xmlns="http://www.w3.org/2000/svg" viewBox="0 0 60 60">
  <style>
    .st0{fill:#948773}.st1{fill:#fff}.st2{fill:none}.st3{fill:#938673}
  </style>
  <path class="st0" d="M31.42 8.12c-2.42 0-4.75.36-6.96 1.01.18.29.35.6.49.91 2.05-.59 4.22-.91 6.47-.91 12.7 0 23.04 10.04 23.04 22.37S44.12 53.87 31.42 53.87 8.38 43.84 8.38 31.5c0-4.31 1.28-8.32 3.46-11.73-.27-.21-.53-.45-.77-.69-2.34 3.6-3.72 7.86-3.72 12.43 0 12.89 10.8 23.38 24.07 23.38S55.49 44.4 55.49 31.51 44.69 8.12 31.42 8.12z"/>
  <path class="st1" d="M17.29 22.11c-4.8 0-8.7-3.79-8.7-8.45 0-4.66 3.9-8.45 8.7-8.45s8.7 3.79 8.7 8.45c0 4.66-3.91 8.45-8.7 8.45zm0-15.83c-4.19 0-7.61 3.32-7.61 7.39s3.41 7.39 7.61 7.39 7.61-3.31 7.61-7.39-3.42-7.39-7.61-7.39z"/>
  <path class="st1" d="M19.65 9.69c.66.5 1.06 1.35 1.19 2.57h-1.53c-.09-.56-.31-1.03-.64-1.4-.33-.37-.86-.56-1.6-.56-1 0-1.72.47-2.15 1.42-.28.62-.42 1.38-.42 2.28 0 .91.2 1.67.59 2.3.4.62 1.02.93 1.87.93.65 0 1.17-.19 1.55-.58.38-.39.64-.91.79-1.58h1.53c-.18 1.2-.61 2.09-1.31 2.64-.7.56-1.59.83-2.68.83-1.22 0-2.2-.43-2.93-1.3-.73-.87-1.09-1.95-1.09-3.25 0-1.59.4-2.84 1.2-3.73.8-.89 1.81-1.33 3.05-1.33 1.06.01 1.91.26 2.58.76z"/>
  <path class="st2" d="M30.74 39.16h-.03c-.22.01-.4.14-.4.28s.18.27.39.28c.26-.01.44-.13.44-.28 0-.14-.16-.26-.36-.28v.01-.01h-.03l-.01-.07-.01-.03.01.1zM34.77 25.48zM44.95 43.6l.14-.11-.14.11zM44.95 43.6v.01-.01zM35.15 26.01c0-.15-.17-.27-.39-.28-.26.01-.44.14-.44.28 0 .15.17.27.39.28.27 0 .44-.13.44-.28z"/>
  <path class="st3" d="M30.78 39.17l-.03-.07.01.07h.02z"/>
  <path class="st3" d="M31.15 39.45c0 .15-.18.27-.44.28-.21-.01-.39-.13-.39-.28s.18-.27.4-.28h.03l-.01-.09-.07-.15c-.34.03-.6.25-.6.52 0 .28.28.52.63.53h.07c.36-.02.63-.25.63-.53 0-.25-.22-.45-.52-.51l-.09.23c.2.02.36.14.36.28z"/>
  <path class="st3" d="M31.84 39.45c0 .47-.46.86-1.05.89H30.67c-.59-.03-1.05-.42-1.05-.89 0-.42.38-.77.88-.85l-.11-.23c-.59.13-1.02.55-1.02 1.08 0 .6.56 1.1 1.29 1.14h.13c.72-.03 1.29-.53 1.29-1.14 0-.52-.42-.94-1-1.07l-.08.23c.48.1.84.43.84.84z"/>
  <path class="st3" d="M29.62 39.45c0 .47.46.86 1.05.89H30.79c.59-.03 1.05-.42 1.05-.89 0-.41-.36-.74-.84-.84l-.13.33c.3.05.52.26.52.51 0 .28-.28.52-.63.53h-.07c-.35-.01-.63-.25-.63-.53 0-.27.26-.5.6-.52l-.16-.33c-.5.08-.88.42-.88.85z"/>
  <path class="st0" d="M29.07 34.2l.16-.03c.47-.07.81-.38.81-.73 0-.41-.43-.73-1-.76h-.07c-.53.02-.94.35-.94.75 0 .36.35.67.85.74l.19.03zM34.7 26.65h.04l-.04-.11zM34.78 25.38h-.04l.03.1z"/>
  <path class="st3" d="M34.75 26.55h.03c.35-.01.63-.25.63-.53s-.28-.52-.63-.53h-.07c-.36.02-.63.25-.63.53s.28.52.63.53h.04zm-.43-.54c0-.15.18-.27.44-.28.22.01.39.13.39.28s-.17.27-.44.28c-.21 0-.39-.13-.39-.28zM20.25 43.43h.17l-.17-.08zM30.75 39.1l-.03-.18.01.15zM30.79 39.17h-.01v.01zM30.75 38.67l-.02-.11v.11zM30.72 38.92zM30.72 38.92h-.03c-.01 0-.02.01-.03.01l.07.15-.01-.16z"/>
  <path class="st3" d="M30.72 38.92l.02.18.03.07h.01l.09-.23c-.04-.01-.07-.02-.11-.02h-.04zM30.76 38.54l-.11-.23c-.09 0-.17.03-.25.05l.11.23c.06-.01.11-.03.16-.03h.12c.08 0 .14.03.21.04l.09-.23c-.08-.02-.16-.05-.25-.05l-.08.22z"/>
  <path class="st3" d="M30.69 38.92h.07c.04 0 .07.02.11.02l.13-.33c-.07-.01-.14-.04-.21-.04h-.12c-.06 0-.11.02-.16.03l.16.33c0-.01.01-.01.02-.01zm.06-.25h-.01l-.01-.1.02.1z"/>
  <path class="st3" d="M19.56 44.03H43l-1.83 1.47.71.57 2.54-2.04h.01l.31-.25.02-.02.2-.16-.2-.16-.02-.01-.31-.25h-.01l-2.54-2.04-.71.57L43 43.18H21.05l3.53-5.25 1.76 2.47 2.69-4.89 1.37 2.87c.08-.02.16-.05.25-.05H30.8c.02 0 .03.01.05.01.09.01.17.03.25.05l3.67-9.74 2.79 6.87h6.05v-.86h-5.39l-3.06-7.54c.56-.14.96-.58.96-1.09 0-.6-.56-1.1-1.29-1.14h-.14c-.72.03-1.29.53-1.29 1.14 0 .51.4.94.96 1.09l-3.66 9.71-1.06-2.22c.55-.19.92-.64.92-1.15 0-.68-.64-1.22-1.49-1.26h-.09c-.8.04-1.43.59-1.43 1.25 0 .52.37.96.94 1.15l-2.24 4.08-1.68-2.35-4.05 6.02v-17.6h-.94v18.43m.67.17l.17.07h-.17v-.07zm8.79-10.66c.57.02 1 .35 1 .76 0 .36-.34.66-.81.73l-.16.03-.19-.03c-.5-.07-.85-.37-.85-.74 0-.4.42-.73.94-.75h.07zm5.67-7.21h.07l-.03-.11h.04v.11c.35.01.63.25.63.53s-.28.52-.63.53h-.08c-.35-.01-.63-.25-.63-.53-.01-.28.27-.51.63-.53zm.03 1.17h-.04v-.11l.04.11z"/>
  <path class="st3" d="M30.66 38.31h-.01l.11.23.08-.22c-.02 0-.03-.01-.05-.01h-.13zM20.5 21.67h-.94v2.73h.94v-2.73zm-.25 2.48h-.44v-2.23h.44v2.23z"/>
  <path class="st3" d="M19.81 21.92h.44v2.23h-.44z"/>
</svg>
