<svg id="Layer_1" xmlns="http://www.w3.org/2000/svg" viewBox="0 0 60 60">
  <style>
    .st0{fill:#948773}.st1{fill:#fff}.st2{fill:#948773;stroke:#938673;stroke-width:.25;stroke-miterlimit:10}.st3{fill:#938673}
  </style>
  <path class="st0" d="M31.25 6.61c-2.42 0-4.75.36-6.96 1.01.18.29.35.6.49.91 2.05-.59 4.22-.91 6.47-.91 12.7 0 23.04 10.04 23.04 22.37S43.95 52.36 31.25 52.36 8.21 42.32 8.21 29.98c0-4.31 1.28-8.32 3.46-11.73-.27-.21-.53-.45-.77-.69-2.34 3.6-3.72 7.86-3.72 12.43 0 12.89 10.8 23.38 24.07 23.38s24.07-10.49 24.07-23.38S44.52 6.61 31.25 6.61z"/>
  <path class="st1" d="M17.12 20.6c-4.8 0-8.7-3.79-8.7-8.45 0-4.66 3.9-8.45 8.7-8.45s8.7 3.79 8.7 8.45c0 4.65-3.9 8.45-8.7 8.45zm0-15.84c-4.19 0-7.61 3.32-7.61 7.39s3.41 7.39 7.61 7.39 7.61-3.31 7.61-7.39-3.42-7.39-7.61-7.39z"/>
  <path class="st1" d="M18.44 8.23c.28.17.59.47.95.89V4.54h1.51v12.51h-1.42v-1.26c-.37.56-.8.96-1.3 1.21s-1.07.37-1.71.37c-1.04 0-1.94-.43-2.7-1.28-.76-.85-1.14-1.98-1.14-3.4 0-1.32.35-2.47 1.04-3.44.69-.97 1.68-1.46 2.97-1.46.72 0 1.32.15 1.8.44zm-3.51 6.82c.42.66 1.1.98 2.03.98.72 0 1.32-.3 1.79-.91s.7-1.48.7-2.62c0-1.15-.24-2-.72-2.55-.48-.55-1.07-.83-1.78-.83-.79 0-1.43.29-1.92.88-.49.59-.73 1.45-.73 2.6-.01.98.2 1.79.63 2.45z"/>
  <path class="st2" d="M29.79 40.35h12.98v.35H29.79zM29.79 39.42h12.98v.35H29.79zM26.19 42.17h12.98v.35H26.19zM26.19 41.27h12.98v.35H26.19zM18.68 38.28h12.98v.35H18.68zM18.68 37.28h12.98v.35H18.68zM15.08 40.2h12.98v.35H15.08zM15.08 39.27h12.98v.35H15.08zM27.26 36h13.19v-.35H27.47v.01h-.21z"/>
  <path class="st0" d="M24.77 22.79c.21 0 .41.02.61.06-.49.73-.84 1.57-1.01 2.49h.33c.18-.89.52-1.71 1.01-2.4.07-.1.14-.2.22-.29 1-1.24 2.45-2.03 4.06-2.03 1.71 0 3.24.88 4.24 2.25-2.27.51-3.98 2.73-3.98 5.38 0 1.58.61 3 1.58 4.01l.06-.03v.04h4.74c.08.26.33.44.63.44.36 0 .65-.27.65-.61 0-.34-.29-.61-.65-.61-.29 0-.55.19-.63.45h-4.65c-.87-.94-1.42-2.24-1.42-3.69 0-2.49 1.61-4.56 3.74-5.04v4.22c-.23.08-.4.31-.4.59 0 .34.25.61.55.61s.55-.27.55-.61c0-.27-.17-.52-.41-.59v-4.27c.06-.01.12-.02.19-.03.14-.01.29-.02.43-.02 1.7 0 3.19 1.01 4.01 2.52-1.39.03-2.65.7-3.53 1.75-.01.11-.04.22-.05.33h-.06v.33h.01v.02l.02-.02h4c.07.26.28.44.53.44.31 0 .55-.27.55-.61s-.25-.61-.55-.61c-.25 0-.47.19-.53.45h-3.74c.85-1.06 2.09-1.73 3.48-1.73h.07c.12 0 .24.01.35.02-.05-.12-.1-.24-.16-.36-.84-1.71-2.49-2.87-4.37-2.87-.22 0-.43.02-.64.05-1.05-1.54-2.72-2.54-4.59-2.54-1.76 0-3.34.88-4.4 2.27-.27-.07-.54-.1-.83-.1-1.81 0-3.32 1.41-3.69 3.28.11-.02.22-.04.34-.06.36-1.65 1.72-2.88 3.34-2.88z"/>
  <path class="st3" d="M37.26 32.85c-.31 0-.59-.17-.71-.44h-4.78v-.02l-.03-.03c-1.04-1.08-1.61-2.53-1.61-4.09 0-2.59 1.63-4.85 3.89-5.46-1.01-1.31-2.47-2.05-4.02-2.05-1.51 0-2.96.72-3.97 1.98-.07.09-.14.19-.21.28-.48.69-.82 1.48-.99 2.35l-.02.1h-.58l.03-.15c.16-.86.47-1.65.92-2.37-.14-.02-.27-.03-.4-.03-1.52 0-2.85 1.15-3.23 2.79l-.02.08-.09.01c-.11.01-.22.03-.33.05l-.18.04.04-.18c.44-2.24 2.46-3.77 4.59-3.29 1.12-1.43 2.74-2.25 4.45-2.25 1.84 0 3.53.92 4.65 2.53.2-.03.39-.04.58-.04 1.87 0 3.59 1.13 4.48 2.94.06.12.11.24.16.37l.08.19-.21-.02c-.11-.01-.23-.02-.34-.02h-.04c-1.23 0-2.38.54-3.23 1.48h3.38c.1-.27.35-.45.62-.45.38 0 .68.33.68.74s-.3.74-.68.74c-.28 0-.51-.17-.62-.44h-4.03l-.01-.09-.01-.12v-.38l.02-.05v-.02c.02-.05.04-.07.07-.12l.04-.06.02-.03c.9-1.07 2.11-1.7 3.42-1.79-.91-1.54-2.53-2.43-4.22-2.26-.03 0-.05.01-.08.01v4.08c.24.12.41.38.41.67 0 .41-.3.74-.68.74-.37 0-.68-.33-.68-.74 0-.29.16-.55.4-.67v-3.98c-2.03.53-3.49 2.56-3.49 4.88 0 1.34.48 2.61 1.35 3.56h4.51c.12-.27.4-.45.72-.45.43 0 .78.33.78.74-.02.41-.37.74-.8.74zm-5.24-.69h4.71l.03.09c.07.21.27.35.51.35.29 0 .53-.22.53-.49s-.24-.49-.53-.49c-.24 0-.45.15-.51.36l-.03.09h-4.72l.01.09zM29.99 20.5c1.69 0 3.28.84 4.34 2.31l.11.15-.18.04c-2.25.5-3.88 2.71-3.88 5.26 0 1.45.54 2.85 1.48 3.86l.12-.05h-.04l-.04-.04c-.94-1-1.46-2.34-1.46-3.77 0-2.49 1.61-4.66 3.83-5.16l.15-.03v4.47l-.09.03c-.18.06-.31.25-.31.47 0 .27.19.49.43.49s.43-.22.43-.49c0-.22-.13-.41-.32-.47l-.09-.03v-4.47l.17-.03c.04-.01.08-.01.12-.02.15-.02.3-.02.44-.02 1.68 0 3.26.99 4.12 2.59l.1.18h-.2c-1.31.03-2.52.62-3.42 1.68-.01.05-.02.1-.02.16.91-1.11 2.2-1.74 3.54-1.74h.23c-.03-.05-.05-.11-.08-.16-.85-1.73-2.48-2.8-4.26-2.8-.2 0-.4.01-.62.05l-.08.01-.04-.06c-1.07-1.58-2.71-2.48-4.49-2.48-1.66 0-3.23.81-4.3 2.22l-.05.07-.08-.02c-1.96-.48-3.84.87-4.33 2.9.02 0 .05-.01.07-.01.43-1.71 1.84-2.89 3.46-2.89.2 0 .41.02.64.07l.18.04-.1.16c-.46.69-.78 1.46-.96 2.29h.07c.19-.87.53-1.66 1.01-2.35.07-.1.15-.2.22-.29 1.08-1.36 2.6-2.12 4.18-2.12zm5.73 7.43h3.97l.02.09c.05.21.22.35.41.35.24 0 .43-.22.43-.49s-.19-.49-.43-.49c-.19 0-.36.15-.41.35l-.02.09H35.7v.08h.02z"/>
  <g>
    <path class="st0" d="M39.33 36.27H23.71c1.51-.62 2.67-2.04 3.07-3.79.01 0 .02.01.03.01.3 0 .55-.27.55-.6 0-.33-.24-.6-.55-.6-.25 0-.45.18-.51.43h-3.51c-.07-.26-.28-.44-.53-.44-.31 0-.55.27-.55.61 0 .34.25.61.55.61.25 0 .47-.19.53-.45h3.5c.03.13.1.23.19.31-.5 2.24-2.33 3.91-4.52 3.91-2.57 0-4.66-2.31-4.66-5.14 0-2.47 1.59-4.55 3.7-5.03.01-.12.03-.24.06-.36-2.3.46-4.06 2.7-4.06 5.39 0 3.03 2.23 5.49 4.97 5.49h.08c.06 0 .12-.01.18-.01v.02h17.39c-.05 0-.09-.01-.14-.01 2.19-.08 4.03-1.72 4.62-3.96h-.32c-.59 2.09-2.36 3.61-4.45 3.61z"/>
    <path class="st3" d="M39.62 36.74l-17.51-.01h-.13c-2.81 0-5.1-2.52-5.1-5.61 0-2.71 1.75-5.03 4.17-5.52l.18-.04.29.16c-.02.12-.01.15-.02.27l-.01.15-.45.07c-2.09.48-3.61 2.55-3.61 4.91 0 2.77 2.03 5.02 4.53 5.02 2.06 0 3.86-1.54 4.38-3.74-.06-.06-.11-.14-.15-.23h-3.32c-.1.27-.35.45-.62.45-.38 0-.68-.33-.68-.74s.3-.74.68-.74c.27 0 .51.17.62.44h3.33c.11-.26.34-.43.6-.43.37 0 .67.33.67.73 0 .38-.27.69-.61.73-.38 1.54-1.34 2.82-2.62 3.53h15.07c2 0 3.74-1.42 4.33-3.53l.03-.09h.58l-.04.16c-.6 2.3-2.44 3.91-4.6 4.04v.02zm-17.26-.25l17.13-.01c2.05-.07 3.83-1.55 4.46-3.71h-.07c-.65 2.17-2.46 3.62-4.54 3.62H23.08l.58-.24c1.48-.61 2.6-2 3-3.7l.02-.11.15.02c.21 0 .4-.22.4-.48s-.19-.48-.42-.48c-.18 0-.34.14-.39.34l-.03.09h-3.7l-.02-.09c-.05-.21-.22-.35-.41-.35-.24 0-.43.22-.43.49s.19.49.43.49c.19 0 .36-.15.41-.36l.02-.09h3.7l.02.09c.03.1.08.18.15.25l.06.05-.02.08c-.53 2.36-2.44 4.01-4.64 4.01-2.64 0-4.78-2.36-4.78-5.27 0-2.45 1.56-4.59 3.71-5.14 0-.03.01-.07.01-.1-2.21.54-3.79 2.71-3.79 5.23 0 2.96 2.17 5.36 4.85 5.36h.08c.03 0 .06 0 .09-.01.03 0 .06-.01.09-.01l.13-.01v.04z"/>
  </g>
  <path class="st2" d="M39.59 25.65c.06.12.11.24.16.36 2.37.24 4.24 2.44 4.24 5.12 0 .15-.01.29-.02.44h.31c.01-.15.02-.29.02-.44 0-2.93-2.09-5.33-4.71-5.48zM29.44 26.2c0-.34-.25-.61-.55-.61-.25 0-.47.19-.53.45h-2.99V26.38h2.99c.06.23.24.4.46.43v3.65c-.23.08-.4.31-.4.59 0 .34.25.61.55.61.31 0 .55-.27.55-.61 0-.27-.17-.52-.41-.59v-3.69c.2-.11.33-.32.33-.57z"/>
</svg>
