<svg id="Layer_1" xmlns="http://www.w3.org/2000/svg" viewBox="0 0 60 60">
  <style>
    .st0{fill:#948773;stroke:#938673;stroke-width:.25;stroke-miterlimit:10}.st2{fill:#fff}
  </style>
  <path class="st0" d="M18.02 25.12c.76 0 1.42-.49 1.66-1.17h9.98c.23.69.89 1.17 1.66 1.17.77 0 1.42-.49 1.66-1.17h9.68c.23.69.89 1.17 1.66 1.17.97 0 1.75-.76 1.75-1.7s-.79-1.7-1.75-1.7c-.78 0-1.44.49-1.67 1.19h-9.66c-.22-.69-.88-1.19-1.66-1.19-.77 0-1.43.48-1.66 1.17H19.7c-.23-.69-.89-1.17-1.66-1.17-.97 0-1.75.76-1.75 1.7-.03.93.76 1.7 1.73 1.7zm0-2.63c.33 0 .62.16.79.41.06.09.11.2.13.31.02.07.02.13.02.2 0 .08-.01.15-.03.23-.03.11-.08.21-.14.31-.17.23-.45.39-.77.39-.52 0-.95-.41-.95-.92 0-.52.42-.93.95-.93zM44.31 36.75c-.78 0-1.44.49-1.67 1.19h-1.13v1.05h1.14c.23.69.89 1.17 1.66 1.17.97 0 1.75-.76 1.75-1.7 0-.95-.79-1.71-1.75-1.71zm.95 1.7c0 .51-.42.92-.95.92-.52 0-.95-.41-.95-.92s.43-.92.95-.92.95.41.95.92zM39.28 38.25v.73h1.39v-1.04h-1.39zM44.31 29.23c-.77 0-1.43.48-1.66 1.17H39.6c-.23-.69-.89-1.17-1.66-1.17-.78 0-1.44.5-1.66 1.19h-4.43l-12.17-.02c-.23-.69-.89-1.17-1.66-1.17-.97 0-1.75.76-1.75 1.7s.79 1.7 1.75 1.7c.77 0 1.44-.5 1.67-1.19h10.8l5.8.02c.23.68.88 1.17 1.66 1.17.76 0 1.42-.49 1.66-1.17h3.05c.23.69.89 1.17 1.66 1.17.97 0 1.75-.76 1.75-1.7-.01-.94-.8-1.7-1.76-1.7zm0 2.62c-.33 0-.62-.16-.79-.41-.06-.09-.11-.2-.13-.31-.02-.07-.02-.13-.02-.2 0-.08.01-.15.03-.23.03-.11.08-.21.14-.31.17-.23.45-.39.77-.39s.6.15.77.39c.11.15.18.33.18.53 0 .19-.06.36-.16.51-.17.26-.46.42-.79.42zM38.54 38.22V37.91H26.37c-.23-.69-.89-1.17-1.66-1.17-.77 0-1.42.49-1.66 1.17h-3.38c-.23-.69-.89-1.17-1.66-1.17-.97 0-1.75.76-1.75 1.7s.79 1.7 1.75 1.7c.77 0 1.44-.5 1.67-1.19h3.36c.22.69.88 1.19 1.66 1.19.77 0 1.44-.5 1.67-1.19h12.15V38.65v-.41c.02 0 .02-.01.02-.02z"/>
  <g>
    <path d="M30.48 7.3c-2.42 0-4.76.35-6.96 1 .18.29.35.6.49.91 2.06-.58 4.22-.91 6.47-.91 12.7.01 23.03 10.06 23.02 22.39-.01 12.34-10.35 22.37-23.06 22.36-12.7-.01-23.03-10.06-23.02-22.39 0-4.31 1.29-8.32 3.47-11.73-.27-.21-.53-.45-.77-.69-2.34 3.6-3.73 7.85-3.73 12.42-.01 12.89 10.78 23.39 24.05 23.4 13.27.01 24.08-10.47 24.09-23.36S43.75 7.31 30.48 7.3z" fill="#948773"/>
  </g>
  <g>
    <path class="st2" d="M16.34 21.28c-4.8 0-8.7-3.8-8.69-8.46s3.91-8.45 8.71-8.44c4.8 0 8.7 3.8 8.69 8.46s-3.92 8.44-8.71 8.44zm.01-15.84c-4.19 0-7.61 3.31-7.61 7.38s3.41 7.39 7.6 7.39c4.19 0 7.61-3.31 7.61-7.38s-3.41-7.39-7.6-7.39z"/>
    <path class="st2" d="M18.85 7.82c.71.35 1.25.8 1.63 1.35.36.53.6 1.14.72 1.84.11.48.16 1.25.16 2.3h-7.82c.03 1.06.29 1.92.77 2.56.48.64 1.22.96 2.22.96.94 0 1.68-.3 2.24-.91.31-.35.53-.76.66-1.22h1.78c-.05.38-.2.81-.47 1.28-.26.47-.56.86-.89 1.16-.54.52-1.22.87-2.02 1.05-.43.1-.92.16-1.46.16-1.33 0-2.46-.47-3.38-1.42-.92-.95-1.39-2.27-1.39-3.97 0-1.68.47-3.04 1.4-4.09.93-1.05 2.15-1.57 3.65-1.57.75 0 1.49.18 2.2.52zm.65 4.1c-.07-.76-.24-1.37-.51-1.82-.49-.85-1.31-1.27-2.46-1.27-.82 0-1.51.29-2.07.87-.56.58-.85 1.32-.89 2.22h5.93z"/>
  </g>
</svg>
