<svg id="Layer_1" xmlns="http://www.w3.org/2000/svg" viewBox="0 0 60 60">
  <style>
    .st0{fill:#948773;stroke:#938673;stroke-width:.25;stroke-miterlimit:10}.st2{fill:#fff}
  </style>
  <path class="st0" d="M47.02 28.74l.25-.24v-.01l-.25-.25-1.77-1.73-.26.25 1.66 1.62-28.46-.12v.19l28.49.12-1.71 1.64.26.25 1.78-1.72z"/>
  <path class="st0" d="M18.11 28.53v-.35l28.34.12-1.58-1.55.37-.36.06.06 2.09 2.05-.07.06-.32.3-1.79 1.72-.37-.36.06-.06 1.56-1.5-28.35-.13zm.16-.19v.03l28.6.12-1.79 1.72.14.14 1.79-1.72.14-.13-.01-.01-1.91-1.86-.14.13 1.74 1.71-28.56-.13zM17.03 36.02l.02-3.6h.14V34h.39v-1.58H18.25L18.24 34h.39l.01-1.58h.09l.47.01h.1l-.01 2.08h.39l.01-2.08h.66l-.01 1.58h.4v-1.58h.1l.47.01h.09v1.58h.39v-1.58H22.46l-.01 1.58h.39l.01-1.58h.66l-.01 1.58.39.01.01-1.58h.66l-.01 2.08.39.01.01-2.09H25.61v1.58l.39.01.01-1.58H26.67l-.01 1.58h.39l.01-1.58h.66l-.01 1.58h.39l.01-1.58h.1l.47.01h.09v1.58h.39v-1.58H29.83l-.01 2.09h.39l.01-2.09h.09l.47.01h.1l-.01 1.58h.39l.01-1.58h.66l-.01 1.58h.39l.01-1.58h.57l.09.01v1.58h.39v-1.58H34.04l-.01 1.58h.39l.01-1.58H35.09l-.01 2.09h.39l.01-2.08h.66l-.01 1.58h.4V32.5H37.19v1.58h.39l.01-1.58.09.01h.57l-.01 1.58h.39l.01-1.58h.66l-.01 1.58h.39l.01-1.58h.1l.46.01h.1l-.01 2.08h.39l.01-2.08H41.41l-.01 1.58h.39l.01-1.58h.09l.47.01h.1l-.01 1.58h.39l.01-1.58h.66l-.01 1.58h.39l.01-1.58H44.56v1.58l.39.01v-1.58h.57v-.19h-.47l-.58-.01h-2.11l-.47-.01h-1.63l-.47-.01H37.68l-.58-.01H35.58l-.59-.01h-1.52l-.58-.01h-2.11l-.47-.01h-1.63l-.47-.01H26.1l-.58-.01H24l-.59-.01h-2.1l-.47-.01H19.2l-.46-.01H16.85l-.02 3.98 25.9.11v-.19z"/>
  <path class="st0" d="M16.75 36.29l.02-4.14 28.83.12v.35h-.56l-.01 1.58h-.56l.01-1.58h-.5l-.01 1.58h-.56l.01-1.58h-.5l-.01 1.58h-.56l.01-1.58h-.5l-.01 1.58h-.56l.01-1.58h-.5l-.01 2.09h-.56l.01-2.09h-.5l-.01 1.58h-.56l.01-1.58h-.5l-.01 1.58h-.56l.01-1.58h-.5l-.01 1.58h-.56l.01-1.58h-.5l-.01 1.58h-.56l.01-1.58h-.5l-.01 2.09h-.56l.01-2.09h-.5l-.01 1.58h-.56l.01-1.58h-.5l-.01 1.58h-.56l.01-1.58h-.5l-.01 1.58h-.56l.01-1.58h-.5l-.01 1.58h-.56l.01-1.58h-.5l-.01 2.09h-.56l.01-2.09h-.5l-.01 1.58h-.56l.01-1.58h-.5l-.01 1.58h-.56l.01-1.58h-.5l-.01 1.58h-.56l.01-1.58h-.5l-.01 1.58h-.56l.01-1.58h-.5l-.01 2.09h-.56l.01-2.09h-.5l-.01 1.58h-.56l.01-1.58h-.5l-.01 1.58h-.56l.01-1.58h-.5l-.01 1.58h-.56l.01-1.58h-.5l-.01 1.58h-.56l.01-1.58h-.5l-.01 2.09h-.56l.01-2.09h-.5l-.01 1.58h-.56l.01-1.58h-.5l-.01 1.58h-.54l-.01 1.86 25.71.11v.35l-25.88-.23zm.18-3.98l-.02 3.82 25.74.11v-.03l-25.7-.11.02-3.76h.31l-.01 1.58h.23l.01-1.58h.83l-.01 1.58h.23l.01-1.58h.83l-.01 2.09h.23l.01-2.09h.83l-.01 1.58h.23l.01-1.58h.83l-.01 1.58h.23l.01-1.58h.83l-.01 1.58h.23l.01-1.58h.83l-.01 1.58h.23l.01-1.58h.83l-.01 2.09h.23l.01-2.09h.83l-.01 1.58h.23l.01-1.58h.83l-.01 1.58h.23l.01-1.58h.83l-.01 1.58h.23l.01-1.58h.83l-.01 1.58h.23l.01-1.58H30l-.01 2.09h.23l.01-2.09h.83l-.01 1.58h.23l.01-1.58h.83l-.01 1.58h.23l.01-1.58h.83l-.01 1.58h.23l.01-1.58h.83l-.01 1.58h.23l.01-1.58h.83l-.01 2.09h.23l.01-2.09h.83L36.22 34h.23l.01-1.58h.83L37.27 34h.23l.01-1.58h.83L38.33 34h.23l.01-1.58h.83L39.39 34h.23l.01-1.58h.83l-.01 2.09h.23l.01-2.09h.83L41.51 34h.23l.01-1.58h.83L42.57 34h.23l.01-1.58h.83L43.63 34h.23l.01-1.58h.83L44.69 34h.23l.01-1.58h.56v-.03l-28.56-.08z"/>
  <g>
    <path transform="matrix(.00454 -1 1 .00454 7.2623 79.7533)" class="st0" d="M43.59 35.94h.19v.59h-.19z"/>
    <path class="st0" d="M43.31 36.4v-.35h.75v.35h-.75zm.17-.19v.03h.42v-.03h-.42z"/>
  </g>
  <g>
    <path class="st0" d="M46.61 32.35h-.51v.19h.31l-.01 3.61-1.76-.01v.19l1.95.01z"/>
    <path class="st0" d="M44.56 36.41v-.35l1.75.01.02-3.44h-.31v-.35h.67l-.02 4.14-2.11-.01zm.17-.19v.03l1.78.01.02-3.82h-.34v.03h.31l-.02 3.76-1.75-.01z"/>
  </g>
  <g>
    <path d="M31.35 7.67c-2.42 0-4.75.36-6.96 1.01.18.29.35.6.49.91 2.05-.59 4.22-.91 6.47-.91 12.7 0 23.04 10.04 23.04 22.37S44.06 53.42 31.35 53.42 8.32 43.39 8.32 31.05c0-4.31 1.28-8.32 3.46-11.73-.27-.21-.53-.45-.77-.69-2.34 3.6-3.72 7.86-3.72 12.43 0 12.89 10.8 23.38 24.07 23.38s24.07-10.49 24.07-23.38S44.63 7.67 31.35 7.67z" fill="#948773"/>
    <path class="st2" d="M17.22 21.66c-4.8 0-8.7-3.79-8.7-8.45 0-4.66 3.9-8.45 8.7-8.45s8.7 3.79 8.7 8.45c0 4.66-3.9 8.45-8.7 8.45zm0-15.83c-4.19 0-7.61 3.31-7.61 7.39s3.41 7.39 7.61 7.39 7.61-3.32 7.61-7.39-3.41-7.39-7.61-7.39z"/>
    <path class="st2" d="M14.83 6.66c.37-.52 1.07-.78 2.12-.78.1 0 .2 0 .31.01.1.01.22.01.36.02V7.3c-.17-.01-.28-.02-.36-.02h-.21c-.48 0-.77.12-.87.36-.09.24-.14.85-.14 1.84h1.57v1.2h-1.57v7.84h-1.56v-7.84h-1.3v-1.2h1.3V8.05c.03-.64.15-1.1.35-1.39z"/>
  </g>
</svg>
