<svg id="Layer_1" xmlns="http://www.w3.org/2000/svg" viewBox="0 0 60 60">
  <style>
    .st0{fill:#948773;stroke:#938673;stroke-width:.25;stroke-miterlimit:10}.st2{fill:#fff}
  </style>
  <path class="st0" d="M18.2 28.36c.25-.28.51-.55.77-.81l.06-.06-.66-.66-.07.07c-.27.26-.53.54-.8.84l-.1.12.72.6.08-.1zM17.21 29.62c.12-.17.24-.34.36-.5l.04-.06-.72-.6-.04.06c-.16.21-.32.42-.47.64l-.16.23.87.4.12-.17zM26.56 23.59c.96-.19 1.99-.28 3.05-.27h.04l.01-.92h-.05c-1.14-.01-2.24.09-3.28.3l-.26.05.25.89.24-.05zM19.69 26.88c.33-.28.68-.55 1.07-.82.35-.25.68-.46 1-.65l.14-.08-.46-.8-.06.04c-.82.48-1.61 1.03-2.33 1.65l-.09.07.66.66.07-.07zM37.71 24.6c-2.21-1.29-4.64-2.02-7.23-2.18h-.01v.24l-.01.43v.24c2.42.15 4.7.83 6.76 2.04 5.2 3.05 7.95 8.79 6.99 14.63l-.03.2.91.31.05-.29c1.05-6.22-1.87-12.36-7.43-15.62z"/>
  <path class="st0" d="M33.48 27.68l.31-.73-.22-.07c-.86-.28-1.79-.47-2.76-.58h-.04l-.09.78h.04c.9.1 1.76.28 2.57.54l.19.06zM30 27.02l.02-.21.04-.37.02-.21h-.01c-2.22-.13-4.37.25-6.39 1.13-5.09 2.22-8.22 7.16-7.99 12.59l.01.25.81-.18-.01-.17c-.19-5.07 2.76-9.69 7.51-11.77 1.89-.82 3.91-1.17 5.99-1.06zM38.58 27.73l-11 11.73c-.09.09-.13.22-.12.34s.07.24.17.32l1.36 1.1c.08.07.19.1.3.11h.07c.13-.02.25-.08.32-.19l9.64-12.83c.15-.2.11-.47-.08-.63-.21-.15-.49-.13-.66.05z"/>
  <g>
    <path d="M30.32 8.47c-2.42-.04-4.76.28-6.98.89.18.3.34.6.48.92 2.06-.55 4.24-.84 6.48-.81 12.7.2 22.86 10.37 22.65 22.65-.21 12.29-10.71 22.12-23.41 21.91S6.68 43.67 6.89 31.38c.07-4.29 1.42-8.26 3.66-11.63-.27-.22-.52-.45-.76-.7-2.4 3.55-3.85 7.77-3.93 12.32-.22 12.84 10.4 23.46 23.67 23.67 13.27.21 24.25-10.06 24.46-22.9S43.59 8.68 30.32 8.47z" fill="#948773"/>
  </g>
  <g>
    <path class="st2" d="M16.6 22.83c-4.8-.08-8.63-3.91-8.55-8.55.07-4.65 4.04-8.36 8.84-8.28s8.63 3.91 8.56 8.55c-.09 4.64-4.05 8.35-8.85 8.28zm.27-15.78c-4.19-.07-7.66 3.18-7.73 7.24s3.29 7.41 7.48 7.48c4.19.07 7.66-3.18 7.73-7.24.07-4.05-3.29-7.41-7.48-7.48z"/>
    <path class="st2" d="M18.27 8.72c.29.2.58.49.88.86l.02-1.12 1.43.02-.13 8.12c-.02 1.13-.2 2.02-.56 2.67-.66 1.2-1.88 1.79-3.66 1.76-.99-.02-1.82-.24-2.49-.68-.67-.44-1.03-1.12-1.1-2.04l1.58.02c.07.4.21.71.43.93.34.34.89.51 1.64.53 1.18.02 1.96-.38 2.34-1.18.22-.47.34-1.32.34-2.55-.32.45-.69.78-1.13 1-.44.22-1.01.32-1.73.31-1-.02-1.86-.37-2.6-1.07-.74-.7-1.09-1.84-1.06-3.42.02-1.49.42-2.66 1.19-3.48.77-.83 1.68-1.23 2.74-1.22.71 0 1.34.19 1.87.54zm.16 1.61c-.46-.54-1.05-.82-1.78-.83-1.09-.02-1.84.47-2.25 1.45-.22.52-.34 1.21-.35 2.07-.02 1.01.18 1.77.59 2.31s.97.8 1.68.81c1.11.02 1.9-.46 2.36-1.42.26-.55.4-1.19.41-1.92.02-1.11-.2-1.93-.66-2.47z"/>
  </g>
</svg>
