<svg id="Layer_1" xmlns="http://www.w3.org/2000/svg" viewBox="0 0 60 60">
  <style>
    .st1{fill:#fff}.st2{fill:#948773;stroke:#938673;stroke-width:.5;stroke-miterlimit:10}
  </style>
  <path d="M30.69 9.02c-2.42-.02-4.76.33-6.97.96.18.29.34.6.49.91 2.06-.57 4.23-.89 6.47-.87 12.7.08 22.97 10.17 22.88 22.49-.08 12.32-10.49 22.28-23.19 22.19-12.7-.07-22.97-10.16-22.88-22.48.03-4.3 1.34-8.3 3.54-11.69-.27-.22-.53-.45-.77-.7-2.37 3.58-3.77 7.82-3.8 12.38-.09 12.87 10.64 23.41 23.91 23.5 13.27.09 24.14-10.32 24.23-23.19S43.96 9.11 30.69 9.02z" fill="#948773"/>
  <path class="st1" d="M13.25 8.64l1.37.01-.02 4.05c.33-.4.62-.68.88-.84.44-.28 1-.42 1.66-.41 1.18.01 1.98.41 2.4 1.22.23.44.34 1.05.33 1.83l-.03 5.08-1.41-.01.03-4.99c0-.58-.07-1.01-.22-1.28-.25-.43-.71-.65-1.4-.66-.57 0-1.09.18-1.55.56-.46.38-.7 1.09-.71 2.15l-.03 4.2-1.37-.01.07-10.9z"/>
  <path class="st2" d="M40.88 33.13l-3.7-5.1-.35.49 3.35 4.61h-8.29v.69h8.29l-3.35 4.61.35.49 3.7-5.1.25-.35zM29.09 33.65l-5.86 8.07V35.2h-.5V42.89h5.58v-.68h-4.73l5.86-8.08zM34.24 22.88l-3.7-5.1-.25-.35-.25.35-3.7 5.1.36.48 3.34-4.61v7.46h.5v-7.46l3.35 4.61zM30.04 29.9h.5v1.79h-.5zM30.04 27.36h.5v.74h-.5z"/>
  <path class="st1" d="M16.46 22.9c-4.8-.03-8.67-3.84-8.64-8.49.03-4.65 3.96-8.41 8.76-8.38 4.8.03 8.67 3.84 8.64 8.49-.04 4.65-3.96 8.41-8.76 8.38zm.11-15.81c-4.19-.03-7.63 3.26-7.66 7.33s3.36 7.4 7.56 7.43c4.19.03 7.63-3.26 7.66-7.33s-3.37-7.41-7.56-7.43z"/>
</svg>
