<svg id="Layer_1" data-name="Layer 1" xmlns="http://www.w3.org/2000/svg" viewBox="0 0 165 49"><defs><style>.cls-1{fill:#e7e6e5}</style></defs><path class="cls-1" d="M67 104a6 6 0 0 1 4-1 3 3 0 0 1 3 3 8 8 0 0 1 0 1v10h-3v-10a2 2 0 0 0-1-1l-3 1v9h-4v-15-3l3-1 1 7zM175 117h-3v-1-14l-1-4a31 31 0 0 1 4-1 48 48 0 0 1 0 7h1a6 6 0 0 1 5-1 3 3 0 0 1 2 3 6 6 0 0 1 0 1v10h-4v-1-8a2 2 0 0 0 0-2 4 4 0 0 0-4 1zM116 98l4-1a49 49 0 0 1 0 7 21 21 0 0 1 3-1 5 5 0 0 1 3 0 3 3 0 0 1 2 2 7 7 0 0 1 0 2v9h-4v-9a2 2 0 0 0 0-1 4 4 0 0 0-4 1v9h-3v-14l-1-4zM105 107l-2-2a12 12 0 0 1 4-2 7 7 0 0 1 4 0 3 3 0 0 1 2 4v5a3 3 0 0 0 1 2 12 12 0 0 0 1 1l-2 2a3 3 0 0 1-2-1 4 4 0 0 1-2 1 7 7 0 0 1-4 0 3 3 0 0 1-2-2 5 5 0 0 1 1-5 5 5 0 0 1 3-2h3v-1a1 1 0 0 0-1-1 5 5 0 0 0-3 1zm5 4a17 17 0 0 0-2 0 2 2 0 0 0-1 3 1 1 0 0 0 1 0 2 2 0 0 0 2 0zM41 105a11 11 0 0 1 4-2 8 8 0 0 1 4 0 3 3 0 0 1 2 2 5 5 0 0 1 1 2v5a5 5 0 0 0 0 2 8 8 0 0 0 1 1l-2 2a4 4 0 0 1-2-1 4 4 0 0 1-2 1 7 7 0 0 1-4 0 3 3 0 0 1-2-3 5 5 0 0 1 0-3 4 4 0 0 1 3-2 10 10 0 0 1 4-1 3 3 0 0 0 0-2c-2-1-4 0-5 1zm7 6a5 5 0 0 0-2 0 2 2 0 0 0-1 1 2 2 0 0 0 0 2 1 1 0 0 0 2 0 13 13 0 0 0 1 0zM143 105a11 11 0 0 1 5-2 7 7 0 0 1 3 0 3 3 0 0 1 3 3v6a3 3 0 0 0 1 3l-2 2a4 4 0 0 1-2-1h-1a4 4 0 0 1-2 1 11 11 0 0 1-2 0 4 4 0 0 1-3-3 4 4 0 0 1 2-5 5 5 0 0 1 2 0l3-1a2 2 0 0 0-1-2l-4 1a24 24 0 0 1-2-2zm7 6h-2a2 2 0 0 0-1 2 2 2 0 0 0 0 1 1 1 0 0 0 2 0h1zM80 111a3 3 0 0 0 3 3 6 6 0 0 0 3-1l1 1v1a7 7 0 0 1-3 2 7 7 0 0 1-4 0 6 6 0 0 1-4-4 6 6 0 0 1 0-2 21 21 0 0 1 0-3 5 5 0 0 1 4-5 6 6 0 0 1 5 1 5 5 0 0 1 2 3 13 13 0 0 1 0 4h-7zm4-3l-1-2a2 2 0 0 0-2 0 3 3 0 0 0-1 2zM141 111h-7v1a3 3 0 0 0 3 2 6 6 0 0 0 3-1l1 2a6 6 0 0 1-2 2 7 7 0 0 1-5 0 5 5 0 0 1-3-3 9 9 0 0 1 0-8 5 5 0 0 1 3-3 6 6 0 0 1 4 0 5 5 0 0 1 3 4 13 13 0 0 1 0 4zm-3-3v-1a2 2 0 0 0-2-1 2 2 0 0 0-2 0 3 3 0 0 0 0 2zM89 104l4-1v1h1a5 5 0 0 1 4-1 3 3 0 0 1 2 3v11h-3v-1-7a10 10 0 0 0 0-2 4 4 0 0 0 0-1l-4 1v10h-3l-1-13zM59 99l-1 4h4l-1 3h-2v7c0 1 0 2 2 1l1 1v1a3 3 0 0 1-2 1 6 6 0 0 1-3 0 3 3 0 0 1-2-3v-8h-1v-3h1v-3zM164 106h-2v-3h2v-3l3-1v4h3a10 10 0 0 1 0 3h-3v7a2 2 0 0 0 1 1h2l1 2a6 6 0 0 1-5 1 3 3 0 0 1-2-3v-6zM160 97v15a9 9 0 0 0 0 1l2 2v2a5 5 0 0 1-3 0 3 3 0 0 1-2-3v-5-8l-1-3z" transform="translate(-17 -76)"/><path class="cls-1" d="M47 90a5 5 0 0 1 0 1l-4 3a20 20 0 0 0-3 5 37 37 0 0 0-3 7 24 24 0 0 0-2 6v4a26 26 0 0 0 2 8h-1l-1-1a2 2 0 0 1-1-1 34 34 0 0 1-1-8 28 28 0 0 1 2-10 30 30 0 0 1 5-9 22 22 0 0 1 6-5 6 6 0 0 1 1 0zM31 117a6 6 0 0 1-1 0 9 9 0 0 1-3-5 33 33 0 0 1-2-6 29 29 0 0 1 0-6 39 39 0 0 1 2-12l2-3a4 4 0 0 1 0-1v1l-1 4a53 53 0 0 0-1 7 30 30 0 0 0-1 6 26 26 0 0 0 2 8l3 7zM53 84a8 8 0 0 0-1 3 4 4 0 0 1-1 3 4 4 0 0 1-3 0l3-2a3 3 0 0 0 0-2c-2 0-3 2-4 3a5 5 0 0 1 6-5zM33 76a3 3 0 0 0 0 2v1a3 3 0 0 1-3 4 6 6 0 0 0 2-2 4 4 0 0 0 0-3l-3 4c-1-2 1-5 4-6z" transform="translate(-17 -76)"/><path class="cls-1" d="M33 120a5 5 0 0 1-2 0 8 8 0 0 1-5-3 32 32 0 0 1-3-4l-1-2v-1h1l3 5a18 18 0 0 0 6 5 11 11 0 0 0 1 0zM21 110c-2-1-4-3-3-6a13 13 0 0 0 3 1 3 3 0 0 1 2 4l-3-3c-1 1-1 1 1 4zM36 100a2 2 0 0 1-2-2 5 5 0 0 1 0-3v-2l4 2a4 4 0 0 1 0 3 2 2 0 0 1-1-1 3 3 0 0 0-2-2 3 3 0 0 0 0 2 15 15 0 0 0 1 2v1zM44 91a7 7 0 0 1-1-1 4 4 0 0 0-1-2 7 7 0 0 0-1 0 7 7 0 0 0 1 5 3 3 0 0 1-2-2 5 5 0 0 1 0-3 24 24 0 0 1 1-2 7 7 0 0 1 2 2 4 4 0 0 1 1 3zM49 97a11 11 0 0 1-4 2 4 4 0 0 1-3-1 1 1 0 0 1-1 0l5-1a3 3 0 0 0-2-1h-1a8 8 0 0 1-1 0 3 3 0 0 1 5 0l2 1zM24 81a8 8 0 0 1 2 2 3 3 0 0 1 1 3 2 2 0 0 1 0-1 3 3 0 0 0-2-2 6 6 0 0 0 1 5 3 3 0 0 1-2-2 5 5 0 0 1-1-3l1-2zM29 91c1 0 3-1 3-3a3 3 0 0 0-2 1 2 2 0 0 1-1 0 3 3 0 0 1 3-2h2a8 8 0 0 1-2 3 3 3 0 0 1-3 1zM18 99h6l-2 1 2 2a3 3 0 0 1-3 0 3 3 0 0 1 0-1 4 4 0 0 0-3-2zM27 95a4 4 0 0 1 6 1 4 4 0 0 0-2 1 6 6 0 0 1-2 1 2 2 0 0 1-2 0l3-2-2-1a3 3 0 0 1-1 0zM20 90c2-1 5 0 5 1h-2l1 3h-1a3 3 0 0 1-1-2 5 5 0 0 0-2-2zM33 102a5 5 0 0 0-2 2 3 3 0 0 1-3 2 7 7 0 0 0 2-3h-2a10 10 0 0 1-1 0c1-2 5-2 6-1zM17 114c1-2 4-3 5-1h-1a3 3 0 0 0-2 1h4a3 3 0 0 1-3 1 6 6 0 0 1-3-1zM36 100zM180 99a1 1 0 1 1 1 1 1 1 0 0 1-1-1zm1 1a1 1 0 1 0-1-1 1 1 0 0 0 1 1zm0-1v-1h1v1h-1zm0 0l1-1c0-1 0 0 0 0h-1v1z" transform="translate(-17 -76)"/></svg>