<svg id="Layer_1" data-name="Layer 1" xmlns="http://www.w3.org/2000/svg" viewBox="0 0 165 35"><defs><style>.cls-1{fill:#e7e6e5}</style></defs><path class="cls-1" d="M35 107l-2-5h-9l-1 5h-5l9-23h4l9 23zm-5-14l-1-4-2 4-1 4h5zM51 107v-1a6 6 0 0 1-4 1c-4 0-6-3-6-8V89h4v10c0 3 2 4 3 4s3-1 3-4V89h5v18h-5zM68 106a6 6 0 0 1-4 1c-3 0-5-2-5-5V85l5-2v6h4v5h-4v7l2 2 2-1zM77 107c-4 0-8-3-8-9s4-9 8-9 8 4 8 9-3 9-8 9m0-13c-2 0-3 2-3 4s1 5 3 5 4-2 4-5c0-2-1-4-4-4M103 107l-9-13-1-2v15h-5V84h4l9 12 1 3V84h5v23zM120 107v-1a6 6 0 0 1-4 1c-3 0-6-2-6-6s3-6 7-6a7 7 0 0 1 3 1v-1a2 2 0 0 0-2-2 9 9 0 0 0-5 1l-2-3a12 12 0 0 1 7-2c4 0 7 2 7 6v12h-5zm0-7a5 5 0 0 0-3-1c-2 0-3 1-3 2s1 2 3 2a4 4 0 0 0 3-1zM136 106a6 6 0 0 1-3 1c-3 0-5-2-5-5V85l5-2v6h4v5h-4v7l1 2 3-1z" transform="translate(-17 -83)"/><path class="cls-1" d="M122 7h5v18h-5z"/><path class="cls-1" d="M154 107c-4 0-8-3-8-9s4-9 8-9 8 4 8 9-3 9-8 9m0-13c-2 0-3 2-3 4s1 5 3 5 4-2 4-5c0-2-1-4-4-4M175 107v-9c0-4-1-5-3-5s-3 1-3 4v10h-5V89h5v2a6 6 0 0 1 4-2c4 0 6 3 6 8v10h-4zM182 107a1 1 0 1 1 1-1 1 1 0 0 1-1 1m0-2a1 1 0 1 0 0 1 1 1 0 0 0-1-1m1 1v1-1h-1v1-2h1v1m0 0h-1 1M159 111h-14a713 713 0 0 0-41 2l-16 1h1l17-1 19-1h20l19 1h16v-1l-1-1h-2a120 120 0 0 0-13 0h-5M141 115h-31 28l15 1h14l7 1h4a4 4 0 0 0 1 0 6 6 0 0 0 0-1h-2l-2-1a258 258 0 0 0-34-1" transform="translate(-17 -83)"/></svg>