<svg id="Layer_1" data-name="Layer 1" xmlns="http://www.w3.org/2000/svg" viewBox="0 0 156 44"><defs><style>.cls-1{fill:#e7e6e5}</style></defs><path class="cls-1" d="M97 113h-5l-4-6-4 6h-4v-1l6-7-6-8h5l3 5 4-5h4l-6 7 7 8M123 100a4 4 0 0 0-4 4h8v-1a3 3 0 0 0-4-3m7 6h-11c0 2 2 4 5 4a13 13 0 0 0 6-2v3a18 18 0 0 1-7 2 8 8 0 0 1 0-17c5 0 8 3 8 7l-1 3M153 94a2 2 0 0 1-3-2 2 2 0 1 1 5 0 2 2 0 0 1-2 2m-2 19V97h4v15h-4z" transform="translate(-22 -78)"/><path class="cls-1" d="M104 110a9 9 0 0 1-2 0v-10a9 9 0 0 1 3 0c3 0 4 2 4 5s-2 5-5 5m1-13a11 11 0 0 0-3 0h-4v25a9 9 0 0 0 4-1v-8a20 20 0 0 0 3 0c5 0 9-3 9-8a8 8 0 0 0-9-8M144 109a7 7 0 0 1-4 1c-2 0-4-2-4-5s2-5 5-5a6 6 0 0 1 3 0v9zm0-20v8a12 12 0 0 0-4 0 8 8 0 0 0-8 8c0 5 3 8 8 8a10 10 0 0 0 4-1v1a9 9 0 0 0 4-1V88a9 9 0 0 0-4 1M169 109a6 6 0 0 1-3 1c-3 0-5-2-5-5s2-5 5-5a6 6 0 0 1 3 1zm4-12h-3-1v1a10 10 0 0 0-4-1 8 8 0 0 0-8 8c0 5 3 8 8 8a5 5 0 0 0 4-2v2a10 10 0 0 0 4-1zM69 109h10a9 9 0 0 1-2 3H67a3 3 0 0 1-3-2V90a3 3 0 0 1 3-2h12a9 9 0 0 1-2 4h-8v5h8v4h-8v8zM56 113a2 2 0 1 1 2-2 2 2 0 0 1-2 2m0-4a2 2 0 1 0 2 2 2 2 0 0 0-2-2" transform="translate(-22 -78)"/><path class="cls-1" d="M56 111v-1l1 1h-1zm1 0l-1-1h-1v2h1v-1l1 1-1-1a1 1 0 0 0 1 0M176 100a2 2 0 0 1-1-2 2 2 0 1 1 1 2m0-4a2 2 0 0 0 0 4 2 2 0 0 0 2-2 2 2 0 0 0-2-2" transform="translate(-22 -78)"/><path class="cls-1" d="M176 98v-1h1l-1 1zm1 0l-1-1v2-1l1 1v-1M43 92l-1-2-6-9h1l11 9 6-1a10 10 0 0 1 2-1 18 18 0 0 0-33 2 18 18 0 0 0-1 9l15-5zM57 90a9 9 0 0 1-2 1l-6 2-5 13-1 1 1-11v-2l-6 2-16 4a18 18 0 1 0 35-10" transform="translate(-22 -78)"/></svg>