<svg id="Layer_1" data-name="Layer 1" xmlns="http://www.w3.org/2000/svg" viewBox="0 0 157 34"><defs><style>.cls-1{fill:#e7e6e5}</style></defs><path id="path3077" class="cls-1" d="M51 90l-1-1a2 2 0 0 0 1 0h2l-2 1zm0 2a3 3 0 0 0 3-2 1 1 0 0 0-1-1l-2 2v1zm0 0a4 4 0 0 0 3 3v-3-1a3 3 0 0 1-3 1" transform="translate(-21 -83)"/><path id="path3079" class="cls-1" d="M23 100l1-2v2l1-3v4l1-2v-1 1a11 11 0 0 1-1 3 9 9 0 0 0-1 3 1 1 0 0 0 1 1l-2-1c-1 3 3 3 1 5 0 0-2-1-2-3 0-3 2-4 2-5l-1-1v1a1 1 0 0 1 0 1l-1 1-1-3 1-3v2h1" transform="translate(-21 -83)"/><path id="path3081" class="cls-1" d="M26 104l1-1v-2a2 2 0 0 1 0-1 3 3 0 0 0 0 1l1 2-1 1c-1 0 0 0 0 0a1 1 0 0 0 1 1 1 1 0 0 0 0-1v-4a3 3 0 0 1 0-1l2 6h-1v-1a1 1 0 0 0 0 1 1 1 0 0 0 1 1 1 1 0 0 0 1-1l-3-6a3 3 0 0 1 1-1 4 4 0 0 0-3 4v1h-1a1 1 0 0 0 1 1" transform="translate(-21 -83)"/><path id="path3083" class="cls-1" d="M45 90a5 5 0 0 0 2-1l1 1 1-1 1 2-2 1a3 3 0 0 1-3-2zm3 1h1a7 7 0 0 1-1 0l-2-1c-1 0 0 0 0 0l2 1" transform="translate(-21 -83)"/><path id="path3085" class="cls-1" d="M26 109a2 2 0 0 0-1 2 4 4 0 0 0 4 3 2 2 0 0 0 2-2c0-2-1-4-3-4a2 2 0 0 0-1 2 2 2 0 0 0 2 2 1 1 0 0 0 1-1 1 1 0 0 0-1-1h-1l1 1a1 1 0 0 1-2-1l1-1a2 2 0 0 1 2 2 1 1 0 0 1-1 2c-2 0-3-2-3-4" transform="translate(-21 -83)"/><path id="path3087" class="cls-1" d="M41 116l1 1h-2a1 1 0 0 1-1-1 5 5 0 0 1-3 1l-4-1-3-2a3 3 0 0 0 1 0l2-1a3 3 0 0 1 1 1l1 1a1 1 0 0 0 1-1 3 3 0 0 0 3-2 3 3 0 0 1 1 0 3 3 0 0 1 1 0 5 5 0 0 1 1 1l1-1v2s0 2-2 2a2 2 0 0 1-1-2 1 1 0 0 0-1 0 4 4 0 0 1-4 1l1 1 3-1a3 3 0 0 0 3 1zm-1-2a1 1 0 1 0 0-1 1 1 0 0 0 0 1" transform="translate(-21 -83)"/><path id="path3089" class="cls-1" d="M50 107l-1 1a1 1 0 0 0 1 1l1-1-1-1zm-2 1l-2 2-1-1h1c2 0 1-2 3-2a2 2 0 0 1 3 2c0 2-3 4-3 4l-1-1a3 3 0 0 0 2-2l-2 2-1-1 2-3h-1" transform="translate(-21 -83)"/><path id="path3091" class="cls-1" d="M23 92a2 2 0 0 1-1 0 1 1 0 0 1-1-1 1 1 0 0 1 1-1 1 1 0 0 0 1 2zm3 2a2 2 0 0 0-1 1 1 1 0 0 0 1 2 1 1 0 0 0 1-1 2 2 0 0 0-1-2zm-4 1h1a2 2 0 0 0 1 0 3 3 0 0 0 2-2h-1v-1h-1a3 3 0 0 0-1 0l-1 2zm3-2v1l-1-1v-1l1 1zm-1 1a1 1 0 0 1-1-1 1 1 0 0 0 1 1h-1zm1-3l-1-2a1 1 0 0 0-1 1l2 1zm-4 5l1 2a3 3 0 0 0 2-1 6 6 0 0 1-2 0 1 1 0 0 1-1-1zm1-1v1a1 1 0 0 0 1 0 2 2 0 0 1-1-1zm3 0a1 1 0 0 0-1 1 1 1 0 0 0 1 1 1 1 0 0 1 0-1 2 2 0 0 1 0-1zm0-3a1 1 0 1 0 1-1 1 1 0 0 0-1 1zm1 1a1 1 0 1 0 1-1 1 1 0 0 0-1 1" transform="translate(-21 -83)"/><path id="path3093" class="cls-1" d="M46 99v-1l1 1h-1zm-5-4a1 1 0 1 0 1-1 1 1 0 0 0-1 1zm0 2a1 1 0 1 0 1-1 1 1 0 0 0-1 1zm2-1a1 1 0 0 0 0 1 1 1 0 0 0 0-2 1 1 0 0 0 0 1zm0-2v0zm2-1h0zm-1 2a1 1 0 1 0 1-1 1 1 0 0 0-1 1zm-1 3a1 1 0 1 0 0-1 1 1 0 0 0 0 1zm1-1a1 1 0 1 0 1-1 1 1 0 0 0-1 1zm0 1a1 1 0 1 0 1 0 1 1 0 0 0-1 0zm2-1zm0-1a1 1 0 1 0 0-1 1 1 0 0 0 0 1" transform="translate(-21 -83)"/><path id="path3095" class="cls-1" d="M47 112a4 4 0 0 1-2 1 3 3 0 0 1-2 0 3 3 0 0 0-1 2 1 1 0 0 0 1 1c3 0 5-1 5-3l-1-1zm-1 0l-1-1-1 1 1 1a2 2 0 0 0 1-1zm0 2a1 1 0 0 1 0 1 2 2 0 0 1-2 0 3 3 0 0 0 1-1 3 3 0 0 0 1 0" transform="translate(-21 -83)"/><path id="path3097" class="cls-1" d="M41 98l2 2v1c0 1 0 0 0 0v-1h2l-1 2h1v-1l1 2h-1-1 1l-1-1-1 1 1 1h-1v-1c0-1 0 0 0 0v-1c-1 0-1 2-3 2a1 1 0 0 0 1-1v-1-1l1 1h1c0-1-2-1-2-3a3 3 0 0 1 0-1zm6 4h1c1 0 0 0 0 0v-2c0-1 0 0 0 0l1 1 1-1v1h-1l1 1h-1l-1 1h1a5 5 0 0 0 2-1l-1 1 1 1h-1v1l-2-2a2 2 0 0 0 1 2h0v1h-1v-2-1l-1 1v2l-1-1h-1 1l-1-1h1l1-1-1-2h-1 1v-1l1 1 1-1c1 0 0 0 0 0l-1 2" transform="translate(-21 -83)"/><path id="path3099" class="cls-1" d="M42 105v1h-1a1 1 0 0 0-1 0l1 1c0 1-2 0-2 2a2 2 0 0 0 3 2l1-1h-1 1l-1-1a5 5 0 0 1-1 1l-1-1v-1a4 4 0 0 0 3 1 4 4 0 0 0 2-1 3 3 0 0 1-4 4 4 4 0 0 1-3-4 4 4 0 0 1 4-4l1 1h-1zm4 1l-1 1a1 1 0 0 0 1 1 1 1 0 0 0 1-1l-1-1zm-5 1a1 1 0 0 1 1 0l-1 1a1 1 0 0 0 1 0 1 1 0 0 0 1 0 1 1 0 0 0-2-1zm2-2a2 2 0 0 1 2 2 1 1 0 0 1-1 1 1 1 0 0 1-1-1v-2zm1 1v0" transform="translate(-21 -83)"/><path id="path3101" class="cls-1" d="M30 93l1-3h-1v3zm3 1v-2 2zm-2-1v-1-1 2zm1-1v0zm1-1l2 1-1 1c-1 0 0 0 0 0v-1 2a1 1 0 0 1-1 1l-2-2a3 3 0 0 1-2 1 1 1 0 0 1-1-2l1 1v-1a2 2 0 0 0 0-1 1 1 0 0 0-1 0 2 2 0 0 1 2-1l2 2a2 2 0 0 1 1-1" transform="translate(-21 -83)"/><path id="path3103" class="cls-1" d="M31 94l-1 2-1-2-1 1a3 3 0 0 0 0 1v-1a2 2 0 0 1 2 1 10 10 0 0 0-1 0 2 2 0 0 0-1 0 2 2 0 0 0-1 2 3 3 0 0 1 2-1 3 3 0 0 1 1 0 2 2 0 0 0-1 1v2l1 1v1h1v0a2 2 0 0 1 0-1l-1-1v-1-1l1-1a2 2 0 0 1 0 2l2-1-2-1a5 5 0 0 1 2 0h1a1 1 0 0 0-1-1 4 4 0 0 0-2 0l1-1-1-1" transform="translate(-21 -83)"/><path id="path3105" class="cls-1" d="M52 103l2 2a4 4 0 0 1-2 3c0-2-2-1-2-2a1 1 0 0 1 1-1 1 1 0 0 1 1 0 1 1 0 0 1 0-1 1 1 0 0 1 0-1" transform="translate(-21 -83)"/><path id="path3107" class="cls-1" d="M41 91a1 1 0 0 0 1 1h1c1 0 0 0 0 0a1 1 0 0 1-1 0 1 1 0 0 0 1 0 2 2 0 0 0 1-1 2 2 0 0 1 1 1 2 2 0 0 1-2 2 3 3 0 0 1-1-1l-1 1v-2a2 2 0 0 1 0-1zm2-1a1 1 0 0 0-1 0 1 1 0 0 0-1 1 1 1 0 0 1 0-1 1 1 0 0 1 2-1 2 2 0 0 1 1 1v-1 1a2 2 0 0 1 0 2 1 1 0 0 0-1-1 1 1 0 0 1 0-1" transform="translate(-21 -83)"/><path id="path3109" class="cls-1" d="M32 88a7 7 0 0 0 2 2l1-1a8 8 0 0 0-3-2v1zm-9-2a2 2 0 0 1-1 1h-1a1 1 0 0 1 1-1 1 1 0 0 1 1 0zm12 1l-3-3h1l1-1-3 1 2 2h-1l-2-1v1l1 2-2-1v1l-1-1-1 2v-2l-1 1v-1-1l-2 1 1-2h-2l2-2h-2-2l2 1-2 1 3 1-2 3 3-1v2l1-1 1 2 1-2h1l1-1 2 2v-1l-1-2h4zm-2-3l1 1h1l-1-1h-1zm-3-1h-1l-1 1-1-1h-1v1l-1 1h2l-1 1 1-1 1 2v-2l1 1h1l-1-1h2c1 0 0 0 0 0l-1-1v-1" transform="translate(-21 -83)"/><path id="path3111" class="cls-1" d="M53 85c0 1-1 2-3 2h1l2-1a1 1 0 0 0 0-1zm-2 1l-3-1h2l-2-2a4 4 0 0 1 2 0l2 1-1 1h1v-1a1 1 0 0 1 1-1h1a1 1 0 0 0 0 1 14 14 0 0 1 0 2c0 2-2 3-4 3a14 14 0 0 1-2-1l1-1v-1l1 1a1 1 0 0 0 1-1zm2-2v-1 1" transform="translate(-21 -83)"/><path id="path3113" class="cls-1" d="M52 95l-1-1-1 1-1-1v1l-1-1-1 1h2c1 0 0 0 0 0l-1 1h1l1-1v1h1l1-1zm0 7a8 8 0 0 1 1-2l-2-2a2 2 0 0 1 2-1v2c0 1 0 0 0 0a2 2 0 0 0 1-1 2 2 0 0 0-2-2 7 7 0 0 1-2 1c-3 0-4-3-4-4a2 2 0 0 0 2 0h1c2 0 2 1 3 2a3 3 0 0 1 2 3l-2 4 2-1a3 3 0 0 1-1 2v-1l-1 1a6 6 0 0 0-2-3c-1-1-3 0-3-2l1-1 1 2a7 7 0 0 1 3 3c0-2-3-4-3-5 1 0 2 1 2 3a8 8 0 0 1 1 2" transform="translate(-21 -83)"/><path id="path3115" class="cls-1" d="M45 88l-1-1 1 1v-1h1l-1-1 1-1h-1v-1h-1 1c1 0 2 0 2 2a2 2 0 0 1-2 2zm-2-2l-1-1h1c1 0 0 0 0 0h1v1c0 1 0 0 0 0v1h-1v-1h-1zm-1 2v1h1v-1a5 5 0 0 0 2 1 3 3 0 0 0 3-3 3 3 0 0 0-3-3 9 9 0 0 0-2 0h-1v1l-1-1 1 2h-1l1 1-1 1h1l-1 2 1-1" transform="translate(-21 -83)"/><path id="path3117" class="cls-1" d="M36 110a1 1 0 0 1 0 1 1 1 0 0 0-1-1c-1 0 0 2-2 2a7 7 0 0 1-1 0l2 1 3-2h1l-1-1h0v-1l-1 1" transform="translate(-21 -83)"/><path id="path3119" class="cls-1" d="M29 108l2 1a3 3 0 0 0 0 2 2 2 0 0 0 2 0h1a2 2 0 0 0-2-2l-1-2a2 2 0 0 0-2 0h-1l1 1zm4 3l-1-1h1v1" transform="translate(-21 -83)"/><path id="path3121" class="cls-1" d="M32 101l2-3a2 2 0 0 0-1 0 2 2 0 0 1 2 1l-1 2 1 2-1 2a1 1 0 0 0 1 1 3 3 0 0 1-1 0 3 3 0 0 1-2-2 2 2 0 0 1 0-2 2 2 0 0 0 1 1h1l-2-2zm4 6l-1 1v1a2 2 0 0 0 2-2h-1zm0-1l-1-1a2 2 0 0 1 0-1 1 1 0 0 0 1 1 2 2 0 0 1 1 2 3 3 0 0 1-3 2 3 3 0 0 1-2-2v-1a3 3 0 0 0 2 1l2-1" transform="translate(-21 -83)"/><path id="path3123" class="cls-1" d="M27 107h-1 1zm-3 0a1 1 0 0 0 1 1 1 1 0 0 0 1 0 1 1 0 0 0 1 0 1 1 0 0 0 0-1 1 1 0 0 0 1-1 1 1 0 0 0-1-1 1 1 0 0 0 0 1 1 1 0 0 0-1-1 1 1 0 0 0-1 1 1 1 0 0 0-1 1" transform="translate(-21 -83)"/><g id="layer1"><path id="path4456" class="cls-1" d="M116 86c-3 0-5 6-5 12a25 25 0 0 0 2 7 5 5 0 0 1-5 2c-1 0-3 0-3-4 1-2 0-6-1-6-2 0-3 4-3 6l-2 3c-3 0-4-9-6-9s-5 6-6 6l-1-4-1-1a2 2 0 0 0-1 2l-2 5-1 4a1 1 0 0 0 1 1c2 1 8-7 10-7s3 7 6 7l4-4c1 0 2 4 5 4 4 0 5-2 7-2l4 2a8 8 0 0 0 5-1 4 4 0 0 0 3 1c6 0 8-6 10-6s1 6 4 6c5 0 8-8 8-12l-1-2c-2 0-3 2-3 4v3l-2 5c-3 0-3-11-5-11l-1 2c-2 4-4 9-8 9a3 3 0 0 1-2-1c3-2 5-3 5-6 0-1-2-4-4-4s-5 4-5 9a7 7 0 0 0 0 2 3 3 0 0 1-2 0 5 5 0 0 1-4-3c2-3 4-6 4-14 0-4-2-5-4-5zm-11 1a3 3 0 0 0-3 3 2 2 0 0 0 2 2c2 0 3-2 3-4a2 2 0 0 0-2-1zm-27 1a2 2 0 0 0-1 0l-2 4a21 21 0 0 0 1 3 13 13 0 0 1 1 6c-1 5-3 8-6 8s-5-2-5-7a36 36 0 0 1 1-11l-1-3c-2 1-3 1-3 3a27 27 0 0 0-2 10c1 6 3 10 9 10 7 0 10-7 10-12v-9l-2-2zm38 2l2 2c0 4-2 10-3 10l-1-4 2-8zm59 6c-6 0-8 9-9 9l-2-7-2 1c-1 4-3 9-7 9l-2-1c0-1 6-1 6-6 0-2-2-4-4-4-3 0-6 3-6 8 0 4 2 5 5 5 4 0 7-3 9-6l2 6 2-2c2-4 4-9 7-9l3 1a2 2 0 0 0 2-2l-4-2zm-21 4c1 0 2 1 1 2a4 4 0 0 1-3 3c0-1-1-5 2-5zm-28 0l2 2a4 4 0 0 1-3 4 4 4 0 0 1-1-3c0-2 2-3 2-3z" transform="translate(-21 -83)"/></g></svg>